<svg width="47" height="47" viewBox="0 0 47 47" fill="none" xmlns="http://www.w3.org/2000/svg">
<circle opacity="0.203892" cx="23.5" cy="23.5" r="23.5" fill="#130242"/>
<path fill-rule="evenodd" clip-rule="evenodd" d="M25.2064 21.663C25.2064 23.1829 23.9701 24.4192 22.4502 24.4192C20.9303 24.4192 19.6939 23.1829 19.6939 21.663C19.6939 20.1431 20.9303 18.9067 22.4502 18.9067C23.9701 18.9067 25.2064 20.1431 25.2064 21.663ZM23.6314 21.663C23.6314 21.0094 23.1038 20.4817 22.4502 20.4817C21.7966 20.4817 21.2689 21.0094 21.2689 21.663C21.2689 22.3166 21.7966 22.8442 22.4502 22.8442C23.1038 22.8442 23.6314 22.3166 23.6314 21.663ZM22.4502 25.7974C20.6074 25.7974 16.9377 26.7187 16.9377 28.5536V29.1442C16.9377 29.5774 17.2921 29.9317 17.7252 29.9317H27.1752C27.6083 29.9317 27.9627 29.5774 27.9627 29.1442V28.5536C27.9627 26.7187 24.2929 25.7974 22.4502 25.7974ZM22.4502 27.3724C21.0406 27.3724 19.4419 27.9 18.7804 28.3567H26.1199C25.4584 27.9 23.8598 27.3724 22.4502 27.3724ZM27.9942 25.8446C28.9077 26.5061 29.5377 27.3881 29.5377 28.5536V29.9317H31.9002C32.3333 29.9317 32.6877 29.5774 32.6877 29.1442V28.5536C32.6877 26.9629 29.9314 26.0572 27.9942 25.8446ZM29.9314 21.663C29.9314 23.1829 28.6951 24.4192 27.1752 24.4192C26.7499 24.4192 26.3562 24.3169 25.9939 24.1436C26.4901 23.4427 26.7814 22.5844 26.7814 21.663C26.7814 20.7416 26.4901 19.8832 25.9939 19.1824C26.3562 19.0091 26.7499 18.9067 27.1752 18.9067C28.6951 18.9067 29.9314 20.1431 29.9314 21.663Z" fill="#130242"/>
<mask id="mask0" mask-type="alpha" maskUnits="userSpaceOnUse" x="16" y="18" width="17" height="12">
<path fill-rule="evenodd" clip-rule="evenodd" d="M25.2064 21.663C25.2064 23.1829 23.9701 24.4192 22.4502 24.4192C20.9303 24.4192 19.6939 23.1829 19.6939 21.663C19.6939 20.1431 20.9303 18.9067 22.4502 18.9067C23.9701 18.9067 25.2064 20.1431 25.2064 21.663ZM23.6314 21.663C23.6314 21.0094 23.1038 20.4817 22.4502 20.4817C21.7966 20.4817 21.2689 21.0094 21.2689 21.663C21.2689 22.3166 21.7966 22.8442 22.4502 22.8442C23.1038 22.8442 23.6314 22.3166 23.6314 21.663ZM22.4502 25.7974C20.6074 25.7974 16.9377 26.7187 16.9377 28.5536V29.1442C16.9377 29.5774 17.2921 29.9317 17.7252 29.9317H27.1752C27.6083 29.9317 27.9627 29.5774 27.9627 29.1442V28.5536C27.9627 26.7187 24.2929 25.7974 22.4502 25.7974ZM22.4502 27.3724C21.0406 27.3724 19.4419 27.9 18.7804 28.3567H26.1199C25.4584 27.9 23.8598 27.3724 22.4502 27.3724ZM27.9942 25.8446C28.9077 26.5061 29.5377 27.3881 29.5377 28.5536V29.9317H31.9002C32.3333 29.9317 32.6877 29.5774 32.6877 29.1442V28.5536C32.6877 26.9629 29.9314 26.0572 27.9942 25.8446ZM29.9314 21.663C29.9314 23.1829 28.6951 24.4192 27.1752 24.4192C26.7499 24.4192 26.3562 24.3169 25.9939 24.1436C26.4901 23.4427 26.7814 22.5844 26.7814 21.663C26.7814 20.7416 26.4901 19.8832 25.9939 19.1824C26.3562 19.0091 26.7499 18.9067 27.1752 18.9067C28.6951 18.9067 29.9314 20.1431 29.9314 21.663Z" fill="white"/>
</mask>
<g mask="url(#mask0)">
</g>
</svg>
