<svg width="47" height="47" viewBox="0 0 47 47" fill="none" xmlns="http://www.w3.org/2000/svg">
<circle cx="23.5" cy="23.5" r="23.5" fill="#FB1488"/>
<path fill-rule="evenodd" clip-rule="evenodd" d="M31.75 20.725C31.75 19.8509 31.0491 19.15 30.175 19.15H27.025V17.575C27.025 16.7009 26.3241 16 25.45 16H22.3C21.4259 16 20.725 16.7009 20.725 17.575V19.15H17.575C16.7009 19.15 16.0079 19.8509 16.0079 20.725L16 29.3875C16 30.2616 16.7009 30.9625 17.575 30.9625H30.175C31.0491 30.9625 31.75 30.2616 31.75 29.3875V20.725ZM25.45 19.15V17.575H22.3V19.15H25.45ZM17.575 21.5125V28.6C17.575 29.0331 17.9294 29.3875 18.3625 29.3875H29.3875C29.8206 29.3875 30.175 29.0331 30.175 28.6V21.5125C30.175 21.0794 29.8206 20.725 29.3875 20.725H18.3625C17.9294 20.725 17.575 21.0794 17.575 21.5125Z" fill="white"/>
<mask id="mask0" mask-type="alpha" maskUnits="userSpaceOnUse" x="16" y="16" width="16" height="15">
<path fill-rule="evenodd" clip-rule="evenodd" d="M31.75 20.725C31.75 19.8509 31.0491 19.15 30.175 19.15H27.025V17.575C27.025 16.7009 26.3241 16 25.45 16H22.3C21.4259 16 20.725 16.7009 20.725 17.575V19.15H17.575C16.7009 19.15 16.0079 19.8509 16.0079 20.725L16 29.3875C16 30.2616 16.7009 30.9625 17.575 30.9625H30.175C31.0491 30.9625 31.75 30.2616 31.75 29.3875V20.725ZM25.45 19.15V17.575H22.3V19.15H25.45ZM17.575 21.5125V28.6C17.575 29.0331 17.9294 29.3875 18.3625 29.3875H29.3875C29.8206 29.3875 30.175 29.0331 30.175 28.6V21.5125C30.175 21.0794 29.8206 20.725 29.3875 20.725H18.3625C17.9294 20.725 17.575 21.0794 17.575 21.5125Z" fill="white"/>
</mask>
<g mask="url(#mask0)">
</g>
</svg>
