<svg width="34" height="34" viewBox="0 0 34 34" fill="none" xmlns="http://www.w3.org/2000/svg">
<path d="M7.37907 18.4168H23.2032L16.2899 25.3302C15.7374 25.8827 15.7374 26.7893 16.2899 27.3418C16.8424 27.8943 17.7349 27.8943 18.2874 27.3418L27.6232 18.006C28.1757 17.4535 28.1757 16.561 27.6232 16.0085L18.3016 6.6585C18.0369 6.39322 17.6776 6.24414 17.3028 6.24414C16.9281 6.24414 16.5687 6.39322 16.3041 6.6585C15.7516 7.211 15.7516 8.1035 16.3041 8.656L23.2032 15.5835H7.37907C6.5999 15.5835 5.9624 16.221 5.9624 17.0002C5.9624 17.7793 6.5999 18.4168 7.37907 18.4168Z" fill="#37474F"/>
<mask id="mask0" mask-type="alpha" maskUnits="userSpaceOnUse" x="5" y="6" width="24" height="22">
<path d="M7.37907 18.4168H23.2032L16.2899 25.3302C15.7374 25.8827 15.7374 26.7893 16.2899 27.3418C16.8424 27.8943 17.7349 27.8943 18.2874 27.3418L27.6232 18.006C28.1757 17.4535 28.1757 16.561 27.6232 16.0085L18.3016 6.6585C18.0369 6.39322 17.6776 6.24414 17.3028 6.24414C16.9281 6.24414 16.5687 6.39322 16.3041 6.6585C15.7516 7.211 15.7516 8.1035 16.3041 8.656L23.2032 15.5835H7.37907C6.5999 15.5835 5.9624 16.221 5.9624 17.0002C5.9624 17.7793 6.5999 18.4168 7.37907 18.4168Z" fill="white"/>
</mask>
<g mask="url(#mask0)">
</g>
</svg>
