<svg width="597" height="806" viewBox="0 0 597 806" fill="none" xmlns="http://www.w3.org/2000/svg">
<path fill-rule="evenodd" clip-rule="evenodd" d="M543.452 698.69C540.696 698.69 538.461 696.453 538.461 693.694V130.484L361.687 328.831C359.856 330.89 356.693 331.077 354.642 329.235C352.586 327.397 352.405 324.24 354.24 322.18L548.443 104.269V693.694C548.443 696.453 546.207 698.69 543.452 698.69Z" fill="#7FCDFF"/>
<path fill-rule="evenodd" clip-rule="evenodd" d="M4.24447 717.152L-17.6482 705.809C-31.5671 683.589 -42.3617 657.497 -43.3085 629.306C-43.3085 629.306 -22.6813 628.008 0.683189 631.575L15.4245 649.102L16.602 634.776C28.0445 637.703 39.1926 642.084 48.0298 648.62L49.6246 677.262L58.747 659.33C60.4784 661.752 61.9548 664.364 63.1383 667.186C81.3514 710.62 94.8211 766.809 94.8211 766.809L49.5442 778.5C49.5442 778.5 21.5016 758.162 -3.77334 725.603L4.24447 717.152Z" fill="#AD2500"/>
<path fill-rule="evenodd" clip-rule="evenodd" d="M43.4918 760.068C55.8721 762.662 63.726 760.68 66.4922 759.727C47.6874 745.022 29.4986 724.928 14.642 706.434C13.9728 706.639 13.3052 706.827 12.6451 706.999C0.298241 710.186 -10.7042 707.474 -19.0361 703.564C-19.508 702.788 -19.9769 702.01 -20.4412 701.225C-11.8635 705.673 0.111603 709.148 13.6496 705.195C9.31297 699.761 5.11894 694.291 0.994717 688.729C-9.70429 690.064 -21.5398 686.439 -30.0341 682.901C-30.3406 682.225 -30.6441 681.546 -30.9445 680.866C-22.7203 684.422 -10.7133 688.418 -0.0158539 687.361C-20.9389 658.982 -35.5528 635.458 -35.706 635.196L-39.7346 630.109L-35.1142 633.172C-34.8472 633.628 -22.9009 652.67 -6.13239 676.282C-3.70763 663.646 -13.6935 636.875 -16.5143 629.682C-15.971 629.72 -15.4248 629.76 -14.874 629.805C-11.5676 638.256 -1.55144 665.564 -4.99436 677.883C5.64547 692.775 18.5401 709.585 32.5409 725.201C34.8671 718.48 18.9817 682.993 25.7977 665.615C29.9568 655.01 28.1421 644.386 26.0102 637.561C26.5837 637.757 27.1573 637.957 27.7263 638.162C29.7793 645.232 31.2739 655.689 27.1725 666.148C20.3063 683.658 37.5012 720.058 33.6001 726.378C36.3404 729.411 39.1218 732.394 41.9365 735.307C43.9652 699.184 43.5176 698.034 38.656 685.177C35.8609 677.781 33.2192 670.798 37.0035 664.406C40.2871 658.859 39.4966 649.753 38.0809 642.566C38.6529 642.853 39.2204 643.147 39.7803 643.447C41.0929 650.667 41.6315 659.481 38.2751 665.154C32.2466 675.335 44.3947 687.584 44.4387 702.857C44.4796 716.686 43.4994 733.909 43.3325 736.743C49.0909 742.634 54.9783 748.209 60.9219 753.279C62.33 751.301 67.9671 741.987 61.8293 727.039C56.8447 714.902 64.5105 695.831 70.0171 684.718C70.2614 685.375 70.5011 686.031 70.7408 686.69C65.4315 697.75 58.6625 715.443 63.1949 726.479C69.7485 742.438 63.5743 752.19 62.0539 754.237C69.2159 760.258 76.4538 765.525 83.64 769.697L81.628 770.216C80.3564 769.457 79.0879 768.666 77.8194 767.842C72.6816 771.035 63.7852 772.341 53.549 768.196C47.3429 765.681 41.6285 766.617 37.1507 768.482C36.7486 768.134 36.3389 767.779 35.9216 767.416C40.7788 765.241 47.1396 764.011 54.1059 766.831C65.7487 771.547 73.7938 768.325 76.4295 766.933C73.5677 765.028 70.709 762.972 67.8639 760.79C60.9522 763.703 50.7418 763.092 43.1853 761.51C38.3115 760.489 33.6865 760.825 29.6291 761.771C29.2057 761.381 28.7794 760.984 28.3469 760.58C32.808 759.414 37.9944 758.917 43.4918 760.068Z" fill="#A7CBD3"/>
<path fill-rule="evenodd" clip-rule="evenodd" d="M54.8824 666.926L58.7472 659.33C60.4785 661.752 61.9549 664.364 63.137 667.186C81.3515 710.619 94.8213 766.81 94.8213 766.81C94.8213 766.81 66.5571 730.374 54.8824 666.926Z" fill="#195F6D"/>
<path fill-rule="evenodd" clip-rule="evenodd" d="M234.37 692.897C232.461 693.389 204.971 687.313 166.689 710.374C128.408 733.432 104.137 764.404 104.137 764.404C104.137 764.404 153.896 761.309 195.431 742.983C236.966 724.657 234.37 692.897 234.37 692.897Z" fill="#004A58"/>
<path fill-rule="evenodd" clip-rule="evenodd" d="M108.217 759.75C130.62 734.039 167.289 703.773 202.516 695.281C200.504 717.953 194.486 735.629 177.139 750.007C147.868 759.781 118.634 763.317 108.143 764.337C108.14 762.919 108.161 761.385 108.217 759.75Z" fill="#003842"/>
<path fill-rule="evenodd" clip-rule="evenodd" d="M61.3372 582.339L83.9446 596.446L66.8589 559.199C70.5037 546.615 75.0968 534.618 80.6048 523.834C95.8059 494.065 125.134 448.107 125.134 448.107C138.784 463.917 149.441 479.931 157.586 495.924L142.892 521.432L165.422 513.155C216.381 640.056 119.485 760.439 119.485 760.439L94.8211 766.809C94.8211 766.809 56.1842 662.773 56.6698 627.683C56.8746 612.934 58.4512 597.494 61.3372 582.339Z" fill="#E0AA1A"/>
<path fill-rule="evenodd" clip-rule="evenodd" d="M57.6327 640.195C57.3262 638.004 57.088 635.923 56.9226 633.972C65.8038 646.915 88.4293 677.752 105.705 682.907C105.846 681.343 105.997 679.774 106.163 678.209C89.8511 676.553 68.3196 642.798 56.7951 622.545C56.8588 620.703 56.9453 618.85 57.0515 616.994C69.3923 639.237 91.6886 673.958 106.486 675.288C107.9 663.078 110.105 650.971 113.436 639.981C116.171 630.952 118.258 618.967 119.837 605.395C104.45 598.912 83.8833 559.824 73.8079 538.874C74.2889 537.672 74.7775 536.479 75.2767 535.298C84.5949 554.864 105.597 595.158 120.185 602.323C121.271 592.347 122.104 581.597 122.733 570.59C107.598 557.076 95.0618 523.411 89.6387 507.074C90.2896 505.909 90.9512 504.741 91.6173 503.565C96.262 517.824 108.454 551.993 122.944 566.715C125.839 511.604 124.799 452.034 124.766 451.118L125.329 448.865L125.869 451.015C125.904 452.042 129.297 526.945 124.594 586.629C147.666 588.207 167.096 567.261 177.062 553.879C177.302 555.233 177.528 556.584 177.734 557.934C175.206 561.193 172.193 564.769 168.749 568.32C158.546 578.844 147.921 585.585 137.421 588.296C133.031 589.431 128.664 589.859 124.358 589.564C123.006 605.723 121.106 620.603 118.463 632.368C139.314 634.079 165.237 619.494 179.369 610.236C179.255 611.514 179.133 612.785 179.003 614.051C168.714 620.671 153.4 629.244 137.958 633.232C131.118 634.998 124.247 635.865 117.781 635.265C117.297 637.221 116.791 639.08 116.264 640.828C101.914 688.168 108.718 756.704 109.39 763.047L106.501 763.793C106.302 761.989 102.304 724.923 105.45 685.898C88.7996 681.372 68.2331 655.143 57.6327 640.195Z" fill="#CFD5F1"/>
<path fill-rule="evenodd" clip-rule="evenodd" d="M119.544 760.425L96.5758 766.357C96.5758 766.357 89.262 715.829 126.456 671.349L134.161 678.529L131.674 665.466C133.891 663.109 136.241 660.779 138.736 658.481L150.168 673.288L147.693 650.879C155.884 644.469 165.349 638.421 176.291 632.951C163.085 705.197 121.124 758.441 119.544 760.425Z" fill="#6670A4"/>
<path fill-rule="evenodd" clip-rule="evenodd" d="M-1.55083 699.74L8.72635 719.747L10.5973 703.012C17.6015 705.186 24.6117 707.888 31.405 711.24L35.8312 721.362L40.5108 716.225C59.0895 727.485 75.0902 744.413 83.3827 769.761L45.2602 779.607C45.2602 779.607 -42.57 778.091 -66.9861 695.213C-66.9861 695.213 -35.9649 691.792 -1.55083 699.74Z" fill="#469AA8"/>
<path fill-rule="evenodd" clip-rule="evenodd" d="M68.7033 773.553L62.3334 775.199C11.2449 762.511 -57.7592 702.189 -60.7818 699.53L-65.1185 695.554L-58.8259 697.32C-58.0627 697.99 18.023 764.509 68.7033 773.553Z" fill="#A7CBD3"/>
<path fill-rule="evenodd" clip-rule="evenodd" d="M129.775 683.277L136.378 689.43L134.246 678.236C136.143 676.22 138.158 674.222 140.296 672.253L150.088 684.94L147.968 665.741C159.074 657.051 172.917 649.139 190.168 642.73C190.168 642.73 199.704 695.499 182.705 724.211C165.706 752.923 128.951 758.233 128.951 758.233L104.166 764.633C104.166 764.633 97.9128 721.385 129.775 683.277Z" fill="#E0AA1A"/>
<path fill-rule="evenodd" clip-rule="evenodd" d="M126.183 758.949L122.436 759.916C167.369 708.263 186.975 647.07 187.171 646.448L189.611 644.012L189.284 647.105C189.092 647.723 169.959 707.461 126.183 758.949Z" fill="#F3DDA3"/>
<path fill-rule="evenodd" clip-rule="evenodd" d="M103.395 764.194C103.395 764.194 123.737 706.569 151.436 681.807C179.131 657.045 235.143 657.639 235.143 657.639C235.143 657.639 229.941 669.444 221.039 685.115L200.225 688.091L214.842 695.61C200.225 719.406 178.956 747.472 155.173 757.871C110.82 777.262 103.395 764.194 103.395 764.194Z" fill="#AD2500"/>
<path fill-rule="evenodd" clip-rule="evenodd" d="M103.395 764.194C103.402 764.178 103.65 763.453 104.493 761.224C111.614 752.712 134.807 725.516 157.041 703.732C157.707 697.196 152.807 689.569 148.671 684.41C149.281 683.804 149.897 683.216 150.518 682.644C154.417 687.478 159.044 694.53 159.569 701.275C160.605 700.275 168.163 693.496 170.913 691.35C171.832 684.676 166.867 678.313 162.342 674.024C163.112 673.58 163.892 673.151 164.681 672.73C168.942 676.902 173.39 682.803 173.542 689.35C176.248 687.336 178.982 685.449 181.712 683.681C185.748 677.751 184.326 670.514 182.399 665.454C183.217 665.196 184.036 664.947 184.857 664.707C186.561 669.222 187.856 675.322 185.813 681.108C188.256 679.623 190.679 678.237 193.057 676.943C197.544 668.519 197.808 663.893 197.38 661.612C198.216 661.44 199.049 661.275 199.873 661.118C200.356 663.689 200.069 668.011 196.872 674.923C213.956 666.125 227.767 661.34 227.995 661.276L233.274 659.78L228.215 664.227C227.861 664.323 195.414 673.88 168.605 696.456C180.243 694.849 194.09 702.638 202.09 707.135C203.421 707.882 204.846 708.686 205.973 709.263C205.492 709.958 205.009 710.655 204.521 711.353C203.545 710.845 202.348 710.177 200.849 709.333C191.96 704.335 175.515 695.089 164.248 700.298C162.884 701.562 156.211 708.08 154.616 709.679C166.099 708.523 185.701 717.98 195.614 723.271C195.084 723.938 194.547 724.603 194.005 725.262C180.909 718.328 158.969 708.604 151.05 713.292C127.173 737.71 103.395 764.194 103.395 764.194Z" fill="#DE9C8C"/>
<path fill-rule="evenodd" clip-rule="evenodd" d="M-1.37892 480.655C-26.6948 480.655 -47.2886 460.044 -47.2886 434.708C-47.2886 409.372 -26.6948 388.759 -1.37892 388.759C23.9354 388.759 44.5308 409.372 44.5308 434.708C44.5308 460.044 23.9354 480.655 -1.37892 480.655Z" fill="white"/>
<path fill-rule="evenodd" clip-rule="evenodd" d="M543.452 163.326C518.139 163.326 497.542 142.713 497.542 117.377C497.542 92.0415 518.139 71.4287 543.452 71.4287C568.768 71.4287 589.363 92.0415 589.363 117.377C589.363 142.713 568.768 163.326 543.452 163.326Z" fill="white"/>
<path fill-rule="evenodd" clip-rule="evenodd" d="M156.628 161.251C156.296 161.251 155.959 161.128 155.658 160.867C154.193 159.598 152.672 158.328 151.149 157.095C150.301 156.41 150.027 154.932 150.537 153.793C151.047 152.654 152.147 152.287 152.994 152.972C154.551 154.229 156.1 155.525 157.601 156.824C158.429 157.543 158.67 159.033 158.133 160.149C157.793 160.863 157.215 161.251 156.628 161.251Z" fill="#99D7FF"/>
<path fill-rule="evenodd" clip-rule="evenodd" d="M13.1754 111.795H13.136C9.70671 111.693 6.35332 111.64 3.16379 111.64H2.59477C1.60545 111.64 0.804276 110.563 0.804276 109.235C0.804276 107.906 1.60545 106.829 2.59477 106.829H3.16379C6.3791 106.829 9.76134 106.881 13.2134 106.984C14.2042 107.014 14.9857 108.114 14.9659 109.441C14.9447 110.752 14.1465 111.795 13.1754 111.795ZM-23.2537 112.961C-24.1778 112.961 -24.9638 112.006 -25.0381 110.747C-25.1155 109.423 -24.3811 108.263 -23.3963 108.156C-19.9671 107.787 -16.3906 107.491 -12.7671 107.277C-11.7975 107.206 -10.9432 108.249 -10.8977 109.576C-10.8552 110.904 -11.6215 112.026 -12.6093 112.085C-16.1918 112.296 -19.7243 112.588 -23.108 112.952C-23.1566 112.958 -23.2067 112.961 -23.2537 112.961ZM39.0133 113.51C38.9647 113.51 38.9177 113.507 38.8676 113.502C35.4201 113.132 31.8816 112.811 28.3507 112.553C27.3629 112.48 26.6072 111.347 26.6603 110.018C26.7134 108.693 27.5343 107.707 28.5464 107.746C32.1077 108.009 35.6781 108.331 39.1544 108.706C40.1407 108.812 40.8766 109.971 40.7962 111.297C40.7218 112.556 39.9374 113.51 39.0133 113.51ZM64.7055 117.502C64.6144 117.502 64.5234 117.493 64.4308 117.473C61.0046 116.769 57.4949 116.122 54.0004 115.551C53.0202 115.39 52.3222 114.192 52.4405 112.87C52.5604 111.552 53.4602 110.627 54.4344 110.773C57.9653 111.352 61.5099 112.005 64.974 112.718C65.9512 112.919 66.6234 114.148 66.4732 115.461C66.3366 116.65 65.5734 117.502 64.7055 117.502ZM-48.8822 117.571C-49.7213 117.571 -50.4708 116.773 -50.6393 115.624C-50.8289 114.321 -50.1947 113.057 -49.2236 112.802C-45.8155 111.909 -42.2755 111.107 -38.6991 110.422C-37.7279 110.24 -36.8114 111.148 -36.6718 112.463C-36.5338 113.78 -37.212 114.998 -38.1922 115.185C-41.708 115.859 -45.1904 116.647 -48.5377 117.525C-48.653 117.555 -48.7683 117.571 -48.8822 117.571ZM90.0775 124.197C89.9348 124.197 89.7953 124.175 89.6526 124.13C86.3098 123.039 82.8578 122.007 79.3906 121.056C78.421 120.789 77.7959 119.519 77.9916 118.218C78.1904 116.913 79.1357 116.073 80.1068 116.339C83.6165 117.302 87.111 118.35 90.4978 119.452C91.4583 119.765 92.047 121.067 91.8164 122.357C91.6146 123.46 90.8832 124.197 90.0775 124.197ZM-73.8157 126.669C-74.5501 126.669 -75.239 126.058 -75.5015 125.076C-75.8353 123.824 -75.3512 122.447 -74.4211 121.999C-71.1345 120.415 -67.7067 118.937 -64.2349 117.609C-63.2836 117.246 -62.2912 117.985 -62.0211 119.264C-61.7495 120.541 -62.3018 121.873 -63.2532 122.236C-66.6461 123.534 -69.9964 124.98 -73.2102 126.528C-73.4105 126.623 -73.6138 126.669 -73.8157 126.669ZM114.862 134.059C114.663 134.059 114.462 134.015 114.263 133.919C111.007 132.368 107.652 130.883 104.291 129.506C103.345 129.117 102.814 127.773 103.103 126.502C103.392 125.231 104.391 124.511 105.339 124.903C108.747 126.303 112.152 127.809 115.46 129.384C116.393 129.829 116.88 131.205 116.551 132.455C116.29 133.442 115.6 134.059 114.862 134.059ZM-97.2196 141.306C-97.8327 141.306 -98.4305 140.882 -98.7643 140.12C-99.2681 138.975 -98.9828 137.502 -98.1301 136.826C-95.0923 134.423 -91.9119 132.139 -88.6814 130.031C-87.7892 129.453 -86.7194 129.951 -86.2869 131.144C-85.856 132.341 -86.2263 133.782 -87.117 134.361C-90.2625 136.411 -93.3549 138.636 -96.3122 140.973C-96.599 141.198 -96.9116 141.306 -97.2196 141.306ZM133.447 145.585C133.177 145.585 132.907 145.505 132.649 145.333C129.567 143.274 126.367 141.272 123.143 139.389C122.235 138.858 121.821 137.444 122.214 136.224C122.608 135.005 123.663 134.448 124.57 134.976C127.854 136.893 131.109 138.928 134.244 141.025C135.13 141.617 135.491 143.061 135.049 144.25C134.738 145.096 134.104 145.585 133.447 145.585ZM-118.018 161.838C-118.505 161.838 -118.994 161.572 -119.346 161.05C-120.009 160.066 -119.953 158.543 -119.222 157.65C-116.578 154.43 -113.806 151.327 -110.982 148.43C-110.195 147.623 -109.072 147.825 -108.471 148.879C-107.87 149.935 -108.02 151.444 -108.808 152.251C-111.551 155.069 -114.246 158.084 -116.815 161.215C-117.159 161.632 -117.589 161.838 -118.018 161.838ZM-135.635 187.233C-136.025 187.233 -136.419 187.062 -136.749 186.709C-137.523 185.882 -137.652 184.367 -137.036 183.33C-134.823 179.593 -132.496 175.909 -130.116 172.378C-129.452 171.387 -128.317 171.318 -127.585 172.208C-126.851 173.099 -126.795 174.621 -127.458 175.608C-129.789 179.064 -132.068 182.67 -134.231 186.324C-134.585 186.922 -135.108 187.233 -135.635 187.233ZM-150.129 215.966C-150.431 215.966 -150.736 215.865 -151.015 215.65C-151.874 214.993 -152.176 213.523 -151.684 212.369C-149.929 208.235 -148.049 204.116 -146.096 200.124C-145.551 199.015 -144.439 198.707 -143.615 199.434C-142.789 200.163 -142.559 201.657 -143.102 202.766C-145.014 206.674 -146.854 210.707 -148.574 214.753C-148.901 215.53 -149.508 215.966 -150.129 215.966ZM-161.162 247.349C-161.373 247.349 -161.588 247.299 -161.798 247.193C-162.723 246.719 -163.187 245.331 -162.835 244.087C-161.578 239.642 -160.191 235.182 -158.717 230.832C-158.306 229.625 -157.245 229.091 -156.344 229.64C-155.443 230.192 -155.047 231.616 -155.456 232.828C-156.898 237.083 -158.256 241.448 -159.487 245.799C-159.758 246.759 -160.44 247.349 -161.162 247.349ZM-168.403 280.661C-168.524 280.661 -168.645 280.646 -168.767 280.611C-169.736 280.342 -170.359 279.07 -170.158 277.768C-169.444 273.124 -168.598 268.425 -167.646 263.806C-167.382 262.522 -166.397 261.774 -165.442 262.128C-164.489 262.481 -163.929 263.807 -164.195 265.086C-165.125 269.607 -165.952 274.202 -166.652 278.743C-166.826 279.881 -167.571 280.661 -168.403 280.661ZM-171.56 315.097C-171.585 315.097 -171.607 315.097 -171.632 315.096C-172.619 315.042 -173.39 313.925 -173.352 312.597C-173.213 307.851 -172.947 303.028 -172.563 298.266C-172.457 296.944 -171.574 295.989 -170.589 296.132C-169.606 296.275 -168.896 297.462 -169.002 298.784C-169.378 303.437 -169.636 308.149 -169.771 312.786C-169.811 314.081 -170.604 315.097 -171.56 315.097ZM-170.403 349.762C-171.289 349.762 -172.058 348.881 -172.175 347.671C-172.283 346.58 -172.383 345.492 -172.477 344.394C-172.789 340.743 -173.031 337.03 -173.195 333.357C-173.254 332.032 -172.503 330.891 -171.515 330.811C-170.539 330.738 -169.68 331.742 -169.621 333.066C-169.459 336.653 -169.222 340.279 -168.917 343.848C-168.826 344.917 -168.729 345.982 -168.626 347.044C-168.497 348.362 -169.186 349.569 -170.166 349.744C-170.246 349.756 -170.325 349.762 -170.403 349.762ZM-164.744 383.612C-165.501 383.612 -166.204 382.963 -166.45 381.944C-167.541 377.397 -168.515 372.736 -169.351 368.089C-169.583 366.797 -168.993 365.498 -168.032 365.187C-167.067 364.876 -166.101 365.667 -165.869 366.959C-165.054 371.49 -164.102 376.035 -163.04 380.468C-162.737 381.734 -163.254 383.089 -164.195 383.496C-164.379 383.574 -164.562 383.612 -164.744 383.612ZM-154.634 415.54C-155.274 415.54 -155.892 415.08 -156.215 414.27C-157.896 410.05 -159.482 405.703 -160.922 401.353C-161.326 400.138 -160.919 398.716 -160.016 398.175C-159.113 397.632 -158.053 398.18 -157.651 399.393C-156.242 403.64 -154.699 407.881 -153.058 411.998C-152.589 413.169 -152.918 414.627 -153.79 415.254C-154.059 415.447 -154.349 415.54 -154.634 415.54ZM-140.562 444.631C-141.098 444.631 -141.629 444.309 -141.979 443.696C-144.169 439.893 -146.275 435.977 -148.24 432.051C-148.791 430.947 -148.574 429.454 -147.753 428.711C-146.933 427.973 -145.818 428.263 -145.266 429.364C-143.345 433.203 -141.286 437.035 -139.146 440.754C-138.541 441.805 -138.683 443.318 -139.469 444.127C-139.794 444.467 -140.18 444.631 -140.562 444.631ZM-123.271 470.405C-123.718 470.405 -124.165 470.181 -124.511 469.733C-127.088 466.411 -129.606 462.969 -131.996 459.505C-132.669 458.53 -132.626 457.007 -131.899 456.106C-131.177 455.203 -130.042 455.256 -129.368 456.235C-127.024 459.63 -124.557 463.006 -122.03 466.263C-121.317 467.185 -121.294 468.708 -121.979 469.665C-122.331 470.159 -122.801 470.405 -123.271 470.405ZM-103.514 492.768C-103.884 492.768 -104.26 492.615 -104.58 492.296C-107.457 489.429 -110.286 486.464 -112.988 483.482C-113.751 482.637 -113.862 481.12 -113.236 480.097C-112.607 479.069 -111.477 478.92 -110.712 479.764C-108.057 482.697 -105.277 485.611 -102.447 488.43C-101.653 489.222 -101.485 490.73 -102.074 491.796C-102.427 492.433 -102.966 492.768 -103.514 492.768ZM-81.486 511.026C-81.7728 511.026 -82.0656 510.933 -82.3357 510.737C-86.1823 507.947 -89.3217 505.63 -91.666 503.85C-92.5264 503.197 -92.8299 501.729 -92.3428 500.573C-91.8542 499.413 -90.7602 499.01 -89.9029 499.662C-87.5782 501.426 -84.4616 503.729 -80.6332 506.502C-79.7638 507.133 -79.4375 508.593 -79.9094 509.764C-80.2326 510.569 -80.8487 511.026 -81.486 511.026Z" fill="#99D7FF"/>
<mask id="mask0" mask-type="alpha" maskUnits="userSpaceOnUse" x="-189" y="752" width="686" height="53">
<path fill-rule="evenodd" clip-rule="evenodd" d="M-189 752.199H496.656V804.892H-189V752.199Z" fill="white"/>
</mask>
<g mask="url(#mask0)">
<path fill-rule="evenodd" clip-rule="evenodd" d="M496.656 778.545C496.656 793.097 343.168 804.892 153.827 804.892C-35.5113 804.892 -189 793.097 -189 778.545C-189 763.996 -35.5113 752.199 153.827 752.199C343.168 752.199 496.656 763.996 496.656 778.545Z" fill="#F78500"/>
</g>
<path fill-rule="evenodd" clip-rule="evenodd" d="M543.452 511.945C518.136 511.945 497.542 491.332 497.542 465.997C497.542 440.661 518.136 420.048 543.452 420.048C568.768 420.048 589.363 440.661 589.363 465.997C589.363 491.332 568.768 511.945 543.452 511.945Z" fill="white"/>
<path fill-rule="evenodd" clip-rule="evenodd" d="M583.769 465.997C583.769 488.282 565.72 506.348 543.452 506.348C521.186 506.348 503.134 488.282 503.134 465.997C503.134 443.71 521.186 425.646 543.452 425.646C565.72 425.646 583.769 443.71 583.769 465.997Z" fill="#99D7FF"/>
<path fill-rule="evenodd" clip-rule="evenodd" d="M543.452 457.258C539.816 457.258 536.866 454.308 536.866 450.666C536.866 447.026 539.816 444.075 543.452 444.075C547.091 444.075 550.037 447.026 550.037 450.666C550.037 454.308 547.091 457.258 543.452 457.258ZM543.669 440.116C536.085 440.116 529.941 446.268 529.941 453.857C529.941 461.444 543.669 491.876 543.669 491.876C543.669 491.876 557.395 461.444 557.395 453.857C557.395 446.268 551.25 440.116 543.669 440.116Z" fill="white"/>
<path fill-rule="evenodd" clip-rule="evenodd" d="M-1.37892 334.782C-26.6948 334.782 -47.2886 314.169 -47.2886 288.833C-47.2886 263.499 -26.6948 242.885 -1.37892 242.885C23.9354 242.885 44.5308 263.499 44.5308 288.833C44.5308 314.169 23.9354 334.782 -1.37892 334.782Z" fill="white"/>
<path fill-rule="evenodd" clip-rule="evenodd" d="M38.9382 289.867C38.9382 312.154 20.8875 330.218 -1.37847 330.218C-23.6459 330.218 -41.6966 312.154 -41.6966 289.867C-41.6966 267.583 -23.6459 249.517 -1.37847 249.517C20.8875 249.517 38.9382 267.583 38.9382 289.867Z" fill="#99D7FF"/>
<path fill-rule="evenodd" clip-rule="evenodd" d="M-23.9292 269.655C-22.16 273.518 -12.6931 293.41 -3.45984 297.953C-3.0805 298.14 6.36364 299.414 6.74905 299.598C17.0702 304.508 17.7455 304.33 17.7455 305.225C17.7455 305.972 18.0641 307.084 17.0581 307.383C15.2494 307.922 9.29521 309.076 -7.30942 308.335C-7.65235 308.32 -7.96644 308.121 -8.12425 307.814C-15.7915 292.869 -24.2236 287.655 -24.2236 290.975C-24.2236 308.159 -23.8154 308.576 -25.1871 308.576C-25.8715 308.47 -27.5603 308.983 -27.668 307.694C-28.0261 303.401 -29.6649 284.812 -31.3037 283.172C-33.1139 281.362 -34.7633 270.709 -24.9626 269.105C-24.5331 269.034 -24.1098 269.258 -23.9292 269.655Z" fill="white"/>
<path fill-rule="evenodd" clip-rule="evenodd" d="M18.8418 298.616C8.64805 297.046 9.14424 297.174 8.90145 297.055C-0.333286 292.51 -9.79867 272.618 -11.5694 268.755C-11.75 268.36 -12.1718 268.135 -12.6013 268.205C-16.7209 268.879 -18.8119 271.153 -19.7238 273.697C-16.8969 279.237 -13.4464 285.018 -9.93523 289.422C-7.37087 290.57 -4.80044 293.193 -2.55321 296.089C10 298 4.51624 296.355 17.0452 302.249C18.5686 302.381 19.7689 303.666 19.7689 305.225C19.7249 306.207 19.8903 306.741 19.5352 307.604C25.5228 307.4 28.2859 306.82 29.4194 306.483C30.43 306.181 30.1189 304.992 30.1068 304.325C30.1068 303.289 19.1058 298.656 18.8418 298.616Z" fill="white"/>
<path fill-rule="evenodd" clip-rule="evenodd" d="M583.769 117.377C583.769 139.662 565.72 157.728 543.452 157.728C521.186 157.728 503.134 139.662 503.134 117.377C503.134 95.0909 521.186 77.0264 543.452 77.0264C565.72 77.0264 583.769 95.0909 583.769 117.377Z" fill="#99D7FF"/>
<path fill-rule="evenodd" clip-rule="evenodd" d="M38.9382 433.897C38.9382 456.184 20.8875 474.248 -1.37847 474.248C-23.6459 474.248 -41.6966 456.184 -41.6966 433.897C-41.6966 411.612 -23.6459 393.546 -1.37847 393.546C20.8875 393.546 38.9382 411.612 38.9382 433.897Z" fill="#99D7FF"/>
<path fill-rule="evenodd" clip-rule="evenodd" d="M-1.32718 431.047C-2.50163 429.637 -2.31044 427.54 -0.902313 426.364C0.508846 425.189 2.60283 425.382 3.77727 426.79C4.95172 428.202 4.76205 430.299 3.35089 431.473C1.94125 432.649 -0.152729 432.459 -1.32718 431.047ZM9.62978 430.646L1.04448 420.334C-1.04343 417.827 -4.76707 417.486 -7.27377 419.576L-34.4955 442.277L-18.3521 461.672L8.87261 438.972C11.3778 436.881 11.7177 433.154 9.62978 430.646Z" fill="white"/>
<path fill-rule="evenodd" clip-rule="evenodd" d="M2.50481 427.019C2.6353 426.993 15.5588 424.501 20.381 420.478C24.5553 416.999 24.8527 409.986 17.061 410.815C10.9566 411.466 5.85517 420.698 3.94479 424.638C3.30446 425.957 1.31518 424.988 1.95248 423.67C4.52595 418.364 9.87925 409.351 16.8258 408.611C26.5673 407.574 27.9223 417.076 21.7997 422.18C16.5345 426.571 3.47137 429.092 2.91753 429.197C1.47906 429.468 1.06482 427.294 2.50481 427.019Z" fill="white"/>
<path fill-rule="evenodd" clip-rule="evenodd" d="M543.452 335.816C518.139 335.816 497.542 315.204 497.542 289.867C497.542 264.533 518.139 243.918 543.452 243.918C568.768 243.918 589.363 264.533 589.363 289.867C589.363 315.204 568.768 335.816 543.452 335.816Z" fill="white"/>
<path fill-rule="evenodd" clip-rule="evenodd" d="M583.769 289.867C583.769 312.154 565.72 330.218 543.452 330.218C521.186 330.218 503.134 312.154 503.134 289.867C503.134 267.583 521.186 249.517 543.452 249.517C565.72 249.517 583.769 267.583 583.769 289.867Z" fill="#99D7FF"/>
<path fill-rule="evenodd" clip-rule="evenodd" d="M380.299 217.71H169.197C140.607 217.71 117.432 240.904 117.432 269.519V713.716C117.432 742.331 140.607 765.527 169.197 765.527H380.299C408.886 765.527 432.061 742.331 432.061 713.716V269.519C432.061 240.904 408.886 217.71 380.299 217.71Z" fill="#331579"/>
<path fill-rule="evenodd" clip-rule="evenodd" d="M169.197 751.49C148.386 751.49 131.455 734.852 131.455 714.399V278.231C131.455 257.779 148.386 241.139 169.197 241.139H380.298C401.109 241.139 418.037 257.779 418.037 278.231V714.399C418.037 734.852 401.109 751.49 380.298 751.49H169.197Z" fill="#91AAFE"/>
<path fill-rule="evenodd" clip-rule="evenodd" d="M373.793 237.631H173.378C168.858 237.631 165.195 233.966 165.195 229.443C165.195 224.922 168.858 221.258 173.378 221.258H373.793C378.314 221.258 381.973 224.922 381.973 229.443C381.973 233.966 378.314 237.631 373.793 237.631Z" fill="#190B3D"/>
<path fill-rule="evenodd" clip-rule="evenodd" d="M376.203 229.589C376.203 233.264 373.227 236.243 369.558 236.243C365.886 236.243 362.911 233.264 362.911 229.589C362.911 225.916 365.886 222.938 369.558 222.938C373.227 222.938 376.203 225.916 376.203 229.589Z" fill="#331579"/>
<path fill-rule="evenodd" clip-rule="evenodd" d="M341.291 232.441H223.626C222.053 232.441 220.778 231.164 220.778 229.589C220.778 228.016 222.053 226.739 223.626 226.739H341.291C342.865 226.739 344.139 228.016 344.139 229.589C344.139 231.164 342.865 232.441 341.291 232.441Z" fill="#0E061E"/>
<mask id="mask1" mask-type="alpha" maskUnits="userSpaceOnUse" x="-189" y="0" width="786" height="805">
<path fill-rule="evenodd" clip-rule="evenodd" d="M-189 804.891H596.375V0.713867H-189V804.891Z" fill="white"/>
</mask>
<g mask="url(#mask1)">
<path fill-rule="evenodd" clip-rule="evenodd" d="M153.827 644.069H395.996V287.925H153.827V644.069Z" fill="white"/>
<path fill-rule="evenodd" clip-rule="evenodd" d="M261.609 448.743H381.973V303.128H261.609V448.743Z" fill="#FFF7CF"/>
<path fill-rule="evenodd" clip-rule="evenodd" d="M261.609 615.558H381.973V469.941H261.609V615.558Z" fill="#FFF7CF"/>
<path fill-rule="evenodd" clip-rule="evenodd" d="M171.041 327.691H247.585V313.071H171.041V327.691Z" fill="#FFF7CF"/>
<path fill-rule="evenodd" clip-rule="evenodd" d="M171.041 357.516H247.585V342.896H171.041V357.516Z" fill="#FFF7CF"/>
<path fill-rule="evenodd" clip-rule="evenodd" d="M171.041 387.341H247.585V372.721H171.041V387.341Z" fill="#FFF7CF"/>
<path fill-rule="evenodd" clip-rule="evenodd" d="M171.041 488.511H247.585V473.891H171.041V488.511Z" fill="#FFF7CF"/>
<path fill-rule="evenodd" clip-rule="evenodd" d="M171.041 518.336H247.585V503.716H171.041V518.336Z" fill="#FFF7CF"/>
<path fill-rule="evenodd" clip-rule="evenodd" d="M171.041 548.161H247.585V533.541H171.041V548.161Z" fill="#FFF7CF"/>
<path fill-rule="evenodd" clip-rule="evenodd" d="M256.203 664.17C256.203 666.552 254.274 668.483 251.894 668.483C249.514 668.483 247.584 666.552 247.584 664.17C247.584 661.789 249.514 659.857 251.894 659.857C254.274 659.857 256.203 661.789 256.203 664.17Z" fill="#331579"/>
<path fill-rule="evenodd" clip-rule="evenodd" d="M272.272 664.17C272.272 666.552 270.343 668.483 267.962 668.483C265.583 668.483 263.653 666.552 263.653 664.17C263.653 661.789 265.583 659.857 267.962 659.857C270.343 659.857 272.272 661.789 272.272 664.17Z" fill="#331579"/>
<path fill-rule="evenodd" clip-rule="evenodd" d="M288.34 664.17C288.34 666.552 286.412 668.483 284.031 668.483C281.652 668.483 279.722 666.552 279.722 664.17C279.722 661.789 281.652 659.857 284.031 659.857C286.412 659.857 288.34 661.789 288.34 664.17Z" fill="#331579"/>
<path fill-rule="evenodd" clip-rule="evenodd" d="M371.224 279.45C371.224 281.639 372.996 283.413 375.183 283.413C377.371 283.413 379.143 281.639 379.143 279.45C379.143 277.262 377.371 275.488 375.183 275.488C372.996 275.488 371.224 277.262 371.224 279.45Z" fill="#331579"/>
<path fill-rule="evenodd" clip-rule="evenodd" d="M373.041 279.45C373.041 280.633 374.001 281.595 375.183 281.595C376.365 281.595 377.326 280.633 377.326 279.45C377.326 278.267 376.365 277.308 375.183 277.308C374.001 277.308 373.041 278.267 373.041 279.45Z" fill="#270F5B"/>
<path fill-rule="evenodd" clip-rule="evenodd" d="M354.005 279.45C354.005 281.639 355.777 283.413 357.964 283.413C360.152 283.413 361.924 281.639 361.924 279.45C361.924 277.262 360.152 275.488 357.964 275.488C355.777 275.488 354.005 277.262 354.005 279.45Z" fill="#331579"/>
<path fill-rule="evenodd" clip-rule="evenodd" d="M355.822 279.45C355.822 280.633 356.782 281.595 357.964 281.595C359.147 281.595 360.104 280.633 360.104 279.45C360.104 278.267 359.147 277.308 357.964 277.308C356.782 277.308 355.822 278.267 355.822 279.45Z" fill="#270F5B"/>
<path fill-rule="evenodd" clip-rule="evenodd" d="M355.508 268.962L348.12 256.185C347.763 255.575 347.797 254.861 348.203 254.275C348.608 253.689 349.317 253.341 350.097 253.341H379.441C379.854 253.341 380.189 253.636 380.189 253.999C380.189 254.363 379.854 254.658 379.441 254.658H350.097C349.728 254.658 349.542 254.872 349.476 254.963C349.411 255.056 349.281 255.3 349.45 255.587L356.839 268.364C356.963 268.579 357.209 268.713 357.485 268.713H376.683L381.543 251.633C382.115 249.626 383.971 248.223 386.054 248.223H391.468C391.881 248.223 392.215 248.557 392.215 248.97C392.215 249.383 391.881 249.718 391.468 249.718H386.054C384.634 249.718 383.368 250.673 382.98 252.041L376.618 274.391H355.787C355.371 274.391 355.039 274.056 355.039 273.644C355.039 273.231 355.371 272.895 355.787 272.895H375.492L376.307 270.03H357.485C356.646 270.03 355.887 269.621 355.508 268.962Z" fill="#331579"/>
<path fill-rule="evenodd" clip-rule="evenodd" d="M332.169 265.047C332.169 273.001 325.723 279.45 317.778 279.45C309.829 279.45 303.386 273.001 303.386 265.047C303.386 257.092 309.829 250.644 317.778 250.644C325.723 250.644 332.169 257.092 332.169 265.047Z" fill="#FD5E5A"/>
<path fill-rule="evenodd" clip-rule="evenodd" d="M314.767 260.983H313.225C314.344 256.016 319.726 256.294 321.437 259.093C322.419 260.699 322.22 262.825 320.057 264.098C322.559 265.114 323.644 267.972 322.152 270.539C320.178 273.931 313.781 274.299 312.722 268.549H314.201C315.771 274.466 323.46 270.606 320.843 266.555C319.975 265.21 318.557 264.997 316.913 264.911V263.523C318.626 263.523 320.427 262.695 320.427 260.994C320.427 258.851 317.582 257.864 315.967 259.117C315.495 259.486 315.096 260.107 314.767 260.983Z" fill="white"/>
<path fill-rule="evenodd" clip-rule="evenodd" d="M214.279 686.759H395.996V678.57H214.279V686.759Z" fill="#8D75BB"/>
<path fill-rule="evenodd" clip-rule="evenodd" d="M214.279 705.035H395.996V696.846H214.279V705.035Z" fill="#8D75BB"/>
<path fill-rule="evenodd" clip-rule="evenodd" d="M-1.37891 334.782C-26.6948 334.782 -47.2886 314.169 -47.2886 288.834C-47.2886 263.499 -26.6948 242.885 -1.37891 242.885C23.9354 242.885 44.5308 263.499 44.5308 288.834C44.5308 314.169 23.9354 334.782 -1.37891 334.782ZM-1.37891 235.867C-30.6066 235.867 -54.3004 259.581 -54.3004 288.834C-54.3004 318.086 -30.6066 341.8 -1.37891 341.8C27.8488 341.8 51.5426 318.086 51.5426 288.834C51.5426 259.581 27.8488 235.867 -1.37891 235.867Z" fill="#7FCDFF"/>
<path fill-rule="evenodd" clip-rule="evenodd" d="M543.452 335.816C518.139 335.816 497.542 315.205 497.542 289.867C497.542 264.533 518.139 243.919 543.452 243.919C568.768 243.919 589.363 264.533 589.363 289.867C589.363 315.205 568.768 335.816 543.452 335.816ZM543.452 236.901C514.224 236.901 490.53 260.615 490.53 289.867C490.53 319.12 514.224 342.834 543.452 342.834C572.68 342.834 596.375 319.12 596.375 289.867C596.375 260.615 572.68 236.901 543.452 236.901Z" fill="#7FCDFF"/>
<path fill-rule="evenodd" clip-rule="evenodd" d="M543.452 163.326C518.139 163.326 497.542 142.713 497.542 117.378C497.542 92.0417 518.139 71.4289 543.452 71.4289C568.768 71.4289 589.363 92.0417 589.363 117.378C589.363 142.713 568.768 163.326 543.452 163.326ZM543.452 64.4111C514.224 64.4111 490.53 88.1251 490.53 117.378C490.53 146.63 514.224 170.344 543.452 170.344C572.68 170.344 596.375 146.63 596.375 117.378C596.375 88.1251 572.68 64.4111 543.452 64.4111Z" fill="#7FCDFF"/>
<path fill-rule="evenodd" clip-rule="evenodd" d="M543.452 511.945C518.136 511.945 497.542 491.332 497.542 465.996C497.542 440.66 518.136 420.048 543.452 420.048C568.768 420.048 589.363 440.66 589.363 465.996C589.363 491.332 568.768 511.945 543.452 511.945ZM543.452 413.03C514.224 413.03 490.53 436.744 490.53 465.996C490.53 495.249 514.224 518.963 543.452 518.963C572.68 518.963 596.375 495.249 596.375 465.996C596.375 436.744 572.68 413.03 543.452 413.03Z" fill="#7FCDFF"/>
<path fill-rule="evenodd" clip-rule="evenodd" d="M-1.37891 480.655C-26.6948 480.655 -47.2886 460.044 -47.2886 434.708C-47.2886 409.372 -26.6948 388.759 -1.37891 388.759C23.9354 388.759 44.5308 409.372 44.5308 434.708C44.5308 460.044 23.9354 480.655 -1.37891 480.655ZM-1.37891 381.742C-30.6066 381.742 -54.3004 405.456 -54.3004 434.708C-54.3004 463.961 -30.6066 487.673 -1.37891 487.673C27.8488 487.673 51.5426 463.961 51.5426 434.708C51.5426 405.456 27.8488 381.742 -1.37891 381.742Z" fill="#7FCDFF"/>
<path fill-rule="evenodd" clip-rule="evenodd" d="M178.286 343.958C177.848 343.958 177.403 343.898 176.961 343.777L47.4611 308.331C44.7253 307.583 43.0956 304.697 43.8285 301.889C44.5584 299.081 47.3701 297.411 50.1074 298.161L179.605 333.608C182.344 334.357 183.97 337.241 183.239 340.05C182.627 342.404 180.553 343.958 178.286 343.958Z" fill="#7FCDFF"/>
<path fill-rule="evenodd" clip-rule="evenodd" d="M190.434 454.007H190.416L48.7781 453.534C45.9375 453.525 43.6448 451.162 43.6539 448.253C43.663 445.353 45.9618 443.008 48.7932 443.008H48.8099L190.449 443.48C193.288 443.491 195.586 445.854 195.573 448.761C195.564 451.661 193.264 454.007 190.434 454.007Z" fill="#7FCDFF"/>
<path fill-rule="evenodd" clip-rule="evenodd" d="M3.45316 539.509L-49.3211 499.072L-62.2446 515.745L3.45316 539.509Z" fill="#0A4CFE"/>
<path fill-rule="evenodd" clip-rule="evenodd" d="M-49.3304 548.879L-48.5762 517.589L3.45301 539.509L-49.3304 548.879Z" fill="#99D7FF"/>
<path fill-rule="evenodd" clip-rule="evenodd" d="M-49.3867 473.173L3.45286 539.51L-49.3214 499.073L-49.3867 473.173Z" fill="#99D7FF"/>
<path fill-rule="evenodd" clip-rule="evenodd" d="M529.105 301.975C529.387 301.965 532.326 302.063 532.326 302.242V271.373C540.896 269.982 549.427 268.596 558.05 267.196V268.129C558.05 279.106 557.967 290.084 558.09 301.059C558.143 305.644 555.028 307.657 551.897 308.218C545.911 309.294 542.352 304.101 545.826 300.361C548.324 297.671 551.122 297.22 554.583 297.981V277.019C548.336 278.163 542.109 279.305 535.809 280.459C535.809 280.767 535.762 297.381 535.731 305.4C535.716 309.713 532.818 312.329 528.757 312.525C519.36 312.981 521.023 302.285 529.105 301.975Z" fill="white"/>
<path fill-rule="evenodd" clip-rule="evenodd" d="M173.171 332.814H167.092L142.892 228.491L151.703 228.028L173.171 332.814Z" fill="#1F1A15"/>
<path fill-rule="evenodd" clip-rule="evenodd" d="M209.209 2.09574C209.209 2.09574 188.36 -1.46401 181.066 12.9481C173.775 27.3587 174.464 59.9477 184.389 68.3869C194.314 76.8276 192.66 98.4443 201.355 104.827C210.051 111.21 232.203 114.091 232.203 99.0639C232.203 99.0639 221.407 100.894 218.671 91.5374C218.671 91.5374 234.168 101.445 241.74 90.3528C249.313 79.2635 233.045 75.5929 233.045 75.5929C233.045 75.5929 239.438 78.732 229.901 77.0858C220.367 75.438 226.59 73.0568 226.59 64.9881C226.59 56.9225 232.485 62.622 230.801 47.7999C229.118 32.9762 216.313 1.58546 209.209 2.09574Z" fill="#0E1B29"/>
<path fill-rule="evenodd" clip-rule="evenodd" d="M158.877 320.232L156.853 334.359C156.853 334.359 153.09 345.032 153.09 346.601C153.09 347.639 154.862 356.06 159.571 357.48C161.986 358.209 171.875 347.407 173.192 342.52C174.729 336.811 170.969 318.976 170.969 318.976L158.877 320.232Z" fill="#FC7575"/>
<path fill-rule="evenodd" clip-rule="evenodd" d="M191.356 317.719C191.356 317.719 188.67 338.44 188.67 341.579C188.67 344.717 188.244 349.225 190.013 350.996C191.782 352.767 207.668 347.543 207.668 341.892C207.668 336.241 204.219 317.719 204.219 317.719H191.356Z" fill="#FC7575"/>
<path fill-rule="evenodd" clip-rule="evenodd" d="M225.672 132.463C225.672 118.315 225.087 72.3014 225.087 72.3014C225.087 72.3014 216.727 66.6322 199.998 66.6322C194.616 66.6322 189.669 65.7104 184.314 66.6853C173.011 68.7431 162.739 73.5816 162.739 73.5816C162.739 73.5816 166.207 116.994 160.786 146.634C159.828 151.87 163.919 156.675 169.236 156.675H222.1C225.666 156.675 228.374 153.468 227.79 149.948C226.546 142.435 225.672 136.135 225.672 132.463Z" fill="#FFDA88"/>
<path fill-rule="evenodd" clip-rule="evenodd" d="M166.129 155.758C157.559 162.403 155.728 164.692 153.288 167.687C134.246 191.076 139.73 222.836 148.384 221.643C157.037 220.451 174.923 217.35 188.772 220.237C202.618 223.123 233.774 222.257 236.657 210.998C238.581 203.5 228.336 177.396 222.794 156.675L166.129 155.758Z" fill="#464A7F"/>
<path fill-rule="evenodd" clip-rule="evenodd" d="M195.149 185.011L188.67 195.189C185.485 202.488 187.345 219.965 187.345 219.965L158.878 218.522L157.523 191.677L195.149 185.011Z" fill="#35385F"/>
<path fill-rule="evenodd" clip-rule="evenodd" d="M190.212 194.54C190.212 194.54 206.369 192.807 212.428 198.871C218.485 204.935 206.944 287.511 208.388 292.131C209.831 296.751 216.754 296.174 212.714 300.216C208.675 304.258 207.668 307 209.54 308.877C211.417 310.753 212.136 313.497 210.407 315.23C208.675 316.961 208.1 321.581 208.1 321.581H188.763C188.763 321.581 187.329 309.743 187.329 307.722C187.329 305.7 185.019 299.928 185.019 299.928C185.019 299.928 192.221 296.169 188.763 292.71C185.305 289.247 188.763 284.047 188.763 276.539C188.763 269.034 178.097 195.983 190.212 194.54Z" fill="#6B6E98"/>
<path fill-rule="evenodd" clip-rule="evenodd" d="M141.259 194.31C146.849 188.716 155.885 188.019 164.825 194.31C173.77 200.604 170.596 216.194 170.596 230.344C170.596 244.49 169.672 279.427 171.143 283.757C172.617 288.088 177.231 292.421 175.5 297.04C173.77 301.66 172.902 300.696 175.882 303.681C178.864 306.664 177.231 308.877 177.231 312.054C177.231 315.229 175.788 325.046 175.788 325.046H157.325C157.325 325.046 156.46 307.433 151.845 300.504C147.228 293.575 150.692 278.561 150.692 276.25C150.692 273.942 144.922 271.053 144.922 260.948C144.922 250.843 138.221 197.351 141.259 194.31Z" fill="#6B6E98"/>
<path fill-rule="evenodd" clip-rule="evenodd" d="M163.631 73.5811C163.631 73.5811 160.344 79.3277 155.73 92.3214C151.116 105.315 158.877 156.804 158.877 165.466C158.877 174.129 169.731 185.011 169.731 185.011L178.963 174.618L172.904 137.081L163.631 73.5811Z" fill="#FD5E5A"/>
<path fill-rule="evenodd" clip-rule="evenodd" d="M225.088 72.3013C225.088 72.3013 238.392 75.5831 242.451 94.0622C246.512 112.54 249.813 155.851 248.542 161.049C247.273 166.244 213.811 182.315 213.811 182.315L210.984 176.638C210.984 176.638 236.362 154.695 236.362 151.519C236.362 148.344 225.499 108.596 225.499 108.596L225.088 72.3013Z" fill="#FD5E5A"/>
<path fill-rule="evenodd" clip-rule="evenodd" d="M122.706 138.238L130.207 191.515L223.677 188.189L221.827 134.777L122.706 138.238Z" fill="#241145"/>
<path fill-rule="evenodd" clip-rule="evenodd" d="M172.676 343.893C163.963 349.414 157.484 348.834 153.096 346.728C153.211 348.19 155.015 356.107 159.571 357.48C161.781 358.147 170.241 349.17 172.676 343.893Z" fill="#ED1E79"/>
<path fill-rule="evenodd" clip-rule="evenodd" d="M207.668 341.892C207.668 340.636 207.496 338.745 207.232 336.562C202.205 341.087 195.491 344.065 188.999 337.424C188.797 339.379 188.67 340.896 188.67 341.579C188.67 344.717 188.244 349.226 190.013 350.996C191.782 352.767 207.668 347.543 207.668 341.892Z" fill="#ED1E79"/>
<path fill-rule="evenodd" clip-rule="evenodd" d="M209.472 45.2263C209.472 45.2263 208.746 46.8224 207.644 49.3221C203.829 57.9846 206.257 71.2699 206.45 73.5813C206.835 78.2208 204.357 87.7139 204.357 87.7139C204.357 87.7139 186.229 75.021 185.204 66.6865L195.033 36.5532L209.472 45.2263Z" fill="#FC7575"/>
<path fill-rule="evenodd" clip-rule="evenodd" d="M195.034 36.5532L209.473 45.2263C209.473 45.2263 208.743 46.8255 207.645 49.3221C202.564 47.9189 194.806 45.3554 193.122 42.4137L195.034 36.5532Z" fill="#FD5E5A"/>
<path fill-rule="evenodd" clip-rule="evenodd" d="M198.525 11.9775L220.331 24.022C220.331 24.022 224.857 24.1237 224.857 19.0803C224.857 14.0353 219.302 9.09657 213.645 6.21263C207.987 3.33173 200.893 2.08643 200.893 2.08643L198.525 11.9775Z" fill="#0E1B29"/>
<path fill-rule="evenodd" clip-rule="evenodd" d="M206.444 6.521C206.444 6.521 214.879 7.96221 217.143 11.9776C219.403 15.9914 220.02 25.565 222.283 27.8294C224.546 30.0937 226.518 30.5918 226.518 30.5918C226.518 30.5918 227.118 31.6382 224.857 32.7711C222.593 33.9025 224.305 35.1387 225.713 35.1387C227.118 35.1387 225.936 37.813 224.857 38.1244C224.857 38.1244 226.244 38.5344 225.986 39.8739C225.731 41.2118 225.062 41.4685 225.062 41.4685C225.062 41.4685 224.993 43.218 225.713 44.8657C226.433 46.5135 224.684 51.402 213.645 49.241C213.645 49.241 197.236 45.3805 196.26 40.7486C195.285 36.1167 187.986 19.2778 194.207 13.0543C200.427 6.82777 206.444 6.521 206.444 6.521Z" fill="#FC7575"/>
<path fill-rule="evenodd" clip-rule="evenodd" d="M198.833 1.83187C198.833 1.83187 201.405 -0.847053 211.69 2.087C221.976 5.02106 224.433 16.6646 224.433 16.6646C224.433 16.6646 217.809 12.1831 213.646 12.1831C209.479 12.1831 200.055 10.5991 198.525 9.06982C196.995 7.539 198.833 1.83187 198.833 1.83187Z" fill="#1B3753"/>
<path fill-rule="evenodd" clip-rule="evenodd" d="M200.181 1.14062C201.618 1.14062 210.713 11.2564 208.245 18.9773C205.777 26.6967 199.914 23.2493 196.21 25.3086C192.508 27.3679 196.927 36.8884 196.26 40.7489C195.594 44.6093 185.203 66.6861 185.203 66.6861C185.203 66.6861 176.463 20.0115 181.762 11.3643C187.062 2.717 200.181 1.14062 200.181 1.14062Z" fill="#1B3753"/>
<path fill-rule="evenodd" clip-rule="evenodd" d="M211.114 33.1052C211.114 34.2579 213.046 35.1918 215.43 35.1918C217.815 35.1918 219.747 34.2579 219.747 33.1052C219.747 31.9525 217.815 31.0186 215.43 31.0186C213.046 31.0186 211.114 31.9525 211.114 33.1052Z" fill="#FD5E5A"/>
<path fill-rule="evenodd" clip-rule="evenodd" d="M221.49 24.0215C221.49 24.0215 220.073 26.869 214.301 26.7384L221.49 24.0215Z" fill="#1B3753"/>
<path fill-rule="evenodd" clip-rule="evenodd" d="M219.747 22.6244C219.747 22.6244 217.605 21.3457 215.942 21.3457C214.279 21.3457 212.745 22.017 212.745 22.6244C212.745 22.6244 214.567 21.7618 216.007 21.9851C217.444 22.2098 218.118 23.3169 218.693 23.3169C219.268 23.3169 219.747 22.6244 219.747 22.6244Z" fill="#1B3753"/>
<path fill-rule="evenodd" clip-rule="evenodd" d="M195.789 33.028C195.789 33.028 203.786 51.5769 187.726 72.3006C171.663 93.0258 149.868 84.6337 146.934 76.2461C144.003 67.857 154.266 64.9882 154.266 64.9882C154.266 64.9882 152.307 74.4814 157.523 74.0304C162.739 73.5808 164.538 72.3507 162.442 62.1332C160.348 51.9171 167.926 56.0129 172.093 49.3217C176.262 42.632 172.093 37.5263 172.093 29.6216C172.093 21.717 181.763 11.3643 181.763 11.3643L195.789 33.028Z" fill="#1B3753"/>
<path fill-rule="evenodd" clip-rule="evenodd" d="M197.336 26.2342C197.336 26.2342 194.361 19.7495 192.971 21.1391C191.584 22.5286 190.89 32.1008 195.789 33.0287C200.685 33.955 197.336 26.2342 197.336 26.2342Z" fill="#FC7575"/>
<path fill-rule="evenodd" clip-rule="evenodd" d="M197.123 27.0244C197.123 27.0244 195.587 23.4905 194.754 24.3227C193.926 25.1549 194.82 30.7239 195.941 30.7239C197.058 30.7239 197.396 28.8058 197.123 27.0244Z" fill="#FD5E5A"/>
<path fill-rule="evenodd" clip-rule="evenodd" d="M219.964 26.9516C219.964 27.6153 219.662 28.1529 219.285 28.1529C218.909 28.1529 218.604 27.6153 218.604 26.9516C218.604 26.2895 218.909 25.7534 219.285 25.7534C219.662 25.7534 219.964 26.2895 219.964 26.9516Z" fill="#1B3753"/>
<path fill-rule="evenodd" clip-rule="evenodd" d="M470.399 534.928C470.399 534.928 451.668 540.874 448.91 545.323C446.151 549.772 436.264 579.155 433.733 581.686C431.205 584.218 413.335 585.709 409.2 586.646L418.68 603.104C418.68 603.104 437.953 603.502 443.356 603.104C448.755 602.706 470.399 534.928 470.399 534.928Z" fill="#50284C"/>
<path fill-rule="evenodd" clip-rule="evenodd" d="M501.926 538.834C501.926 538.834 531.627 567.566 527.021 600.018C527.021 600.018 520.354 588.597 507.705 590.856C507.705 590.856 501.786 578.388 500.029 570.564C498.272 562.737 501.926 538.834 501.926 538.834Z" fill="#885E84"/>
<path fill-rule="evenodd" clip-rule="evenodd" d="M478.797 799.186H484.876L509.077 694.865L500.265 694.4L478.797 799.186Z" fill="#1F1A15"/>
<path fill-rule="evenodd" clip-rule="evenodd" d="M577.421 801.068H571.342L547.142 696.745L555.953 696.282L577.421 801.068Z" fill="#1F1A15"/>
<path fill-rule="evenodd" clip-rule="evenodd" d="M414.751 789.809H408.672L384.471 685.486L393.283 685.022L414.751 789.809Z" fill="#1F1A15"/>
<path fill-rule="evenodd" clip-rule="evenodd" d="M334.007 796.893H340.085L364.286 692.569L355.478 692.105L334.007 796.893Z" fill="#1F1A15"/>
<path fill-rule="evenodd" clip-rule="evenodd" d="M338.511 614.075V690.807C338.511 696.866 344.285 701.778 351.406 701.778H549.389C556.51 701.778 562.283 696.866 562.283 690.807V614.075C562.283 608.015 556.51 603.103 549.389 603.103H351.406C344.285 603.103 338.511 608.015 338.511 614.075Z" fill="#450000"/>
</g>
<mask id="mask2" mask-type="alpha" maskUnits="userSpaceOnUse" x="338" y="602" width="225" height="99">
<path fill-rule="evenodd" clip-rule="evenodd" d="M481.857 602.194C474.738 602.194 468.962 607.1 468.962 613.154C468.962 613.82 468.962 613.983 468.962 613.929C468.961 616.542 468.955 626.843 468.936 661.752C468.513 667.478 462.913 672.011 456.068 672.011H377.663C370.546 672.011 364.77 667.105 364.77 661.054V613.154C364.77 607.1 358.998 602.194 351.878 602.194C344.756 602.194 338.982 607.1 338.982 613.154V689.794C338.982 695.845 344.756 700.75 351.878 700.75H549.877C556.999 700.75 562.773 695.845 562.773 689.794V613.154C562.773 607.1 556.999 602.194 549.877 602.194H481.857ZM468.962 613.539C468.962 613.712 468.962 613.886 468.962 613.929C468.962 613.337 468.962 613.138 468.962 613.138C468.962 613.138 468.962 613.339 468.962 613.539Z" fill="white"/>
</mask>
<g mask="url(#mask2)">
<path fill-rule="evenodd" clip-rule="evenodd" d="M481.857 602.194C474.738 602.194 468.962 607.1 468.962 613.154C468.962 613.82 468.962 613.983 468.962 613.929C468.961 616.542 468.955 626.843 468.936 661.752C468.513 667.478 462.913 672.011 456.068 672.011H377.663C370.546 672.011 364.77 667.105 364.77 661.054V613.154C364.77 607.1 358.998 602.194 351.878 602.194C344.756 602.194 338.982 607.1 338.982 613.154V689.794C338.982 695.845 344.756 700.75 351.878 700.75H549.877C556.999 700.75 562.773 695.845 562.773 689.794V613.154C562.773 607.1 556.999 602.194 549.877 602.194H481.857ZM468.962 613.539C468.962 613.712 468.962 613.886 468.962 613.929C468.962 613.337 468.962 613.138 468.962 613.138C468.962 613.138 468.962 613.339 468.962 613.539Z" fill="url(#paint0_linear)"/>
</g>
<path fill-rule="evenodd" clip-rule="evenodd" d="M315.705 766.129C315.705 766.129 313.795 767.555 313.404 770.913C313.12 773.352 314.316 777.192 314.316 780.394C314.316 788.002 312.564 790.344 312.564 790.344C312.564 790.344 267.571 790.051 267.571 788.002C267.571 785.955 284.222 774.248 290.944 774.248C297.665 774.248 302.922 758.734 302.922 758.734L314.316 763.71L315.705 766.129Z" fill="#2F3453"/>
<path fill-rule="evenodd" clip-rule="evenodd" d="M316.498 794.668C316.498 794.668 305.855 794.486 298.404 794.36C290.955 794.234 279.056 794.929 275.329 794.865C271.604 794.802 258.268 785.768 259.204 782.909C260.139 780.049 272.368 780.976 278.805 777.852C285.244 774.725 297.037 764.592 298.692 766.328C300.351 768.062 311.311 768.721 313.404 770.913C315.498 773.106 318.393 792.812 316.498 794.668Z" fill="#3A758D"/>
<path fill-rule="evenodd" clip-rule="evenodd" d="M313.916 789.699C284.281 784.498 292.604 793.707 263.683 785.08C270.697 788.07 281.11 791.101 288.643 789.748C292.74 789.01 297.005 789.081 301.221 789.124C305.445 789.197 309.676 789.44 313.916 789.699Z" fill="#ACFCDD"/>
<path fill-rule="evenodd" clip-rule="evenodd" d="M294.058 781.369C293.641 781.851 292.918 781.898 292.445 781.478C290.787 780.005 287.118 777.059 283.565 775.038C284.264 774.579 284.975 774.102 285.69 773.613C289.933 776.187 293.701 779.509 293.952 779.735C294.425 780.159 294.472 780.891 294.058 781.369Z" fill="#ACFCDD"/>
<path fill-rule="evenodd" clip-rule="evenodd" d="M295.826 776.647C295.273 776.952 294.577 776.741 294.278 776.179C294.251 776.129 292.723 773.309 290.097 770.572C290.76 770.115 291.408 769.674 292.033 769.258C294.665 772.085 296.175 774.864 296.288 775.078C296.593 775.638 296.382 776.344 295.826 776.647Z" fill="#ACFCDD"/>
<path fill-rule="evenodd" clip-rule="evenodd" d="M439.943 632.88L421.833 630.537C421.833 630.537 357.198 596.349 346.397 608.878C337.301 619.43 338.674 622.853 350.068 634.268C361.463 645.683 381.891 656.939 381.891 656.939L397.29 662.147L366.266 633.269L411.312 652.781H463.121L439.943 632.88Z" fill="#202857"/>
<path fill-rule="evenodd" clip-rule="evenodd" d="M476.758 652.781C476.758 652.781 477.107 663.432 470.914 669.639C464.72 675.846 388.526 669.393 388.526 669.393L323.08 772.198L297.955 763.377C297.955 763.377 347.752 665.83 365.737 652.781C383.718 639.735 444.201 638.614 444.201 638.614L476.758 652.781Z" fill="#3F50AE"/>
<path fill-rule="evenodd" clip-rule="evenodd" d="M317.946 766.503L316.617 765.756C316.617 765.756 317.567 764.061 319.241 761.103L320.567 761.854C318.897 764.81 317.946 766.501 317.946 766.503Z" fill="#9CABFC"/>
<path fill-rule="evenodd" clip-rule="evenodd" d="M394.086 662.926C388.547 662.645 385.133 662.621 383.487 662.847L383.279 661.334C385.062 661.093 388.461 661.109 394.164 661.401L394.086 662.926ZM415.523 664.361L413.38 664.208C410.427 663.993 407.546 663.784 404.801 663.594L404.909 662.072C407.653 662.262 410.537 662.469 413.489 662.684L415.632 662.838L415.523 664.361ZM436.986 665.779C433.522 665.59 429.9 665.362 426.247 665.114L426.35 663.591C429.997 663.839 433.61 664.065 437.069 664.255L436.986 665.779ZM452.207 666.288C450.81 666.288 449.318 666.267 447.751 666.229L447.787 664.701C452.118 664.807 455.84 664.768 458.445 664.56L458.567 666.082C456.858 666.22 454.718 666.288 452.207 666.288ZM370.323 678.79L369.055 677.939C371.4 674.446 373.491 671.468 375.274 669.092L376.494 670.007C374.726 672.366 372.65 675.32 370.323 678.79ZM358.723 696.908L357.425 696.101C359.382 692.944 361.304 689.882 363.158 686.974L364.442 687.799C362.59 690.699 360.674 693.755 358.723 696.908ZM347.558 715.306L346.248 714.523C348.09 711.432 349.947 708.342 351.798 705.289L353.1 706.082C351.252 709.131 349.398 712.22 347.558 715.306ZM336.635 733.857L335.317 733.087C337.074 730.072 338.894 726.958 340.759 723.791L342.07 724.567C340.209 727.732 338.388 730.845 336.635 733.857ZM325.875 752.514L324.552 751.756C326.162 748.937 327.969 745.791 329.917 742.409L331.237 743.171C329.289 746.551 327.485 749.698 325.875 752.514Z" fill="#9CABFC"/>
<path fill-rule="evenodd" clip-rule="evenodd" d="M468.672 662.506L467.97 661.147C471.484 659.323 472.527 658.603 472.536 658.597L473.416 659.846C473.372 659.876 472.317 660.614 468.672 662.506Z" fill="#9CABFC"/>
<path fill-rule="evenodd" clip-rule="evenodd" d="M392.032 649.286C392.032 649.286 399.146 660.741 399.146 662.014C399.146 663.287 401.305 668.759 399.146 670.921C396.986 673.085 351.38 658.703 351.38 658.703C351.38 658.703 365.606 655.141 371.706 655.141C377.801 655.141 381.74 650.178 379.581 648.013C377.422 645.851 392.032 649.286 392.032 649.286Z" fill="#095270"/>
<path fill-rule="evenodd" clip-rule="evenodd" d="M398.086 675.261C398.086 675.261 394.72 676.775 380.867 670.917C367.016 665.058 343.596 665.224 343.489 659.966C343.382 654.705 360.49 653.481 370.551 655.913C380.615 658.341 393.091 662.133 397.915 666.774C402.737 671.415 398.086 675.261 398.086 675.261Z" fill="#653870"/>
<path fill-rule="evenodd" clip-rule="evenodd" d="M343.489 659.966C342.616 653.504 367.729 648.96 392.21 661.732C402.327 667.193 401.939 672.463 398.087 675.26C407.966 664.021 367.608 656.274 358.679 655.903C354.574 655.811 343.844 655.896 343.489 659.966Z" fill="#CDFDEB"/>
<path fill-rule="evenodd" clip-rule="evenodd" d="M482.017 528.098C482.017 528.098 500.581 534.221 503.637 539.463C516.172 560.989 506.902 654.144 476.758 665.074C461.514 670.604 421.832 630.537 421.832 630.537C421.832 630.537 450.931 606.959 452.8 570.83C454.581 536.373 482.017 528.098 482.017 528.098Z" fill="#6A3565"/>
<path fill-rule="evenodd" clip-rule="evenodd" d="M421.832 630.537C437.408 618.725 450.342 599.775 453.888 578.1C454.828 570.481 453.726 540.712 482.016 528.098C472.066 530.964 463.172 537.991 457.826 547.218C445.413 568.296 458.205 583.461 431.896 618.849C428.862 622.983 425.486 626.877 421.832 630.537Z" fill="#EDEEFF"/>
<path fill-rule="evenodd" clip-rule="evenodd" d="M351.38 608.795C351.38 608.795 379.105 626.205 387.359 637.85C395.612 649.496 399.232 655.985 399.232 655.985L367.958 651.353C367.958 651.353 342.971 635.521 340.134 625.824C337.301 616.126 345.987 605.272 351.38 608.795Z" fill="#546BE8"/>
<path fill-rule="evenodd" clip-rule="evenodd" d="M352.09 613.114C349.841 611.334 348.472 610.306 348.469 610.304L349.381 609.082C349.381 609.082 350.761 610.117 353.035 611.915L352.09 613.114ZM359.185 618.892C357.934 617.844 356.753 616.869 355.659 615.979L356.62 614.793C357.719 615.688 358.909 616.669 360.164 617.723L359.185 618.892ZM366.11 624.87C364.944 623.829 363.792 622.822 362.672 621.857L363.667 620.698C364.792 621.671 365.95 622.684 367.125 623.731L366.11 624.87ZM372.825 631.073C371.72 630.012 370.607 628.966 369.496 627.942L370.53 626.82C371.646 627.849 372.769 628.902 373.882 629.974L372.825 631.073ZM379.247 637.563C378.219 636.462 377.159 635.362 376.081 634.278L377.162 633.2C378.252 634.298 379.321 635.406 380.359 636.518L379.247 637.563ZM385.195 644.451C384.325 643.335 383.347 642.157 382.3 640.945L383.449 639.944C384.518 641.174 385.506 642.374 386.397 643.508L385.195 644.451ZM390.199 651.954C389.566 650.745 388.78 649.449 387.874 648.105L389.135 647.249C390.078 648.64 390.889 649.982 391.549 651.243L390.199 651.954Z" fill="#98A6F1"/>
<path fill-rule="evenodd" clip-rule="evenodd" d="M480.661 497.611L473.255 530.293C472.854 532.073 474.078 539.668 475.274 541.049C478.052 544.248 484.373 547.046 490.147 544.162C495.18 541.65 495.53 500.42 495.53 500.42C495.53 500.42 487.106 497.587 480.661 497.611Z" fill="#FC7575"/>
<path fill-rule="evenodd" clip-rule="evenodd" d="M495.53 500.419C495.53 500.419 495.536 501.78 495.512 504.023C494.582 507.03 492.995 511.637 491.127 514.904C488.631 519.269 480.657 525.725 474.469 524.939L480.66 497.611C487.106 497.588 495.53 500.419 495.53 500.419Z" fill="#FD5E5A"/>
<path fill-rule="evenodd" clip-rule="evenodd" d="M503.488 460.778C505.579 465.571 506.754 471.875 501.991 473.951C507.222 472.424 506.858 465.284 505.283 460.076L503.488 460.778Z" fill="#132759"/>
<path fill-rule="evenodd" clip-rule="evenodd" d="M480.391 473.194C480.391 473.194 473.398 472.645 470.892 481.136C468.391 489.625 467.651 514.42 474.014 518.023C480.376 521.623 490.099 515.007 492.74 510.604C495.491 506.024 497.392 498.324 497.392 498.324C497.392 498.324 504.078 467.182 480.391 473.194Z" fill="#FC7575"/>
<path fill-rule="evenodd" clip-rule="evenodd" d="M501.744 511.643C501.744 511.643 499.75 513.229 498.455 510.369C498.455 510.369 495.447 503.772 499.915 500.133C504.385 496.493 511.021 491.61 511.688 483.446C512.353 475.28 502.775 473.389 502.775 473.389C502.775 473.389 503.711 460.859 489.493 462.198C489.493 462.198 487.501 459.042 479.615 457.788C471.73 456.535 472.722 461.202 468.367 459.559C464.011 457.919 464.101 454.259 466.272 453.273C466.272 453.273 457.817 455.24 455.555 461.258C453.297 467.277 465.126 470.018 465.126 470.018C465.126 470.018 455.272 469.325 461.75 474.894C468.232 480.462 471.799 481.119 477.194 477.657C482.585 474.194 485.197 473.632 487.375 475.14C489.552 476.647 487.63 481.763 491.086 483.066C494.538 484.366 494.923 494.301 494.923 494.301C494.923 494.301 497.874 493.94 496.383 500.554C494.891 507.171 493.167 511.072 497.072 512.544C500.974 514.015 501.744 511.643 501.744 511.643Z" fill="#132759"/>
<path fill-rule="evenodd" clip-rule="evenodd" d="M498.399 487.024C500.558 487.2 505.301 489.796 499.722 495.596C494.144 501.394 491.9 493.673 492.966 490.834C494.031 487.996 496.746 486.889 498.399 487.024Z" fill="#FC7575"/>
<path fill-rule="evenodd" clip-rule="evenodd" d="M476.391 492.468C476.065 496.564 475.254 500.443 475.325 504.352C476.243 504.549 477.155 504.78 478.062 505.072C476.385 505.274 475.053 505.252 474.434 505.271C474.434 505.064 473.887 499.641 476.391 492.468Z" fill="#132759"/>
<path fill-rule="evenodd" clip-rule="evenodd" d="M478.244 491.63C478.475 491.717 478.739 491.613 478.848 491.389C478.881 491.326 479.66 489.799 481.877 489.382C483.793 489.02 487.918 491.018 489.35 491.815C489.596 491.955 489.875 491.861 490.005 491.63C490.135 491.398 490.052 491.103 489.819 490.974C489.596 490.85 484.346 487.932 481.699 488.433C478.987 488.944 478.02 490.886 477.981 490.968C477.865 491.208 477.966 491.495 478.207 491.612C478.22 491.618 478.232 491.626 478.244 491.63Z" fill="#132759"/>
<path fill-rule="evenodd" clip-rule="evenodd" d="M482.591 508.008C482.591 508.008 475.287 508.861 471.566 507.138C471.566 507.138 471.631 510.382 473.771 511.704C475.912 513.027 480.873 512.579 482.591 508.008Z" fill="white"/>
<path fill-rule="evenodd" clip-rule="evenodd" d="M500.282 491.77C500.282 491.77 498.928 496.408 496.637 495.89C494.348 495.372 494.511 491.741 496.418 490.314C498.328 488.887 500.773 490.467 500.282 491.77Z" fill="#FD5E5A"/>
<path fill-rule="evenodd" clip-rule="evenodd" d="M479.464 493.837C479.39 494.776 479.933 495.582 480.67 495.641C481.409 495.702 482.07 494.988 482.145 494.05C482.217 493.111 481.679 492.303 480.939 492.244C480.198 492.186 479.539 492.899 479.464 493.837Z" fill="#132759"/>
<path fill-rule="evenodd" clip-rule="evenodd" d="M469.942 492.596C469.868 493.535 470.408 494.342 471.148 494.402C471.887 494.461 472.548 493.749 472.623 492.81C472.695 491.872 472.157 491.062 471.417 491.004C470.676 490.945 470.017 491.659 469.942 492.596Z" fill="#132759"/>
<path fill-rule="evenodd" clip-rule="evenodd" d="M473.928 490.569C474.064 490.798 473.987 491.096 473.756 491.229C473.626 491.304 473.474 491.313 473.344 491.264C473.244 491.226 473.155 491.156 473.098 491.056C472.72 490.409 471.499 488.637 470.43 488.233C470.17 488.134 469.901 488.054 469.635 487.987C469.672 487.659 469.712 487.337 469.753 487.021C470.088 487.103 470.433 487.203 470.772 487.331C472.377 487.937 473.866 490.462 473.928 490.569Z" fill="#132759"/>
<path fill-rule="evenodd" clip-rule="evenodd" d="M469.036 661.951C469.055 626.94 469.061 616.652 469.064 614.057V614.059V614.057V614.024V613.866V613.838V613.846V613.828V613.819V613.641V613.636V613.639V613.579V613.422V613.416V613.351V613.295C469.064 607.235 474.83 602.322 481.943 602.322H549.893C557.008 602.322 562.776 607.235 562.776 613.295V690.027C562.776 696.087 557.008 700.998 549.893 700.998H456.862L456.181 672.224C463.02 672.224 468.613 667.684 469.036 661.951Z" fill="#FABF44"/>
<path fill-rule="evenodd" clip-rule="evenodd" d="M511.032 700.998H549.894C557.008 700.998 562.776 696.087 562.776 690.027V613.295C562.776 607.235 557.008 602.322 549.894 602.322H511.032C503.921 602.322 498.153 607.235 498.153 613.295V690.027C498.153 696.087 503.921 700.998 511.032 700.998Z" fill="#890D00"/>
<path fill-rule="evenodd" clip-rule="evenodd" d="M508.113 589.223L475.089 597.907C475.089 597.907 465.378 604.934 461.013 606.329C456.646 607.725 451.307 612.551 452.356 614.033C453.4 615.514 458.886 610.483 459.778 610.636C460.669 610.788 456.553 616.744 455.885 620.65C455.218 624.558 453.881 628.348 456.112 628.043C458.342 627.736 459.961 618.939 459.961 618.939C459.961 618.939 463.393 612.289 463.946 613.075C464.5 613.859 461.656 618.425 461.656 618.425C461.656 618.425 460.98 623.361 460.684 625.097C460.461 626.394 461.65 630.279 462.662 628.851C463.257 628.011 462.979 624.802 463.669 622.971C465.086 619.214 467.403 616.236 467.403 616.236C467.403 616.236 464.921 627.487 466.481 627.755C468.041 628.022 469.655 618.702 469.655 618.702C469.655 618.702 473.467 610.94 475.13 610.249C476.791 609.555 481.365 606.6 484.9 605.369C488.436 604.136 503.053 608.194 509.576 608.281C516.099 608.366 526.68 604.315 527.56 599.182C527.826 597.612 526.852 595.879 525.369 594.228C521.055 589.433 514.345 587.584 508.113 589.223Z" fill="#FC7575"/>
<path fill-rule="evenodd" clip-rule="evenodd" d="M409.838 585.865L372.532 595.126C372.532 595.126 362.823 602.154 358.455 603.549C354.089 604.943 348.753 609.771 349.799 611.251C350.847 612.734 356.333 607.701 357.224 607.854C358.116 608.007 354 613.964 353.331 617.87C352.661 621.776 351.326 625.568 353.559 625.261C355.789 624.954 357.408 616.157 357.408 616.157C357.408 616.157 360.84 609.509 361.393 610.293C361.946 611.078 359.101 615.643 359.101 615.643C359.101 615.643 358.426 620.579 358.131 622.315C357.908 623.61 359.095 627.498 360.108 626.071C360.703 625.231 360.421 622.022 361.114 620.19C362.533 616.433 364.848 613.455 364.848 613.455C364.848 613.455 362.368 624.705 363.928 624.974C365.488 625.243 367.102 615.921 367.102 615.921C367.102 615.921 370.912 608.159 372.573 607.467C374.238 606.774 378.808 603.817 382.346 602.587C385.882 601.356 399.795 603.494 406.318 603.58C412.838 603.667 420.005 602.323 420.005 602.323C420.005 602.323 416.07 584.227 409.838 585.865Z" fill="#FD5E5A"/>
<path fill-rule="evenodd" clip-rule="evenodd" d="M519.196 483.687C519.42 483.687 519.64 483.557 519.734 483.336C532.377 454.763 498.843 429.632 498.503 429.382C498.242 429.187 497.869 429.244 497.677 429.509C497.484 429.77 497.54 430.142 497.804 430.335C498.135 430.579 530.914 455.154 518.657 482.855C518.524 483.154 518.657 483.505 518.956 483.637C519.033 483.67 519.115 483.687 519.196 483.687Z" fill="#411AC0"/>
<path fill-rule="evenodd" clip-rule="evenodd" d="M452.355 645.173L394.24 640.172L347.163 643.208L392.33 646.039L452.355 645.173Z" fill="#838BC5"/>
<path fill-rule="evenodd" clip-rule="evenodd" d="M452.355 648.871H394.023V643.208L452.355 645.173V648.871Z" fill="#0F1D5B"/>
<mask id="mask3" mask-type="alpha" maskUnits="userSpaceOnUse" x="349" y="573" width="45" height="75">
<path fill-rule="evenodd" clip-rule="evenodd" d="M349.294 573.579L393.702 647.667V642.075L352.368 573.579H349.294Z" fill="white"/>
</mask>
<g mask="url(#mask3)">
<path fill-rule="evenodd" clip-rule="evenodd" d="M349.294 573.579L393.702 647.667V642.075L352.368 573.579H349.294Z" fill="url(#paint1_linear)"/>
</g>
<path fill-rule="evenodd" clip-rule="evenodd" d="M308.228 589.513L348.86 574.619L393.765 649.663L343.949 648.269L308.228 589.513Z" fill="#0F1D5B"/>
<path fill-rule="evenodd" clip-rule="evenodd" d="M294.891 505.066H366.536C369.793 505.066 372.429 509.319 372.429 514.565V536.666C372.429 541.912 369.793 546.164 366.536 546.164H363.293L372.429 576.252L343.847 546.164H294.891C291.638 546.164 288.999 541.912 288.999 536.666V514.565C288.999 509.319 291.638 505.066 294.891 505.066Z" fill="#ED4790"/>
<path fill-rule="evenodd" clip-rule="evenodd" d="M548.771 100.485C532.768 100.485 519.794 106.083 519.794 112.988C519.794 116.438 523.036 119.564 528.28 121.826L525.591 133.82L535.456 124.091C539.443 124.983 543.972 125.486 548.771 125.486C564.777 125.486 577.751 119.889 577.751 112.988C577.751 106.083 564.777 100.485 548.771 100.485Z" fill="white"/>
<path fill-rule="evenodd" clip-rule="evenodd" d="M560.144 116.173C560.144 117.491 561.21 118.559 562.525 118.559C563.843 118.559 564.911 117.491 564.911 116.173C564.911 114.854 563.843 113.786 562.525 113.786C561.21 113.786 560.144 114.854 560.144 116.173Z" fill="#99D7FF"/>
<path fill-rule="evenodd" clip-rule="evenodd" d="M553.846 116.173C553.846 117.491 554.912 118.559 556.227 118.559C557.543 118.559 558.613 117.491 558.613 116.173C558.613 114.854 557.543 113.786 556.227 113.786C554.912 113.786 553.846 114.854 553.846 116.173Z" fill="#99D7FF"/>
<path fill-rule="evenodd" clip-rule="evenodd" d="M547.548 116.173C547.548 117.491 548.614 118.559 549.929 118.559C551.245 118.559 552.312 117.491 552.312 116.173C552.312 114.854 551.245 113.786 549.929 113.786C548.614 113.786 547.548 114.854 547.548 116.173Z" fill="#99D7FF"/>
<defs>
<linearGradient id="paint0_linear" x1="285.485" y1="683.016" x2="435.127" y2="821.798" gradientUnits="userSpaceOnUse">
<stop stop-color="#F47938"/>
<stop offset="1" stop-color="#FFFB4D"/>
</linearGradient>
<linearGradient id="paint1_linear" x1="393.703" y1="573.579" x2="349.294" y2="573.579" gradientUnits="userSpaceOnUse">
<stop stop-color="#A8A5DD"/>
<stop offset="1" stop-color="#BCB8F2"/>
</linearGradient>
</defs>
</svg>
