<svg width="679" height="610" viewBox="0 0 679 610" fill="none" xmlns="http://www.w3.org/2000/svg">
<mask id="mask0" mask-type="alpha" maskUnits="userSpaceOnUse" x="74" y="142" width="690" height="468">
<path fill-rule="evenodd" clip-rule="evenodd" d="M74.5554 142.061H763.171V609.355H74.5554V142.061Z" fill="white"/>
</mask>
<g mask="url(#mask0)">
<path fill-rule="evenodd" clip-rule="evenodd" d="M440.67 142.061C440.67 142.061 16.3423 149.642 81.3236 344.939C146.307 540.235 618.427 625.025 682.915 606.987C747.399 588.945 910.124 167.839 440.67 142.061Z" fill="#FFD6D6"/>
</g>
<path fill-rule="evenodd" clip-rule="evenodd" d="M779.963 351.46H411.426C408.264 351.46 405.701 348.898 405.701 345.738V97.9534C405.701 94.7947 408.264 92.2332 411.426 92.2332H779.963C783.123 92.2332 785.688 94.7947 785.688 97.9534V345.738C785.688 348.898 783.123 351.46 779.963 351.46Z" fill="#7796FE"/>
<path fill-rule="evenodd" clip-rule="evenodd" d="M779.963 117.068H411.426C408.264 117.068 405.701 114.506 405.701 111.346V97.954C405.701 94.7953 408.264 92.2322 411.426 92.2322H779.963C783.123 92.2322 785.688 94.7953 785.688 97.954V111.346C785.688 114.506 783.123 117.068 779.963 117.068Z" fill="#004D54"/>
<mask id="mask1" mask-type="alpha" maskUnits="userSpaceOnUse" x="0" y="0" width="906" height="610">
<path fill-rule="evenodd" clip-rule="evenodd" d="M0 609.355H905.433V0.620483H0V609.355Z" fill="white"/>
</mask>
<g mask="url(#mask1)">
<path fill-rule="evenodd" clip-rule="evenodd" d="M440.669 288.723H534.806V142.062H440.669V288.723Z" fill="#A2B7FD"/>
<path fill-rule="evenodd" clip-rule="evenodd" d="M561.16 150.307H761.277V142.062H561.16V150.307Z" fill="#698BFD"/>
<path fill-rule="evenodd" clip-rule="evenodd" d="M561.16 169.042H761.277V159.505H561.16V169.042Z" fill="#698BFD"/>
<path fill-rule="evenodd" clip-rule="evenodd" d="M419.916 112.776H672.536V99.187H419.916V112.776Z" fill="white"/>
<path fill-rule="evenodd" clip-rule="evenodd" d="M662.54 104.017C662.54 102.513 663.702 101.289 665.129 101.289C666.556 101.289 667.718 102.513 667.718 104.017C667.718 105.521 666.556 106.745 665.129 106.745C663.702 106.745 662.54 105.521 662.54 104.017ZM669.206 110.335L667.197 106.868C668.01 106.212 668.538 105.18 668.538 104.017C668.538 102.035 667.012 100.424 665.129 100.424C663.246 100.424 661.72 102.035 661.72 104.017C661.72 106.001 663.246 107.61 665.129 107.61C665.597 107.61 666.043 107.51 666.449 107.33L667.868 111.044C667.885 111.081 667.904 111.123 667.924 111.16C668.141 111.532 668.604 111.651 668.956 111.424C669.312 111.195 669.424 110.706 669.206 110.335Z" fill="#121841"/>
<path fill-rule="evenodd" clip-rule="evenodd" d="M577.413 340.22H753.231V182.868H577.413V340.22Z" fill="#E4EDFF"/>
<path fill-rule="evenodd" clip-rule="evenodd" d="M595.695 274.42H665.323V207.903H595.695V274.42Z" fill="white"/>
<path fill-rule="evenodd" clip-rule="evenodd" d="M624.661 197.889H709.751V190.735H624.661V197.889Z" fill="#F57408"/>
<path fill-rule="evenodd" clip-rule="evenodd" d="M677.547 211.479H750.254V207.903H677.547V211.479Z" fill="#698BFD"/>
<path fill-rule="evenodd" clip-rule="evenodd" d="M677.547 217.678H750.254V214.102H677.547V217.678Z" fill="#698BFD"/>
<path fill-rule="evenodd" clip-rule="evenodd" d="M677.547 223.875H750.254V220.299H677.547V223.875Z" fill="#698BFD"/>
<path fill-rule="evenodd" clip-rule="evenodd" d="M677.547 230.074H750.254V226.498H677.547V230.074Z" fill="#698BFD"/>
<path fill-rule="evenodd" clip-rule="evenodd" d="M677.547 236.273H750.254V232.698H677.547V236.273Z" fill="#698BFD"/>
<path fill-rule="evenodd" clip-rule="evenodd" d="M677.547 242.472H750.254V238.896H677.547V242.472Z" fill="#698BFD"/>
<path fill-rule="evenodd" clip-rule="evenodd" d="M677.547 248.671H750.254V245.095H677.547V248.671Z" fill="#698BFD"/>
<path fill-rule="evenodd" clip-rule="evenodd" d="M677.547 254.869H750.254V251.294H677.547V254.869Z" fill="#698BFD"/>
<path fill-rule="evenodd" clip-rule="evenodd" d="M677.547 261.069H750.254V257.493H677.547V261.069Z" fill="#698BFD"/>
<path fill-rule="evenodd" clip-rule="evenodd" d="M677.547 267.267H750.254V263.69H677.547V267.267Z" fill="#698BFD"/>
<path fill-rule="evenodd" clip-rule="evenodd" d="M677.547 273.465H750.254V269.889H677.547V273.465Z" fill="#698BFD"/>
<path fill-rule="evenodd" clip-rule="evenodd" d="M899.708 524.025H531.171C528.009 524.025 525.448 521.462 525.448 518.301V270.519C525.448 267.36 528.009 264.798 531.171 264.798H899.708C902.87 264.798 905.433 267.36 905.433 270.519V518.301C905.433 521.462 902.87 524.025 899.708 524.025Z" fill="#D5DFFE"/>
<path fill-rule="evenodd" clip-rule="evenodd" d="M899.708 289.633H531.171C528.009 289.633 525.448 287.07 525.448 283.911V270.519C525.448 267.361 528.009 264.797 531.171 264.797H899.708C902.87 264.797 905.433 267.361 905.433 270.519V283.911C905.433 287.07 902.87 289.633 899.708 289.633Z" fill="#004D54"/>
<path fill-rule="evenodd" clip-rule="evenodd" d="M560.416 461.289H654.553V314.627H560.416V461.289Z" fill="#698BFD"/>
<path fill-rule="evenodd" clip-rule="evenodd" d="M539.662 285.342H792.283V271.753H539.662V285.342Z" fill="white"/>
<path fill-rule="evenodd" clip-rule="evenodd" d="M495.527 571.384C495.527 581.311 421.118 589.359 329.33 589.359C237.54 589.359 163.132 581.311 163.132 571.384C163.132 561.457 237.54 553.409 329.33 553.409C421.118 553.409 495.527 561.457 495.527 571.384Z" fill="#2846A6"/>
<path fill-rule="evenodd" clip-rule="evenodd" d="M355.755 572.76H362.349L388.604 459.749L379.047 459.245L355.755 572.76Z" fill="#1F1A15"/>
<path fill-rule="evenodd" clip-rule="evenodd" d="M462.746 574.798H456.152L429.897 461.785L439.456 461.284L462.746 574.798Z" fill="#1F1A15"/>
<path fill-rule="evenodd" clip-rule="evenodd" d="M286.277 562.601H279.684L253.427 449.588L262.986 449.087L286.277 562.601Z" fill="#1F1A15"/>
<path fill-rule="evenodd" clip-rule="evenodd" d="M198.683 570.276H205.277L231.532 457.261L221.973 456.76L198.683 570.276Z" fill="#1F1A15"/>
<path fill-rule="evenodd" clip-rule="evenodd" d="M203.569 372.23V455.353C203.569 461.917 209.831 467.238 217.556 467.238H432.336C440.059 467.238 446.323 461.917 446.323 455.353V372.23C446.323 365.665 440.059 360.343 432.336 360.343H217.556C209.831 360.343 203.569 365.665 203.569 372.23Z" fill="#450000"/>
</g>
<mask id="mask2" mask-type="alpha" maskUnits="userSpaceOnUse" x="204" y="360" width="243" height="108">
<path fill-rule="evenodd" clip-rule="evenodd" d="M358.909 360.059C351.194 360.059 344.937 365.4 344.937 371.989C344.937 372.382 344.937 372.615 344.936 372.737C344.936 375.419 344.931 386.446 344.911 424.902C344.451 431.138 338.383 436.073 330.966 436.073H246.013C238.295 436.073 232.042 430.732 232.042 424.142V371.989C232.042 365.4 225.787 360.059 218.07 360.059C210.353 360.059 204.098 365.4 204.098 371.989V455.435C204.098 462.023 210.353 467.364 218.07 467.364H432.613C440.329 467.364 446.584 462.023 446.584 455.435V371.989C446.584 365.4 440.329 360.059 432.613 360.059H358.909ZM344.936 372.409C344.936 372.709 344.936 373.011 344.936 372.737C344.937 372.168 344.937 371.974 344.937 371.974C344.936 371.973 344.936 372.191 344.936 372.409Z" fill="white"/>
</mask>
<g mask="url(#mask2)">
<path fill-rule="evenodd" clip-rule="evenodd" d="M358.909 360.059C351.194 360.059 344.937 365.4 344.937 371.989C344.937 372.382 344.937 372.615 344.936 372.737C344.936 375.419 344.931 386.446 344.911 424.902C344.451 431.138 338.383 436.073 330.966 436.073H246.013C238.295 436.073 232.042 430.732 232.042 424.142V371.989C232.042 365.4 225.787 360.059 218.07 360.059C210.353 360.059 204.098 365.4 204.098 371.989V455.435C204.098 462.023 210.353 467.364 218.07 467.364H432.613C440.329 467.364 446.584 462.023 446.584 455.435V371.989C446.584 365.4 440.329 360.059 432.613 360.059H358.909ZM344.936 372.409C344.936 372.709 344.936 373.011 344.936 372.737C344.937 372.168 344.937 371.974 344.937 371.974C344.936 371.973 344.936 372.191 344.936 372.409Z" fill="url(#paint0_linear)"/>
</g>
<path fill-rule="evenodd" clip-rule="evenodd" d="M344.433 425.218C344.452 387.266 344.459 376.114 344.461 373.301V373.302V373.301V373.265V373.093V373.064V373.072V373.052V373.041V372.85V372.845V372.848V372.782V372.613V372.606V372.535V372.474C344.461 365.906 350.72 360.58 358.443 360.58H432.206C439.929 360.58 446.189 365.906 446.189 372.474V455.652C446.189 462.221 439.929 467.545 432.206 467.545H331.217L330.478 436.353C337.901 436.353 343.973 431.433 344.433 425.218Z" fill="#FABF44"/>
<path fill-rule="evenodd" clip-rule="evenodd" d="M390.021 467.545H432.206C439.929 467.545 446.189 462.221 446.189 455.652V372.474C446.189 365.906 439.929 360.58 432.206 360.58H390.021C382.3 360.58 376.038 365.906 376.038 372.474V455.652C376.038 462.221 382.3 467.545 390.021 467.545Z" fill="#F15A24"/>
<path fill-rule="evenodd" clip-rule="evenodd" d="M325.272 204.468C325.272 204.468 302.661 200.609 294.754 216.232C286.845 231.855 287.592 267.183 298.355 276.33C309.119 285.478 307.328 308.912 316.756 315.83C326.185 322.75 350.213 325.875 350.213 309.584C350.213 309.584 338.502 311.567 335.537 301.425C335.537 301.425 352.342 309.304 360.554 297.28C368.765 285.256 351.124 284.139 351.124 284.139C351.124 284.139 358.056 287.544 347.715 285.758C337.374 283.973 344.124 281.392 344.124 272.645C344.124 263.901 350.517 270.081 348.69 254.013C346.867 237.944 332.978 203.915 325.272 204.468Z" fill="#0E1B29"/>
<path fill-rule="evenodd" clip-rule="evenodd" d="M270.688 549.329L268.494 564.644C268.494 564.644 264.412 576.214 264.412 577.915C264.412 579.041 266.332 588.169 271.442 589.708C274.06 590.498 284.788 578.789 286.213 573.493C287.88 567.303 283.802 547.969 283.802 547.969L270.688 549.329Z" fill="#FC7575"/>
<path fill-rule="evenodd" clip-rule="evenodd" d="M305.913 546.608C305.913 546.608 303.002 569.069 303.002 572.47C303.002 575.873 302.539 580.761 304.456 582.678C306.375 584.598 323.601 578.937 323.601 572.811C323.601 566.685 319.859 546.608 319.859 546.608H305.913Z" fill="#FC7575"/>
<path fill-rule="evenodd" clip-rule="evenodd" d="M343.128 345.787C343.128 330.453 342.492 280.572 342.492 280.572C342.492 280.572 333.428 274.426 315.282 274.426C309.447 274.426 304.082 273.428 298.273 274.485C286.019 276.716 274.876 281.961 274.876 281.961C274.876 281.961 278.636 329.02 272.758 361.15C271.72 366.826 276.155 372.035 281.923 372.035H339.254C343.121 372.035 346.06 368.558 345.427 364.742C344.077 356.598 343.128 349.77 343.128 345.787Z" fill="#FFDA88"/>
<path fill-rule="evenodd" clip-rule="evenodd" d="M278.555 371.04C269.257 378.244 267.272 380.725 264.626 383.971C243.977 409.325 249.921 443.753 259.308 442.459C268.692 441.167 288.091 437.807 303.107 440.935C318.125 444.066 351.916 443.127 355.044 430.921C357.127 422.791 346.018 394.496 340.006 372.035L278.555 371.04Z" fill="#464A7F"/>
<path fill-rule="evenodd" clip-rule="evenodd" d="M310.026 402.751L303.001 413.784C299.545 421.696 301.561 440.641 301.561 440.641L270.688 439.075L269.22 409.977L310.026 402.751Z" fill="#35385F"/>
<path fill-rule="evenodd" clip-rule="evenodd" d="M304.673 413.08C304.673 413.08 322.192 411.202 328.763 417.776C335.334 424.347 322.819 513.862 324.384 518.869C325.947 523.877 333.456 523.252 329.076 527.632C324.695 532.015 323.601 534.988 325.635 537.023C327.669 539.056 328.45 542.03 326.573 543.909C324.695 545.785 324.07 550.793 324.07 550.793H303.1C303.1 550.793 301.545 537.961 301.545 535.77C301.545 533.579 299.042 527.321 299.042 527.321C299.042 527.321 306.85 523.247 303.1 519.495C299.349 515.743 303.1 510.107 303.1 501.968C303.1 493.83 291.533 414.644 304.673 413.08Z" fill="#6B6E98"/>
<path fill-rule="evenodd" clip-rule="evenodd" d="M251.581 412.831C257.644 406.767 267.442 406.009 277.141 412.831C286.84 419.653 283.397 436.554 283.397 451.89C283.397 467.226 282.394 505.098 283.99 509.792C285.588 514.488 290.594 519.183 288.716 524.191C286.84 529.199 285.899 528.154 289.131 531.389C292.366 534.623 290.594 537.022 290.594 540.464C290.594 543.908 289.029 554.55 289.029 554.55H269.007C269.007 554.55 268.067 535.456 263.063 527.946C258.057 520.433 261.81 504.16 261.81 501.656C261.81 499.152 255.552 496.021 255.552 485.067C255.552 474.113 248.287 416.125 251.581 412.831Z" fill="#6B6E98"/>
<path fill-rule="evenodd" clip-rule="evenodd" d="M275.843 281.96C275.843 281.96 272.282 288.191 267.276 302.275C262.27 316.36 270.689 372.176 270.689 381.564C270.689 390.953 282.46 402.751 282.46 402.751L292.47 391.483L285.901 350.796L275.843 281.96Z" fill="#FD5E5A"/>
<path fill-rule="evenodd" clip-rule="evenodd" d="M342.493 280.571C342.493 280.571 356.923 284.13 361.327 304.162C365.73 324.192 369.308 371.141 367.932 376.774C366.557 382.408 330.264 399.828 330.264 399.828L327.199 393.674C327.199 393.674 354.721 369.888 354.721 366.446C354.721 363.002 342.942 319.916 342.942 319.916L342.493 280.571Z" fill="#FD5E5A"/>
<path fill-rule="evenodd" clip-rule="evenodd" d="M231.462 352.047L239.596 409.801L340.964 406.196L338.958 348.297L231.462 352.047Z" fill="#241145"/>
<path fill-rule="evenodd" clip-rule="evenodd" d="M285.654 574.979C276.205 580.965 269.176 580.336 264.419 578.053C264.544 579.638 266.502 588.219 271.442 589.708C273.836 590.431 283.011 580.702 285.654 574.979Z" fill="#ED1E79"/>
<path fill-rule="evenodd" clip-rule="evenodd" d="M323.6 572.811C323.6 571.449 323.416 569.4 323.128 567.032C317.676 571.937 310.396 575.167 303.355 567.966C303.139 570.085 303.001 571.731 303.001 572.47C303.001 575.873 302.538 580.76 304.457 582.678C306.374 584.598 323.6 578.936 323.6 572.811Z" fill="#ED1E79"/>
<path fill-rule="evenodd" clip-rule="evenodd" d="M325.558 251.223C325.558 251.223 324.771 252.954 323.577 255.663C319.44 265.053 322.071 279.455 322.28 281.96C322.698 286.99 320.011 297.28 320.011 297.28C320.011 297.28 300.352 283.521 299.24 274.486L309.9 241.822L325.558 251.223Z" fill="#FC7575"/>
<path fill-rule="evenodd" clip-rule="evenodd" d="M309.901 241.822L325.558 251.223C325.558 251.223 324.77 252.959 323.577 255.662C318.066 254.142 309.652 251.363 307.825 248.175L309.901 241.822Z" fill="#FD5E5A"/>
<path fill-rule="evenodd" clip-rule="evenodd" d="M313.688 215.181L337.335 228.236C337.335 228.236 342.242 228.348 342.242 222.881C342.242 217.412 336.219 212.057 330.084 208.932C323.95 205.809 316.255 204.459 316.255 204.459L313.688 215.181Z" fill="#0E1B29"/>
<path fill-rule="evenodd" clip-rule="evenodd" d="M322.276 209.267C322.276 209.267 331.423 210.829 333.876 215.182C336.33 219.533 337 229.911 339.453 232.365C341.908 234.82 344.046 235.36 344.046 235.36C344.046 235.36 344.696 236.494 342.242 237.72C339.789 238.948 341.647 240.288 343.171 240.288C344.696 240.288 343.414 243.189 342.242 243.525C342.242 243.525 343.748 243.969 343.468 245.421C343.19 246.872 342.466 247.152 342.466 247.152C342.466 247.152 342.391 249.048 343.171 250.833C343.952 252.617 342.058 257.918 330.085 255.575C330.085 255.575 312.291 251.391 311.231 246.37C310.175 241.347 302.256 223.097 309.003 216.349C315.748 209.599 322.276 209.267 322.276 209.267Z" fill="#FC7575"/>
<path fill-rule="evenodd" clip-rule="evenodd" d="M314.021 204.182C314.021 204.182 316.251 201.278 327.406 204.46C338.56 207.64 341.786 220.262 341.786 220.262C341.786 220.262 334.601 215.403 330.084 215.403C325.567 215.403 315.347 213.687 313.687 212.029C312.028 210.368 314.021 204.182 314.021 204.182Z" fill="#1B3753"/>
<path fill-rule="evenodd" clip-rule="evenodd" d="M316.333 203.166C317.893 203.166 326.904 214.4 324.228 222.769C321.551 231.137 315.194 227.4 311.177 229.631C307.16 231.863 311.955 242.185 311.231 246.37C310.507 250.553 299.24 274.486 299.24 274.486C299.24 274.486 289.761 223.89 295.508 214.516C301.254 205.143 316.333 203.166 316.333 203.166Z" fill="#1B3753"/>
<path fill-rule="evenodd" clip-rule="evenodd" d="M327.339 238.084C327.339 239.334 329.435 240.346 332.02 240.346C334.607 240.346 336.702 239.334 336.702 238.084C336.702 236.835 334.607 235.82 332.02 235.82C329.435 235.82 327.339 236.835 327.339 238.084Z" fill="#FD5E5A"/>
<path fill-rule="evenodd" clip-rule="evenodd" d="M338.593 228.236C338.593 228.236 337.054 231.326 330.794 231.182L338.593 228.236Z" fill="#1B3753"/>
<path fill-rule="evenodd" clip-rule="evenodd" d="M336.703 226.724C336.703 226.724 334.379 225.335 332.576 225.335C330.772 225.335 329.108 226.066 329.108 226.724C329.108 226.724 331.085 225.788 332.645 226.03C334.205 226.273 334.934 227.473 335.559 227.473C336.183 227.473 336.703 226.724 336.703 226.724Z" fill="#1B3753"/>
<path fill-rule="evenodd" clip-rule="evenodd" d="M310.719 238C310.719 238 319.393 258.108 301.974 280.57C284.555 303.037 260.919 293.943 257.738 284.849C254.556 275.755 265.687 272.646 265.687 272.646C265.687 272.646 263.564 282.935 269.22 282.447C274.877 281.96 276.827 280.626 274.555 269.551C272.282 258.476 280.5 262.916 285.022 255.663C289.543 248.411 285.022 242.875 285.022 234.306C285.022 225.738 295.508 214.515 295.508 214.515L310.719 238Z" fill="#1B3753"/>
<path fill-rule="evenodd" clip-rule="evenodd" d="M312.399 230.636C312.399 230.636 309.17 223.605 307.664 225.113C306.159 226.619 305.407 236.995 310.719 238.001C316.031 239.004 312.399 230.636 312.399 230.636Z" fill="#FC7575"/>
<path fill-rule="evenodd" clip-rule="evenodd" d="M312.166 231.493C312.166 231.493 310.502 227.66 309.599 228.564C308.698 229.466 309.669 235.503 310.882 235.503C312.097 235.503 312.46 233.424 312.166 231.493Z" fill="#FD5E5A"/>
<path fill-rule="evenodd" clip-rule="evenodd" d="M336.939 231.415C336.939 232.133 336.608 232.714 336.2 232.714C335.792 232.714 335.461 232.133 335.461 231.415C335.461 230.696 335.792 230.113 336.2 230.113C336.608 230.113 336.939 230.696 336.939 231.415Z" fill="#1B3753"/>
<path fill-rule="evenodd" clip-rule="evenodd" d="M174.105 278.182H247.33C250.656 278.182 253.353 282.186 253.353 287.121V307.917C253.353 312.854 250.656 316.856 247.33 316.856H244.014L253.353 345.166L224.14 316.856H174.105C170.78 316.856 168.082 312.854 168.082 307.917V287.121C168.082 282.186 170.78 278.182 174.105 278.182Z" fill="#5CA9FF"/>
<path fill-rule="evenodd" clip-rule="evenodd" d="M516.964 64.1211C516.444 64.1211 515.916 63.9762 515.447 63.6733C513.146 62.1901 510.766 60.7101 508.38 59.2713C507.052 58.4696 506.624 56.7476 507.423 55.4191C508.221 54.0889 509.945 53.6609 511.273 54.461C513.71 55.9278 516.139 57.439 518.486 58.9536C519.789 59.7931 520.165 61.5316 519.325 62.8337C518.787 63.6684 517.885 64.1211 516.964 64.1211Z" fill="#99D7FF"/>
<mask id="mask3" mask-type="alpha" maskUnits="userSpaceOnUse" x="0" y="0" width="492" height="473">
<path fill-rule="evenodd" clip-rule="evenodd" d="M0.000244141 0.621582H491.642V472.236H0.000244141V0.621582Z" fill="white"/>
</mask>
<g mask="url(#mask3)">
<path fill-rule="evenodd" clip-rule="evenodd" d="M292.226 6.41598H292.161C286.79 6.29745 281.536 6.23654 276.541 6.23654H275.648C274.099 6.23654 272.842 4.97881 272.842 3.4297C272.842 1.87894 274.099 0.621216 275.648 0.621216H276.541C281.577 0.621216 286.876 0.682127 292.286 0.800656C293.835 0.835227 295.063 2.12094 295.03 3.67005C294.995 5.19941 293.746 6.41598 292.226 6.41598ZM235.153 7.77413C233.705 7.77413 232.475 6.66127 232.36 5.19282C232.235 3.64536 233.389 2.2938 234.932 2.17033C240.302 1.74066 245.903 1.39495 251.582 1.14472C253.101 1.06076 254.441 2.27733 254.51 3.82809C254.577 5.37556 253.378 6.68596 251.828 6.7551C246.216 6.99875 240.682 7.34117 235.381 7.7659C235.304 7.77083 235.227 7.77413 235.153 7.77413ZM332.704 8.41781C332.627 8.41781 332.551 8.41287 332.475 8.40793C327.075 7.97332 321.532 7.60127 316 7.30001C314.451 7.21441 313.266 5.89412 313.35 4.34336C313.434 2.7959 314.719 1.64682 316.306 1.69292C321.884 1.99747 327.476 2.37281 332.925 2.81236C334.47 2.93583 335.622 4.28739 335.497 5.83321C335.38 7.3033 334.151 8.41781 332.704 8.41781ZM372.954 13.075C372.811 13.075 372.668 13.0635 372.524 13.0404C367.157 12.219 361.659 11.4617 356.185 10.7966C354.647 10.6106 353.552 9.21129 353.738 7.67206C353.928 6.13118 355.335 5.05454 356.865 5.2241C362.394 5.89906 367.95 6.65962 373.375 7.49427C374.907 7.72803 375.959 9.16026 375.724 10.6946C375.511 12.0807 374.315 13.075 372.954 13.075ZM195 13.154C193.687 13.154 192.513 12.2239 192.25 10.8839C191.954 9.36275 192.946 7.88936 194.468 7.59139C199.805 6.54932 205.352 5.61426 210.957 4.81254C212.478 4.60018 213.911 5.662 214.132 7.1963C214.349 8.73059 213.284 10.1546 211.751 10.3719C206.241 11.1571 200.788 12.0758 195.543 13.103C195.36 13.1376 195.181 13.154 195 13.154ZM412.7 20.8864C412.481 20.8864 412.261 20.8601 412.037 20.8074C406.801 19.5365 401.39 18.3298 395.96 17.2186C394.441 16.9091 393.46 15.4275 393.771 13.9097C394.08 12.3885 395.561 11.4074 397.08 11.7202C402.58 12.8413 408.056 14.0644 413.36 15.3501C414.868 15.7156 415.792 17.2334 415.427 18.7397C415.114 20.0254 413.967 20.8864 412.7 20.8864ZM155.942 23.7706C154.79 23.7706 153.71 23.0562 153.3 21.912C152.777 20.4502 153.536 18.8451 154.992 18.3199C160.143 16.4712 165.512 14.7492 170.951 13.1985C172.44 12.7754 173.994 13.638 174.418 15.1295C174.843 16.6194 173.979 18.1751 172.488 18.5965C167.171 20.1143 161.922 21.8001 156.889 23.606C156.575 23.7163 156.256 23.7706 155.942 23.7706ZM451.533 32.392C451.222 32.392 450.905 32.341 450.595 32.2323C445.491 30.4198 440.236 28.688 434.972 27.0796C433.491 26.6252 432.655 25.058 433.109 23.5747C433.562 22.0915 435.128 21.2535 436.613 21.7095C441.953 23.3426 447.289 25.1008 452.47 26.9396C453.931 27.4582 454.694 29.0633 454.179 30.5235C453.768 31.6742 452.687 32.392 451.533 32.392ZM119.274 40.8487C118.313 40.8487 117.378 40.3549 116.854 39.4642C116.069 38.1308 116.513 36.4105 117.849 35.6219C122.61 32.8184 127.589 30.1515 132.651 27.6936C134.048 27.0203 135.725 27.5998 136.403 28.9925C137.078 30.3902 136.497 32.0693 135.103 32.7443C130.175 35.1363 125.328 37.7324 120.694 40.4619C120.248 40.7253 119.758 40.8487 119.274 40.8487ZM488.834 48.1564C488.413 48.1564 487.988 48.0642 487.587 47.8633C482.757 45.4598 477.744 43.1271 472.692 40.9294C471.272 40.3104 470.621 38.6576 471.238 37.2369C471.856 35.8129 473.51 35.1626 474.929 35.78C480.073 38.0155 485.171 40.3911 490.085 42.8374C491.474 43.5288 492.038 45.2129 491.347 46.599C490.858 47.5868 489.864 48.1564 488.834 48.1564ZM86.6896 64.8064C85.926 64.8064 85.1641 64.4953 84.6096 63.8846C83.5695 62.7371 83.6567 60.9625 84.8054 59.9204C88.9457 56.162 93.2901 52.542 97.7135 49.1606C98.9477 48.2206 100.705 48.4543 101.648 49.6857C102.589 50.9171 102.354 52.6802 101.122 53.6203C96.8216 56.9078 92.6006 60.4258 88.5755 64.0788C88.0373 64.5645 87.3643 64.8064 86.6896 64.8064ZM59.0912 94.4355C58.479 94.4355 57.8619 94.2363 57.3468 93.8264C56.134 92.86 55.9333 91.0936 56.8976 89.8803C60.3632 85.5227 64.0099 81.2228 67.7388 77.1022C68.7788 75.9482 70.5561 75.8675 71.7047 76.9047C72.8534 77.9451 72.9406 79.7214 71.9006 80.8721C68.2506 84.9054 64.6813 89.1115 61.2897 93.3753C60.7351 94.0733 59.9173 94.4355 59.0912 94.4355ZM36.3835 127.963C35.9112 127.963 35.434 127.844 34.9946 127.592C33.6485 126.825 33.1795 125.111 33.948 123.763C36.6978 118.941 39.6434 114.136 42.7026 109.477C43.555 108.182 45.2977 107.824 46.5895 108.672C47.883 109.523 48.245 111.265 47.3942 112.562C44.3976 117.119 41.5145 121.824 38.8223 126.547C38.3055 127.454 37.3577 127.963 36.3835 127.963ZM19.1013 164.578C18.7689 164.578 18.4316 164.521 18.1025 164.397C16.6543 163.846 15.927 162.224 16.4782 160.776C18.448 155.585 20.6202 150.383 22.929 145.308C23.5724 143.898 25.2329 143.276 26.6481 143.917C28.0584 144.56 28.6788 146.223 28.037 147.637C25.7776 152.602 23.6531 157.694 21.7244 162.771C21.2982 163.89 20.2319 164.578 19.1013 164.578ZM7.75489 203.449C7.56565 203.449 7.3764 203.43 7.18387 203.39C5.66662 203.076 4.69078 201.591 5.00344 200.073C6.12575 194.655 7.44881 189.173 8.94137 183.78C9.35442 182.282 10.8996 181.411 12.3922 181.823C13.8864 182.236 14.7635 183.782 14.3488 185.275C12.8908 190.55 11.5957 195.911 10.4998 201.211C10.2249 202.537 9.05821 203.449 7.75489 203.449ZM2.80821 243.628C2.772 243.628 2.73415 243.628 2.69795 243.626C1.14779 243.565 -0.0584359 242.26 0.00245143 240.71C0.219671 235.171 0.636009 229.547 1.23665 223.988C1.40286 222.447 2.78846 221.334 4.32875 221.499C5.87068 221.667 6.98311 223.051 6.8169 224.592C6.22942 230.023 5.82295 235.521 5.61067 240.929C5.54978 242.441 4.30735 243.628 2.80821 243.628ZM4.62166 284.076C3.23442 284.076 2.02819 283.047 1.84388 281.634C1.67768 280.362 1.52134 279.091 1.37489 277.81C0.884495 273.551 0.504361 269.218 0.247646 264.932C0.153847 263.386 1.3321 262.056 2.87897 261.962C4.40938 261.878 5.75548 263.048 5.84928 264.594C6.09942 268.779 6.47132 273.01 6.95019 277.173C7.09172 278.422 7.2464 279.664 7.40767 280.902C7.60844 282.443 6.52727 283.85 4.99192 284.051C4.86686 284.069 4.74508 284.076 4.62166 284.076ZM13.4865 323.569C12.3017 323.569 11.1991 322.813 10.8157 321.625C9.10758 316.319 7.57881 310.881 6.26891 305.457C5.90523 303.951 6.83171 302.433 8.33744 302.071C9.8481 301.71 11.3604 302.634 11.7241 304.14C13.0011 309.426 14.4936 314.73 16.1574 319.903C16.6329 321.378 15.8216 322.958 14.3472 323.434C14.0608 323.526 13.7729 323.569 13.4865 323.569ZM29.3255 360.823C28.3249 360.823 27.3557 360.285 26.8505 359.342C24.2142 354.418 21.731 349.347 19.4732 344.27C18.843 342.853 19.4782 341.192 20.895 340.563C22.3086 339.929 23.9707 340.568 24.5993 341.985C26.8044 346.939 29.2251 351.886 31.7972 356.69C32.5295 358.059 32.0144 359.76 30.6485 360.491C30.2273 360.718 29.7731 360.823 29.3255 360.823ZM51.3733 394.766C50.534 394.766 49.703 394.393 49.1517 393.676C45.7223 389.239 42.4228 384.668 39.3456 380.088C38.48 378.802 38.8223 377.059 40.1075 376.191C41.3927 375.33 43.137 375.669 44.0026 376.955C47.0124 381.433 50.2378 385.904 53.5899 390.243C54.5394 391.47 54.314 393.235 53.0864 394.181C52.5762 394.575 51.9706 394.766 51.3733 394.766ZM78.4616 424.839C77.7606 424.839 77.0628 424.581 76.5165 424.057C72.4815 420.18 68.5369 416.163 64.7915 412.122C63.7384 410.984 63.8058 409.21 64.9429 408.156C66.0751 407.102 67.854 407.165 68.9056 408.306C72.5802 412.267 76.4474 416.206 80.405 420.007C81.5224 421.082 81.557 422.859 80.4857 423.976C79.9344 424.551 79.1972 424.839 78.4616 424.839ZM109.412 450.935C108.831 450.935 108.245 450.754 107.742 450.382C103.236 447.037 98.8029 443.578 94.572 440.098C93.374 439.114 93.2029 437.344 94.1853 436.147C95.1694 434.949 96.9368 434.774 98.1348 435.76C102.295 439.181 106.652 442.584 111.086 445.871C112.33 446.797 112.591 448.555 111.668 449.799C111.117 450.54 110.271 450.935 109.412 450.935ZM143.924 472.236C143.473 472.236 143.015 472.129 142.592 471.9C136.565 468.644 131.648 465.941 127.976 463.863C126.627 463.099 126.153 461.387 126.915 460.039C127.682 458.686 129.395 458.217 130.739 458.977C134.379 461.035 139.263 463.722 145.258 466.958C146.623 467.694 147.133 469.398 146.395 470.763C145.889 471.703 144.921 472.236 143.924 472.236Z" fill="#99D7FF"/>
</g>
<path fill-rule="evenodd" clip-rule="evenodd" d="M598.478 88.4756L515.798 38.3706L495.554 59.0276L598.478 88.4756Z" fill="#0A4CFE"/>
<path fill-rule="evenodd" clip-rule="evenodd" d="M515.785 100.084L516.967 61.3121L598.478 88.4751L515.785 100.084Z" fill="#99D7FF"/>
<path fill-rule="evenodd" clip-rule="evenodd" d="M515.698 6.2793L598.479 88.476L515.799 38.3711L515.698 6.2793Z" fill="#99D7FF"/>
<path fill-rule="evenodd" clip-rule="evenodd" d="M495.554 59.0282L516.967 61.3132L516.796 66.9433L495.554 59.0282Z" fill="#0033BF"/>
<defs>
<linearGradient id="paint0_linear" x1="146.131" y1="448.055" x2="309" y2="598.375" gradientUnits="userSpaceOnUse">
<stop stop-color="#F47938"/>
<stop offset="1" stop-color="#FFFB4D"/>
</linearGradient>
</defs>
</svg>
