<svg width="697" height="621" viewBox="0 0 697 621" fill="none" xmlns="http://www.w3.org/2000/svg">
<path fill-rule="evenodd" clip-rule="evenodd" d="M271 231C255.46 232.858 240.423 235.205 226.201 238.074C131.304 257.189 131.271 287.801 131.212 289.379C131.207 290.661 131.069 360.971 131.069 360.786C131.041 375.463 131.024 384.921 131 398C131.068 368.608 192.435 348.191 271 339.192V231Z" fill="#B3CCFF"/>
<path fill-rule="evenodd" clip-rule="evenodd" d="M574.192 261.525C554.69 250.435 527.76 242.98 505.934 238.364C448.862 226.262 375.793 222.221 308 226.89V335.193C406.227 328.572 519.573 338.623 573.991 369.528C590.168 378.717 597.82 388.441 597.801 398C597.803 397.533 597.804 397.064 597.804 396.593C597.825 385.866 597.994 294.237 598 291.718C598.015 277.514 586.548 268.547 574.192 261.525Z" fill="#B3CCFF"/>
<path fill-rule="evenodd" clip-rule="evenodd" d="M415 237.711C397.92 236.591 380.377 236 362.752 236C347.368 236 332.018 236.433 317 237.296V325.931C332.9 325.051 349.079 324.604 365.232 324.604C382.398 324.604 399.029 325.079 415 326V237.711Z" fill="#7E9DE0"/>
<path fill-rule="evenodd" clip-rule="evenodd" d="M499 248.292C482.098 244.827 463.546 242.04 444 240V328.126C463.69 330.016 482.092 332.671 499 336V248.292Z" fill="#7E9DE0"/>
<path fill-rule="evenodd" clip-rule="evenodd" d="M568.279 269.963C561.045 265.772 552.663 262.131 544 259V347.181C556.837 351.545 568.12 356.473 577.565 361.939C580.967 363.907 584.066 365.93 586.861 368L587 291.915C587.01 284.132 581.411 277.566 568.279 269.963Z" fill="#7E9DE0"/>
<mask id="mask0" mask-type="alpha" maskUnits="userSpaceOnUse" x="562" y="103" width="135" height="92">
<path fill-rule="evenodd" clip-rule="evenodd" d="M562.928 103.495H696.144V194.449H562.928V103.495Z" fill="white"/>
</mask>
<g mask="url(#mask0)">
<path fill-rule="evenodd" clip-rule="evenodd" d="M694.138 194.449H564.935C563.826 194.449 562.928 193.55 562.928 192.44V105.503C562.928 104.394 563.826 103.495 564.935 103.495H694.138C695.246 103.495 696.145 104.394 696.145 105.503V192.44C696.145 193.55 695.246 194.449 694.138 194.449Z" fill="#B0C2FE"/>
</g>
<path fill-rule="evenodd" clip-rule="evenodd" d="M667.102 178H589.898C586.64 178 584 175.314 584 171.999V126.999C584 123.685 586.64 121 589.898 121H667.102C670.36 121 673 123.685 673 126.999V171.999C673 175.314 670.36 178 667.102 178Z" fill="#95A9FE"/>
<path fill-rule="evenodd" clip-rule="evenodd" d="M664 127H595L628.924 160L664 127Z" fill="white"/>
<path fill-rule="evenodd" clip-rule="evenodd" d="M628.967 167.648L589 130V173H669V131.179L628.967 167.648Z" fill="white"/>
<path fill-rule="evenodd" clip-rule="evenodd" d="M527 607.999C527 614.627 464.766 620 387.999 620C311.232 620 249 614.627 249 607.999C249 601.371 311.232 596 387.999 596C464.766 596 527 601.371 527 607.999Z" fill="#235893"/>
<path fill-rule="evenodd" clip-rule="evenodd" d="M448 584.358L452.455 603L466 598.995C466 598.995 465.094 591.606 463.415 580L448 584.358Z" fill="#FC7575"/>
<path fill-rule="evenodd" clip-rule="evenodd" d="M367 579.565L367.033 598L381.132 597.339C381.132 597.339 381.957 590.226 383 579L367 579.565Z" fill="#FC7575"/>
<path fill-rule="evenodd" clip-rule="evenodd" d="M431.697 146.041C431.697 146.041 441.672 150.046 446.515 155.051C451.359 160.056 453.561 170.002 452.592 177.868C451.624 185.732 449.548 187.162 449.548 187.162C449.548 187.162 454.128 198.172 452.737 207.609C451.347 217.047 440.969 226.055 434.187 227.342C434.187 227.342 443.591 216.189 442.349 210.326C442.349 210.326 435.572 219.907 428.79 223.624C422.011 227.342 389.214 259.995 368 236.661C368 236.661 385.338 228.915 379.663 213.472C373.989 198.028 389.627 184.016 389.627 184.016C389.627 184.016 377.449 190.737 371.084 181.728C364.719 172.72 375.65 165.713 376.204 166.284C376.757 166.857 371.915 175.007 377.588 177.152C383.262 179.296 384.576 170.645 393.503 161.422C402.428 152.2 427.407 141.608 431.697 146.041Z" fill="#170F33"/>
<path fill-rule="evenodd" clip-rule="evenodd" d="M428.736 227.03L434 193.237L416.251 192L411 219.881C414.817 223.446 421.712 230.596 428.736 227.03Z" fill="#FC7575"/>
<path fill-rule="evenodd" clip-rule="evenodd" d="M430.679 207.999L433 193.237L415.083 192L413 202.966C413.211 203.23 413.435 203.493 413.675 203.749C416.982 207.321 424.383 213.072 430.679 207.999Z" fill="#FD5E5A"/>
<path fill-rule="evenodd" clip-rule="evenodd" d="M436.743 154.502C436.743 154.502 444 157.09 444 166.969C444 166.969 443.209 189.592 434.181 200.9C427.564 209.186 418.738 202.953 415.049 199.259C409.674 193.877 411.2 186.558 411.2 176.679C411.2 166.8 426.826 147.482 436.743 154.502Z" fill="#FC7575"/>
<path fill-rule="evenodd" clip-rule="evenodd" d="M423 177.5C423 178.88 422.328 180 421.5 180C420.672 180 420 178.88 420 177.5C420 176.12 420.672 175 421.5 175C422.328 175 423 176.12 423 177.5Z" fill="#2D1E66"/>
<path fill-rule="evenodd" clip-rule="evenodd" d="M439 179.499C439 180.879 438.329 182 437.501 182C436.673 182 436 180.879 436 179.499C436 178.119 436.673 177 437.501 177C438.329 177 439 178.119 439 179.499Z" fill="#2D1E66"/>
<path fill-rule="evenodd" clip-rule="evenodd" d="M416 176.509C416 176.509 419.488 174.543 422.071 175.099C424.656 175.654 425 177 425 177C425 177 422.891 175.605 420.091 176C417.291 176.395 416 176.509 416 176.509Z" fill="#2D1E66"/>
<path fill-rule="evenodd" clip-rule="evenodd" d="M444 181C444 181 441.159 178.031 438.451 178C435.743 177.972 435 179.34 435 179.34C435 179.34 437.494 178.347 440.13 179.455C442.763 180.564 444 181 444 181Z" fill="#2D1E66"/>
<path fill-rule="evenodd" clip-rule="evenodd" d="M432.15 182C432.553 183.949 433.248 185.819 434.048 187.66C433.108 188.272 431.161 188.714 430 188.991C433.768 189.117 434.827 187.899 435 187.851C435 187.851 433.635 184.307 432.15 182Z" fill="#2D1E66"/>
<path fill-rule="evenodd" clip-rule="evenodd" d="M424 185C424 186.657 421.986 188 419.499 188C417.014 188 415 186.657 415 185C415 183.343 417.014 182 419.499 182C421.986 182 424 183.343 424 185Z" fill="#FD5E5A"/>
<path fill-rule="evenodd" clip-rule="evenodd" d="M440.999 183C438.792 183 437 184.355 437 186.025C437 187.511 438.42 188.747 440.288 189C440.95 187.038 441.517 185.05 442 183.097C441.68 183.034 441.344 183 440.999 183Z" fill="#FD5E5A"/>
<path fill-rule="evenodd" clip-rule="evenodd" d="M440.962 151.938C440.962 151.938 442.224 165.446 430.229 166.321C418.233 167.196 410.61 173.118 410.61 173.118L405.267 189C405.267 189 402.68 176.743 403.033 167.752C403.386 158.761 416.322 146.255 424.9 145.112C433.481 143.969 440.962 151.938 440.962 151.938Z" fill="#2D1E66"/>
<path fill-rule="evenodd" clip-rule="evenodd" d="M412.202 175.353C412.202 175.353 411.324 172.46 408.589 173.09C405.851 173.719 407.194 181.224 408.589 182.522C409.983 183.82 414.906 182.805 412.202 175.353Z" fill="#FC7575"/>
<path fill-rule="evenodd" clip-rule="evenodd" d="M412 176.743C412 176.743 410.566 173 409.43 174.259C408.293 175.518 409.659 181 410.649 181C411.641 181 412 176.743 412 176.743Z" fill="#FD5E5A"/>
<path fill-rule="evenodd" clip-rule="evenodd" d="M422.655 193.213C422.328 192.973 422.431 192.888 422.192 193.213C421.517 194.133 422.687 197.154 424.689 197.793C427.286 198.619 431 196.804 431 195.306C431 194.822 427.609 196.694 422.655 193.213Z" fill="#2D1E66"/>
<path fill-rule="evenodd" clip-rule="evenodd" d="M418 172.367C418 172.367 422.433 171 424.203 171C425.976 171 428.404 172.746 427.943 173.77C427.484 174.795 425.356 172.063 423.894 172.063C422.433 172.063 418 172.367 418 172.367Z" fill="#2D1E66"/>
<path fill-rule="evenodd" clip-rule="evenodd" d="M441 176C441 176 439.984 173.593 438.352 173.112C436.719 172.63 433.914 173.79 434.002 174.984C434.092 176.176 436.942 173.906 438.29 174.304C439.636 174.701 441 176 441 176Z" fill="#2D1E66"/>
<path fill-rule="evenodd" clip-rule="evenodd" d="M389 219.821C380.39 208.786 360.467 179.783 358.707 145.688C356.143 96.0049 363.877 80.2398 363.877 80.2398C363.877 80.2398 369.618 75.8452 371.7 72.6164C373.781 69.3861 378.108 66.2293 376.063 64.9709C374.016 63.7126 371.144 67.6007 370.251 68.9838C369.938 69.4683 369.471 69.5447 368.993 69.439C367.744 69.1629 367.044 67.8444 367.416 66.6477C367.795 65.4349 368.674 63.4718 370.652 60.4031C374.815 53.944 378.02 47.8491 375.968 48.3043C373.915 48.7609 367.195 60.3972 365.709 62.7039C364.223 65.0106 369.559 52.1072 371.53 46.6627C373.5 41.2168 370.075 42.6528 369.178 45.7524C368.279 48.8505 362.995 61.701 362.129 61.1681C361.263 60.6351 366.732 45.7509 364.607 44.4441C362.482 43.1359 362.996 46.5306 362.2 48.9048C361.403 51.2776 360.815 59.6498 358.592 60.1432C358.592 60.1432 357.763 48.733 356.78 49.8284C356.29 50.3746 354.853 62.5277 354.768 67.6697C354.565 79.7699 337.614 144.321 341.609 161.3C345.505 177.854 350.621 225.391 364.226 234.95C380.217 235.517 381.581 231.329 389 219.821Z" fill="#FC7575"/>
<path fill-rule="evenodd" clip-rule="evenodd" d="M358.815 149C352.247 149.523 346.604 151.927 342 154.898C341.999 157.661 342.175 160.01 342.572 161.821C343.567 166.366 344.647 173.226 345.95 181L363 172.002C360.943 164.753 359.429 157.03 358.815 149Z" fill="#FD5E5A"/>
<path fill-rule="evenodd" clip-rule="evenodd" d="M452.344 247C463.732 254.914 493.563 273.081 527.753 273.388C577.576 273.834 593.041 265.67 593.041 265.67C593.041 265.67 597.206 259.911 600.355 257.755C603.502 255.601 606.486 251.265 607.83 253.202C609.172 255.139 605.396 258.09 604.047 259.014C603.575 259.337 603.518 259.796 603.643 260.255C603.971 261.457 605.318 262.083 606.499 261.672C607.699 261.254 609.627 260.319 612.617 258.271C618.914 253.961 624.883 250.594 624.51 252.607C624.138 254.621 612.764 261.63 610.517 263.169C608.267 264.708 620.962 258.992 626.335 256.852C631.702 254.713 630.404 258.101 627.339 259.101C624.274 260.101 611.63 265.765 612.196 266.584C612.765 267.404 627.441 261.476 628.833 263.488C630.227 265.499 626.81 265.139 624.467 266.012C622.124 266.883 613.771 267.798 613.365 269.981C613.365 269.981 624.818 270.315 623.764 271.316C623.235 271.815 611.131 273.709 605.99 274.006C593.888 274.7 529.977 293.826 512.822 290.643C496.099 287.538 448.32 284.523 438.204 271.697C436.991 256.181 441.126 254.681 452.344 247Z" fill="#FC7575"/>
<path fill-rule="evenodd" clip-rule="evenodd" d="M506 271.721C497.277 269.837 489.12 267.068 481.828 264C480.261 268.393 481.018 278.557 483.255 287.369C490.2 288.402 496.924 289.239 502.616 290C505.162 283.28 505.87 276.449 506 271.721Z" fill="#FD5E5A"/>
<path fill-rule="evenodd" clip-rule="evenodd" d="M367.998 315C367.998 315 349 357.95 349 371.373C349 384.794 358.97 580.773 358.97 580.773L390.112 582.096C390.112 582.096 388.772 398.886 393.463 394.19C398.154 389.492 402.844 390.161 402.844 390.161L442.939 585L472 582.786C472 582.786 456.454 396.874 448.412 376.74C440.373 356.609 422.949 315 422.949 315H367.998Z" fill="#DFB866"/>
<path fill-rule="evenodd" clip-rule="evenodd" d="M395.661 339C378.256 339 365.181 330.228 365 330.106L366.514 328C366.748 328.158 390.39 343.964 415.848 331.882L417 334.2C409.577 337.722 402.305 339 395.661 339Z" fill="#ECD4A3"/>
<path fill-rule="evenodd" clip-rule="evenodd" d="M396 329.5C396 331.433 394.433 333 392.5 333C390.567 333 389 331.433 389 329.5C389 327.567 390.567 326 392.5 326C394.433 326 396 327.567 396 329.5Z" fill="#ECD4A3"/>
<path fill-rule="evenodd" clip-rule="evenodd" d="M384.992 336L382 335.732L384.007 318L387 318.267L384.992 336Z" fill="#ECD4A3"/>
<path fill-rule="evenodd" clip-rule="evenodd" d="M332 173.633C332 173.633 342.003 236.926 350.584 236.926C350.584 236.926 334.937 298.504 366.736 314.778C398.536 331.053 433.1 316.236 443.964 305.402C454.827 294.569 465.668 294.307 478.792 299.845C491.914 305.382 501 277.334 501 263.17C501 249.006 449.851 231.628 424.109 220.975C398.366 210.321 389.45 211.255 379.86 196.658C370.269 182.061 370.269 155.383 360.174 159.409C350.079 163.436 332 173.633 332 173.633Z" fill="#8937DC"/>
<path fill-rule="evenodd" clip-rule="evenodd" d="M423.893 221.327C405.057 213.575 395.271 212.018 387.614 206C386.408 217.722 385.779 240.578 397.757 248.605C411.664 257.922 443.607 246.356 457 234.499C442.23 227.994 435.363 226.047 423.893 221.327Z" fill="#FC7575"/>
<path fill-rule="evenodd" clip-rule="evenodd" d="M437 156.007C437 156.007 415.291 168.992 413.14 174.672C410.989 180.352 403.489 188.481 408.469 206.777C413.45 225.072 394.481 232.888 387.629 227.145C380.778 221.402 382.176 209.223 387.629 210.12C387.629 210.12 390.245 215.675 394.504 211.408C398.765 207.141 395.046 191.517 394.32 181.478C393.593 171.44 418.78 131.067 437 156.007Z" fill="#2D1E66"/>
<path fill-rule="evenodd" clip-rule="evenodd" d="M380 593.652C380 593.652 379.148 602.116 378.568 607.872C377.988 613.627 380.178 618.444 372.636 618.942C365.095 619.44 357.41 616.68 357.014 612.884C356.619 609.089 364.816 600.962 365.191 597.238C365.566 593.514 367.84 592.186 368.959 593.486C370.076 594.785 380 593.652 380 593.652Z" fill="#70A3FF"/>
<path fill-rule="evenodd" clip-rule="evenodd" d="M378 617.219C376.642 618.594 374.849 618.642 372.89 618.539C368.72 618.343 359.648 617.164 358.048 613C357.844 614.098 358.316 615.277 358.944 616.186C363.587 622.521 376.918 622.328 378 617.219Z" fill="#385280"/>
<path fill-rule="evenodd" clip-rule="evenodd" d="M366.021 601.203C365.581 605.882 372.262 607.867 374.757 603.803C374.797 603.739 374.836 603.675 374.875 603.608C378.822 597.059 379.254 595.201 380.07 593.71C380.977 592.053 382.171 589.78 378.456 587.756C374.739 585.731 369.064 585.398 368.893 587.069C368.78 588.183 366.682 594.165 366.021 601.203Z" fill="#385280"/>
<path fill-rule="evenodd" clip-rule="evenodd" d="M378.686 587.777C382.065 589.828 380.98 592.132 380.153 593.811C379.412 595.32 379.019 597.202 375.432 603.837C375.395 603.905 375.36 603.97 375.324 604.035C375.12 604.406 374.885 604.727 374.626 605C374.687 604.905 374.747 604.807 374.803 604.701C374.839 604.636 374.875 604.573 374.911 604.505C378.498 597.87 378.892 595.988 379.633 594.479C380.458 592.798 381.545 590.496 378.166 588.445C375.393 586.762 371.42 586.235 370 587.033C370.249 585.398 375.341 585.746 378.686 587.777Z" fill="white"/>
<path fill-rule="evenodd" clip-rule="evenodd" d="M374 604.481C374 604.481 374.818 594.494 376.562 594.226C378.307 593.958 381 594.003 381 594.003C381 594.003 378.976 603.989 376.764 605.516C374.551 607.04 374 604.481 374 604.481Z" fill="#5491FF"/>
<path fill-rule="evenodd" clip-rule="evenodd" d="M367.002 596.296C366.989 596.395 367.037 596.499 367.145 596.571C371.176 599.29 377.47 597.309 377.735 597.223C377.957 597.152 378.06 596.961 377.964 596.794C377.87 596.628 377.613 596.551 377.391 596.622C377.331 596.641 371.342 598.521 367.728 596.084C367.55 595.963 367.274 595.974 367.112 596.109C367.048 596.163 367.011 596.228 367.002 596.296Z" fill="white"/>
<path fill-rule="evenodd" clip-rule="evenodd" d="M366.002 600.385C365.989 600.509 366.034 600.639 366.14 600.732C368.686 603.035 376.323 601.51 376.647 601.444C376.888 601.394 377.04 601.17 376.991 600.941C376.938 600.711 376.7 600.565 376.458 600.613C374.38 601.037 368.588 601.773 366.756 600.117C366.578 599.956 366.295 599.962 366.124 600.132C366.052 600.203 366.011 600.293 366.002 600.385Z" fill="white"/>
<path fill-rule="evenodd" clip-rule="evenodd" d="M366.002 603.355C365.992 603.455 366.023 603.56 366.097 603.644C367.997 605.759 375.754 604.798 376.633 604.681C376.865 604.651 377.03 604.452 376.995 604.235C376.962 604.02 376.744 603.873 376.509 603.903C374.255 604.201 368.11 604.647 366.76 603.143C366.61 602.976 366.338 602.951 366.156 603.09C366.064 603.159 366.012 603.256 366.002 603.355Z" fill="white"/>
<path fill-rule="evenodd" clip-rule="evenodd" d="M375.373 609.246C375.373 609.246 376.676 614.783 375.525 615.717C374.375 616.65 360.775 615.167 361.003 612.846C361.23 610.527 364.749 606.248 365.996 606.011C367.245 605.776 375.373 609.246 375.373 609.246Z" fill="#5491FF"/>
<path fill-rule="evenodd" clip-rule="evenodd" d="M468.819 586C468.819 586 461.203 587.239 461.005 592.245C460.803 597.25 467.106 604 467.106 604L473 600.034C473 600.034 470.414 597.27 469.87 592.564C469.325 587.855 468.819 586 468.819 586Z" fill="#5491FF"/>
<path fill-rule="evenodd" clip-rule="evenodd" d="M450.354 614.708C450.354 614.708 458.029 614.879 463.4 614.997C468.774 615.116 477.329 615.94 480.014 616C482.7 616.059 492.565 610.058 491.975 608.013C491.382 605.971 482.545 606.282 477.993 603.897C473.442 601.512 465.614 595.793 463.992 595.21C461.454 594.301 454.831 596.547 453.26 598.035C451.689 599.523 449.041 613.347 450.354 614.708Z" fill="#547ABF"/>
<path fill-rule="evenodd" clip-rule="evenodd" d="M453 610.881C474.308 608 468.105 614.35 489 609C483.908 610.939 476.387 612.813 471.044 611.633C468.14 610.986 465.092 610.917 462.083 610.829C459.061 610.76 456.034 610.815 453 610.881Z" fill="#385280"/>
<path fill-rule="evenodd" clip-rule="evenodd" d="M467.183 605.673C467.472 606.052 467.997 606.11 468.352 605.804C469.602 604.729 472.358 602.59 475 601.152C474.506 600.783 474 600.395 473.493 600C470.334 601.838 467.499 604.264 467.307 604.426C466.951 604.736 466.898 605.294 467.183 605.673Z" fill="white"/>
<path fill-rule="evenodd" clip-rule="evenodd" d="M466.416 601.883C466.82 602.119 467.338 601.987 467.578 601.588C467.597 601.553 469.976 598.424 472 596.519C471.805 595.877 471.579 595.319 471.127 595C469.096 596.968 466.21 600.583 466.12 600.736C465.88 601.13 466.011 601.647 466.416 601.883Z" fill="white"/>
<path fill-rule="evenodd" clip-rule="evenodd" d="M355 574L391 574.914V583L355 582.454V574Z" fill="#ECD4A3"/>
<path fill-rule="evenodd" clip-rule="evenodd" d="M402 390.471L441.948 585L456 583.927L412.568 377L402 390.471Z" fill="#FF815C"/>
<path fill-rule="evenodd" clip-rule="evenodd" d="M438 578.381L474 576V582.857L439.646 586L438 578.381Z" fill="#ECD4A3"/>
<path fill-rule="evenodd" clip-rule="evenodd" d="M337 353.871C230.42 350.092 132.13 327.654 132.201 290L132 397.866C131.932 434.165 229.578 457.975 337 462V353.871Z" fill="#DAE6FF"/>
<path fill-rule="evenodd" clip-rule="evenodd" d="M128 426V439.329C127.931 476.865 226.317 499.234 333 503V489.671C226.317 485.907 127.931 463.536 128 426Z" fill="#DAE6FF"/>
<path fill-rule="evenodd" clip-rule="evenodd" d="M127.5 535L127.484 547.961C127.484 548.309 127.49 548.654 127.5 549L127.516 535.448C127.509 535.297 127.505 535.151 127.5 535Z" fill="#DAE6FF"/>
<path fill-rule="evenodd" clip-rule="evenodd" d="M135.018 475L135 484.164C134.932 520.86 232.577 544.93 340 549V538.966C233.428 534.929 136.48 511.206 135.018 475Z" fill="#DAE6FF"/>
<path fill-rule="evenodd" clip-rule="evenodd" d="M141.142 321L141 397.547C140.973 411.365 168.443 426.88 217 438V349.313C187.268 343.082 159.041 334.064 141.142 321Z" fill="#B3CBFF"/>
<path fill-rule="evenodd" clip-rule="evenodd" d="M225 352V361.846C264.585 369.189 305.416 371.981 327 373V363.154C305.416 362.135 264.585 359.343 225 352Z" fill="#B3CBFF"/>
<path fill-rule="evenodd" clip-rule="evenodd" d="M225 381.846C264.585 389.189 305.416 391.981 327 393V383.154C305.416 382.135 264.585 379.342 225 372V381.846Z" fill="#B3CBFF"/>
<path fill-rule="evenodd" clip-rule="evenodd" d="M225 402.847C264.585 410.188 305.416 412.981 327 414V404.153C305.416 403.135 264.585 400.343 225 393V402.847Z" fill="#B3CBFF"/>
<path fill-rule="evenodd" clip-rule="evenodd" d="M225 422.846C264.585 430.189 305.416 432.981 327 434V424.154C305.416 423.135 264.585 420.343 225 413V422.846Z" fill="#B3CBFF"/>
<path fill-rule="evenodd" clip-rule="evenodd" d="M225 440.035C253.035 445.768 287.372 450.096 327 452V444.267C305.416 443.238 264.585 440.416 225 433V440.035Z" fill="#B3CBFF"/>
<path fill-rule="evenodd" clip-rule="evenodd" d="M597 291C596.988 301.393 587.292 309.422 587.916 308.818C575.427 320.868 553.98 330.428 527 337.636V445C536.258 442.456 544.989 439.626 553.079 436.5C569.789 430.07 596.326 417.139 596.793 399.296C596.795 399.178 596.759 419.108 597 291Z" fill="#DAE6FF"/>
<path fill-rule="evenodd" clip-rule="evenodd" d="M537 344.973C558.755 338.646 575.841 330.948 588 322C588 322 587.862 395.265 587.855 399.079C587.568 407.785 573.085 418.648 550.029 427.446C545.912 429.023 541.557 430.543 537 432V344.973Z" fill="#95A9FE"/>
<path fill-rule="evenodd" clip-rule="evenodd" d="M243.824 9.00348C291.873 8.74231 330.903 23.2012 331 41.2957C331.05 50.3452 321.356 58.5891 305.644 64.6034L313.895 96L284.139 70.6605C272.18 73.0627 258.591 74.4556 244.176 74.5353C196.128 74.795 157.097 60.3376 157 42.2416C156.902 24.1455 195.774 9.26465 243.824 9.00348Z" fill="#B0C2FE"/>
<mask id="mask1" mask-type="alpha" maskUnits="userSpaceOnUse" x="451" y="0" width="153" height="123">
<path fill-rule="evenodd" clip-rule="evenodd" d="M451.67 0.295166H603.221V122.911H451.67V0.295166Z" fill="white"/>
</mask>
<g mask="url(#mask1)">
<path fill-rule="evenodd" clip-rule="evenodd" d="M591.933 0.294434H462.959C456.725 0.294434 451.67 5.35776 451.67 11.6014V50.5313C451.67 56.7764 456.725 61.8383 462.959 61.8383H505.19L483.926 122.911L521.304 61.8383H591.933C598.166 61.8383 603.221 56.7764 603.221 50.5313V11.6014C603.221 5.35776 598.166 0.294434 591.933 0.294434Z" fill="#FF9999"/>
</g>
<path fill-rule="evenodd" clip-rule="evenodd" d="M27.3216 125H156.677C162.93 125 168 130.038 168 136.25V174.984C168 181.197 162.93 186.235 156.677 186.235H114.319L135.648 247L98.1595 186.235H27.3216C21.0684 186.235 16 181.197 16 174.984V136.25C16 130.038 21.0684 125 27.3216 125Z" fill="#FF9999"/>
<path fill-rule="evenodd" clip-rule="evenodd" d="M671.25 533.994L576.024 530.347C571.42 530.171 567.831 526.274 568.006 521.641L569.099 492.77C569.274 488.139 573.147 484.527 577.751 484.703L608.932 485.897L594.944 440L620.828 486.354L672.978 488.35C677.58 488.526 681.169 492.423 680.994 497.055L679.903 525.928C679.727 530.559 675.854 534.17 671.25 533.994Z" fill="#FF9999"/>
<path fill-rule="evenodd" clip-rule="evenodd" d="M457 262C452.453 277.973 441.263 293.076 426.671 299.451C409.328 308.089 387.801 301.932 381.944 301.055C381.536 300.859 358.75 294.942 354 278.617C361.312 296.723 388.932 302.936 410.411 301.468C433.042 299.26 449.563 282.109 457 262Z" fill="#DAE6FF"/>
<path fill-rule="evenodd" clip-rule="evenodd" d="M462.578 163C462.13 163 461.672 162.87 461.268 162.6C459.285 161.275 457.232 159.948 455.172 158.661C454.028 157.946 453.658 156.406 454.346 155.216C455.036 154.028 456.522 153.645 457.668 154.359C459.77 155.673 461.865 157.024 463.89 158.38C465.014 159.129 465.338 160.684 464.614 161.849C464.15 162.595 463.372 163 462.578 163Z" fill="#99D7FF"/>
<path fill-rule="evenodd" clip-rule="evenodd" d="M261.53 111.184H261.472C256.665 111.078 251.963 111.023 247.493 111.023H246.693C245.307 111.023 244.182 109.898 244.182 108.512C244.182 107.125 245.307 106 246.693 106H247.493C252 106 256.74 106.055 261.584 106.161C262.97 106.191 264.069 107.34 264.039 108.728C264.008 110.095 262.891 111.184 261.53 111.184ZM210.45 112.4C209.156 112.4 208.056 111.405 207.951 110.089C207.841 108.706 208.872 107.497 210.253 107.385C215.06 107 220.073 106.691 225.156 106.467C226.515 106.392 227.714 107.48 227.776 108.868C227.836 110.253 226.763 111.425 225.375 111.489C220.353 111.707 215.4 112.013 210.655 112.392C210.587 112.397 210.518 112.4 210.45 112.4ZM297.757 112.975C297.687 112.975 297.62 112.97 297.552 112.966C292.718 112.579 287.758 112.246 282.805 111.975C281.421 111.9 280.36 110.717 280.436 109.329C280.511 107.944 281.661 106.916 283.081 106.957C288.073 107.231 293.078 107.566 297.954 107.959C299.337 108.07 300.368 109.28 300.256 110.664C300.151 111.979 299.051 112.975 297.757 112.975ZM333.779 117.142C333.65 117.142 333.522 117.133 333.394 117.113C328.59 116.378 323.668 115.7 318.77 115.105C317.394 114.937 316.415 113.685 316.581 112.308C316.749 110.93 318.01 109.965 319.378 110.117C324.328 110.721 329.3 111.403 334.156 112.149C335.525 112.358 336.468 113.639 336.256 115.012C336.067 116.252 334.996 117.142 333.779 117.142ZM174.518 117.213C173.34 117.213 172.292 116.382 172.056 115.182C171.791 113.822 172.679 112.502 174.041 112.235C178.817 111.303 183.782 110.466 188.798 109.749C190.157 109.559 191.442 110.509 191.639 111.882C191.833 113.255 190.881 114.529 189.508 114.723C184.576 115.428 179.697 116.249 175.001 117.167C174.839 117.198 174.677 117.213 174.518 117.213ZM369.35 124.132C369.154 124.132 368.955 124.108 368.756 124.061C364.069 122.924 359.228 121.844 354.368 120.851C353.008 120.574 352.13 119.247 352.409 117.889C352.686 116.528 354.011 115.651 355.37 115.93C360.292 116.933 365.194 118.027 369.94 119.179C371.289 119.505 372.117 120.865 371.789 122.212C371.51 123.363 370.482 124.132 369.35 124.132ZM139.561 126.713C138.53 126.713 137.564 126.075 137.196 125.05C136.729 123.743 137.407 122.305 138.711 121.835C143.321 120.183 148.127 118.64 152.994 117.254C154.327 116.874 155.717 117.646 156.097 118.981C156.477 120.315 155.704 121.706 154.37 122.084C149.61 123.442 144.913 124.949 140.409 126.565C140.127 126.665 139.842 126.713 139.561 126.713ZM404.104 134.428C403.825 134.428 403.541 134.383 403.264 134.284C398.697 132.664 393.992 131.113 389.282 129.675C387.957 129.268 387.208 127.866 387.613 126.537C388.02 125.212 389.423 124.462 390.749 124.87C395.529 126.33 400.306 127.903 404.942 129.548C406.251 130.012 406.933 131.448 406.47 132.755C406.105 133.785 405.136 134.428 404.104 134.428ZM106.744 141.996C105.884 141.996 105.047 141.554 104.579 140.757C103.875 139.562 104.274 138.023 105.47 137.317C109.731 134.808 114.187 132.424 118.717 130.224C119.968 129.62 121.467 130.14 122.075 131.387C122.679 132.636 122.159 134.138 120.912 134.744C116.501 136.884 112.164 139.206 108.016 141.648C107.616 141.884 107.178 141.996 106.744 141.996ZM437.487 148.534C437.111 148.534 436.73 148.45 436.37 148.271C432.046 146.12 427.562 144.033 423.042 142.066C421.769 141.512 421.186 140.033 421.738 138.762C422.292 137.489 423.772 136.908 425.042 137.459C429.644 139.46 434.208 141.585 438.606 143.773C439.849 144.392 440.354 145.899 439.737 147.141C439.298 148.025 438.408 148.534 437.487 148.534ZM77.5835 163.431C76.9001 163.431 76.2182 163.154 75.7219 162.608C74.7911 161.581 74.8692 159.992 75.8957 159.059C79.6026 155.696 83.4907 152.459 87.4494 149.431C88.554 148.59 90.1269 148.801 90.9707 149.901C91.8132 151.003 91.6011 152.581 90.4995 153.422C86.6512 156.364 82.8736 159.513 79.2712 162.78C78.7896 163.216 78.1873 163.431 77.5835 163.431ZM52.884 189.943C52.3361 189.943 51.7838 189.765 51.3229 189.398C50.236 188.534 50.0563 186.953 50.9193 185.869C54.0224 181.968 57.286 178.122 60.6233 174.434C61.5541 173.402 63.1446 173.329 64.1711 174.257C65.1991 175.188 65.2786 176.777 64.3479 177.807C61.0813 181.416 57.8869 185.18 54.8501 188.995C54.3553 189.619 53.6233 189.943 52.884 189.943ZM32.56 219.944C32.1388 219.944 31.7103 219.837 31.3185 219.614C30.1138 218.927 29.6926 217.392 30.3818 216.187C32.8428 211.873 35.479 207.571 38.2169 203.403C38.9798 202.245 40.5394 201.924 41.6955 202.682C42.8531 203.445 43.1771 205.002 42.4157 206.163C39.7323 210.242 37.1535 214.452 34.7441 218.677C34.2802 219.488 33.4319 219.944 32.56 219.944ZM17.0932 252.709C16.7957 252.709 16.4953 252.657 16.2007 252.545C14.9047 252.052 14.2538 250.601 14.7457 249.304C16.51 244.661 18.4541 240.005 20.5203 235.465C21.0962 234.204 22.5822 233.646 23.8473 234.219C25.1109 234.796 25.6661 236.284 25.0917 237.548C23.0696 241.991 21.1683 246.547 19.4423 251.09C19.0608 252.091 18.1065 252.709 17.0932 252.709ZM6.9401 287.489C6.77073 287.489 6.59989 287.473 6.42905 287.436C5.06971 287.154 4.19784 285.826 4.47766 284.469C5.48208 279.62 6.66617 274.713 8.00195 269.889C8.37014 268.55 9.75452 267.768 11.0903 268.139C12.4276 268.507 13.2125 269.89 12.8414 271.226C11.5365 275.948 10.3775 280.744 9.39664 285.484C9.15069 286.673 8.10651 287.489 6.9401 287.489ZM2.51301 323.442C2.48061 323.442 2.44674 323.442 2.41434 323.44C1.02701 323.384 -0.0525163 322.218 0.00197544 320.83C0.196378 315.875 0.568984 310.841 1.10654 305.868C1.25529 304.489 2.49534 303.492 3.87383 303.641C5.2538 303.79 6.24938 305.03 6.10063 306.407C5.57339 311.267 5.21109 316.187 5.0211 321.027C4.96661 322.38 3.85321 323.442 2.51301 323.442ZM4.13598 359.633C2.89445 359.633 1.81493 358.712 1.64998 357.45C1.50123 356.31 1.35985 355.174 1.23025 354.028C0.791369 350.217 0.451164 346.339 0.221415 342.504C0.137468 341.121 1.19196 339.931 2.57634 339.846C3.946 339.77 5.15071 340.818 5.23465 342.201C5.45851 345.947 5.79135 349.731 6.21992 353.458C6.34658 354.575 6.48354 355.685 6.62935 356.795C6.80902 358.172 5.84143 359.433 4.46735 359.612C4.35542 359.627 4.24644 359.633 4.13598 359.633ZM12.0697 394.973C11.0093 394.973 10.0226 394.295 9.67941 393.232C8.1507 388.484 6.78104 383.619 5.60873 378.767C5.28473 377.417 6.11388 376.061 7.45998 375.737C8.81196 375.414 10.1669 376.24 10.4909 377.587C11.6337 382.317 12.971 387.063 14.46 391.691C14.8841 393.012 14.1595 394.427 12.8399 394.851C12.5822 394.935 12.3245 394.973 12.0697 394.973ZM26.2449 428.308C25.3495 428.308 24.482 427.827 24.0299 426.982C21.6705 422.577 19.4482 418.038 17.4275 413.495C16.8635 412.227 17.432 410.742 18.7 410.179C19.9651 409.611 21.4526 410.182 22.0152 411.451C23.9886 415.885 26.1551 420.31 28.457 424.609C29.1123 425.834 28.6514 427.357 27.429 428.009C27.0505 428.212 26.6455 428.308 26.2449 428.308ZM45.9753 458.68C45.2257 458.68 44.4819 458.345 43.9871 457.703C40.9194 453.733 37.9665 449.644 35.211 445.544C34.4378 444.394 34.7441 442.835 35.8943 442.058C37.0431 441.289 38.6057 441.592 39.3803 442.743C42.0725 446.749 44.9606 450.75 47.9606 454.633C48.8104 455.729 48.6086 457.308 47.5099 458.155C47.0534 458.509 46.5114 458.68 45.9753 458.68ZM70.2197 485.589C69.5923 485.589 68.9664 485.358 68.4789 484.888C64.8677 481.419 61.3376 477.825 57.9856 474.209C57.043 473.192 57.1034 471.603 58.1211 470.66C59.1343 469.719 60.7264 469.775 61.6675 470.794C64.9561 474.34 68.4171 477.865 71.959 481.264C72.959 482.228 72.99 483.817 72.0312 484.817C71.5363 485.332 70.878 485.589 70.2197 485.589ZM97.9192 508.939C97.3993 508.939 96.8735 508.778 96.4243 508.445C92.3905 505.451 88.4244 502.356 84.6379 499.242C83.5658 498.362 83.4126 496.779 84.2918 495.706C85.1725 494.634 86.7543 494.478 87.8264 495.362C91.5495 498.423 95.4479 501.466 99.417 504.408C100.53 505.235 100.765 506.809 99.9383 507.922C99.4435 508.587 98.688 508.939 97.9192 508.939ZM128.806 528C128.401 528 127.993 527.904 127.613 527.699C122.22 524.786 117.817 522.366 114.533 520.508C113.326 519.825 112.9 518.293 113.583 517.086C114.27 515.874 115.803 515.454 117.006 516.135C120.262 517.976 124.635 520.38 130 523.277C131.221 523.936 131.676 525.459 131.018 526.68C130.563 527.523 129.698 528 128.806 528Z" fill="#99D7FF"/>
<path fill-rule="evenodd" clip-rule="evenodd" d="M535 185L461.096 140L443 158.553L535 185Z" fill="#0A4CFE"/>
<path fill-rule="evenodd" clip-rule="evenodd" d="M461 196L462.057 161L535 185.521L461 196Z" fill="#99D7FF"/>
<path fill-rule="evenodd" clip-rule="evenodd" d="M461 112L536 186L461.091 140.891L461 112Z" fill="#99D7FF"/>
<path fill-rule="evenodd" clip-rule="evenodd" d="M444 159L463 161.021L462.847 166L444 159Z" fill="#0033BF"/>
</svg>
