<svg width="594" height="756" viewBox="0 0 594 756" fill="none" xmlns="http://www.w3.org/2000/svg">
<path fill-rule="evenodd" clip-rule="evenodd" d="M-0.458839 680.182L-22.8065 668.571C-37.0146 645.818 -48.0335 619.104 -49 590.235C-49 590.235 -27.9457 588.907 -4.09412 592.56L10.9535 610.508L12.1539 595.838C23.8357 598.834 35.2156 603.322 44.2348 610.013L45.8643 639.339L55.1763 620.977C56.9421 623.458 58.4507 626.134 59.6588 629.023C78.2519 673.495 92 731.028 92 731.028L45.7822 743C45.7822 743 17.1569 722.176 -8.64326 688.837L-0.458839 680.182Z" fill="#AD2500"/>
<path fill-rule="evenodd" clip-rule="evenodd" d="M37.9985 724.044C50.6424 726.691 58.6635 724.669 61.4886 723.697C42.2834 708.692 23.7073 688.188 8.5344 669.316C7.85099 669.526 7.17069 669.718 6.49348 669.893C-6.11474 673.144 -17.3515 670.378 -25.8608 666.388C-26.3427 665.596 -26.8216 664.801 -27.2958 664.001C-18.537 668.538 -6.3038 672.086 7.52092 668.05C3.09193 662.507 -1.1914 656.926 -5.40343 651.249C-16.3302 652.615 -28.4178 648.914 -37.0929 645.303C-37.4059 644.612 -37.7159 643.921 -38.0211 643.227C-29.6234 646.855 -17.3608 650.933 -6.43552 649.855C-27.8041 620.897 -42.7291 596.893 -42.8856 596.625L-47 591.435L-42.2812 594.561C-42.0069 595.026 -29.8063 614.455 -12.6838 638.55C-10.2059 625.657 -20.4044 598.339 -23.2852 591C-22.732 591.039 -22.1725 591.079 -21.61 591.124C-18.2333 599.749 -8.0038 627.611 -11.52 640.182C-0.653656 655.377 12.5155 672.532 26.8145 688.465C29.1901 681.609 12.9665 645.398 19.9277 627.666C24.1753 616.845 22.3204 606.005 20.1446 599.039C20.7304 599.239 21.3162 599.444 21.8973 599.653C23.994 606.867 25.522 617.537 21.3317 628.211C14.3178 646.077 31.8804 683.218 27.8961 689.666C30.6949 692.761 33.5354 695.806 36.4101 698.776C38.482 661.918 38.0249 660.744 33.0597 647.626C30.2052 640.08 27.5072 632.954 31.3721 626.432C34.7256 620.771 33.9182 611.48 32.4723 604.147C33.0566 604.44 33.6346 604.74 34.208 605.046C35.5485 612.413 36.0986 621.407 32.6707 627.195C26.5138 637.582 38.9206 650.081 38.9671 665.667C39.0074 679.778 38.0063 697.351 37.8358 700.244C43.7168 706.253 49.7296 711.943 55.8013 717.116C57.2378 715.098 62.9949 705.595 56.7249 690.342C51.6357 677.957 59.4647 658.497 65.0885 647.158C65.338 647.826 65.5829 648.499 65.8277 649.17C60.4054 660.456 53.4922 678.509 58.1211 689.77C64.8142 706.055 58.5086 716.005 56.9558 718.094C64.2703 724.238 71.6623 729.612 79 733.869L76.9451 734.399C75.6496 733.624 74.3525 732.817 73.057 731.977C67.8097 735.234 58.724 736.567 48.2698 732.338C41.9316 729.772 36.0971 730.726 31.5224 732.629C31.1117 732.276 30.6933 731.912 30.2672 731.54C35.2292 729.322 41.7239 728.066 48.8401 730.945C60.7292 735.756 68.9441 732.47 71.639 731.047C68.7148 729.104 65.7952 727.006 62.8895 724.78C55.8292 727.753 45.4029 727.13 37.6855 725.513C32.7079 724.472 27.9845 724.816 23.8422 725.783C23.4082 725.383 22.9712 724.979 22.5296 724.567C27.0872 723.376 32.384 722.87 37.9985 724.044Z" fill="#A7CBD3"/>
<path fill-rule="evenodd" clip-rule="evenodd" d="M50 628.705L53.9674 621C55.7432 623.458 57.2604 626.107 58.4738 628.969C77.1739 673.016 91 730 91 730C91 730 61.9849 693.05 50 628.705Z" fill="#195F6D"/>
<path fill-rule="evenodd" clip-rule="evenodd" d="M233.967 655.387C232.02 655.894 203.951 649.638 164.867 673.377C125.783 697.116 101 729 101 729C101 729 151.804 725.814 194.211 706.947C236.617 688.083 233.967 655.387 233.967 655.387Z" fill="#004A58"/>
<path fill-rule="evenodd" clip-rule="evenodd" d="M105.073 724.283C127.862 697.849 165.164 666.731 201 658C198.952 681.309 192.829 699.483 175.185 714.265C145.407 724.314 115.673 727.951 105.001 729C104.996 727.542 105.018 725.965 105.073 724.283Z" fill="#003842"/>
<path fill-rule="evenodd" clip-rule="evenodd" d="M56.764 541.884L79.818 556.27L62.3944 518.285C66.1109 505.455 70.7944 493.22 76.4109 482.223C91.9113 451.866 121.816 405 121.816 405C135.737 421.122 146.602 437.452 154.909 453.762L139.925 479.773L162.898 471.331C214.86 600.742 116.058 723.505 116.058 723.505L90.9071 730C90.9071 730 51.5095 623.908 52.0046 588.126C52.2135 573.084 53.8196 557.338 56.764 541.884Z" fill="#E0AA1A"/>
<path fill-rule="evenodd" clip-rule="evenodd" d="M52.8542 602.019C52.5416 599.787 52.2987 597.665 52.13 595.676C61.1871 608.869 84.2624 640.298 101.878 645.555C102.022 643.961 102.179 642.362 102.346 640.764C85.7108 639.078 63.7527 604.672 52 584.029C52.0665 582.151 52.1532 580.263 52.2615 578.37C64.8468 601.041 87.5847 636.433 102.675 637.789C104.116 625.344 106.366 613.005 109.763 601.799C112.554 592.6 114.68 580.382 116.293 566.548C100.6 559.94 79.6248 520.097 69.3498 498.743C69.8388 497.519 70.3386 496.304 70.8477 495.1C80.3505 515.043 101.77 556.112 116.646 563.417C117.755 553.248 118.603 542.292 119.242 531.072C103.81 517.296 91.0247 482.984 85.4942 466.331C86.1596 465.144 86.8327 463.952 87.5136 462.755C92.2487 477.289 104.684 512.116 119.459 527.12C122.413 470.949 121.35 410.229 121.319 409.297L121.893 407L122.444 409.192C122.479 410.238 125.939 486.584 121.142 547.42C144.67 549.028 164.486 527.679 174.651 514.039C174.894 515.419 175.123 516.796 175.337 518.172C172.757 521.495 169.684 525.137 166.173 528.758C155.766 539.484 144.929 546.358 134.223 549.121C129.746 550.276 125.291 550.713 120.899 550.412C119.522 566.882 117.585 582.049 114.889 594.041C136.156 595.784 162.59 580.918 177 571.484C176.885 572.785 176.763 574.08 176.629 575.371C166.135 582.119 150.52 590.857 134.769 594.922C127.793 596.722 120.79 597.606 114.194 596.993C113.701 598.988 113.185 600.881 112.645 602.665C98.0129 650.917 104.952 720.774 105.639 727.24L102.692 728C102.488 726.161 98.4106 688.38 101.618 648.603C84.64 643.99 63.6645 617.256 52.8542 602.019Z" fill="#CFD5F1"/>
<path fill-rule="evenodd" clip-rule="evenodd" d="M117.049 724.911L93.5951 731C93.5951 731 86.1263 679.114 124.107 633.431L131.977 640.807L129.439 627.391C131.701 624.972 134.102 622.578 136.649 620.218L148.322 635.423L145.794 612.411C154.159 605.828 163.828 599.619 175 594C161.513 668.193 118.664 722.873 117.049 724.911Z" fill="#6670A4"/>
<path fill-rule="evenodd" clip-rule="evenodd" d="M-6.98456 662.373L3.54079 682.81L5.4569 665.714C12.6302 667.934 19.8098 670.696 26.7671 674.121L31.3002 684.459L36.0928 679.211C55.1202 690.714 71.5073 708.007 80 733.902L64.9664 741.499C64.4785 741.625 46.0774 744.473 40.1768 743.932C31.3484 743.12 -50.3618 737.784 -74 657.748C-74 657.748 -42.2297 654.253 -6.98456 662.373Z" fill="#469AA8"/>
<path fill-rule="evenodd" clip-rule="evenodd" d="M65 737.665L63.4637 741C11.1634 728.041 -64.466 664.777 -67.5588 662.062L-72 658L-65.558 659.804C-64.7766 660.489 13.1161 728.427 65 737.665Z" fill="#A7CBD3"/>
<path fill-rule="evenodd" clip-rule="evenodd" d="M126.642 645.244L133.38 651.502L131.206 640.119C133.145 638.066 135.2 636.033 137.38 634.032L147.373 646.934L145.212 627.407C156.543 618.566 170.672 610.519 188.279 604C188.279 604 198.012 657.677 180.664 686.882C163.315 716.088 125.803 721.49 125.803 721.49L100.508 728C100.508 728 94.1227 684.008 126.642 645.244Z" fill="#E0AA1A"/>
<path fill-rule="evenodd" clip-rule="evenodd" d="M122.847 723.007L119 724C165.154 670.967 185.296 608.137 185.498 607.499L188 605L187.668 608.175C187.468 608.808 167.813 670.144 122.847 723.007Z" fill="#F3DDA3"/>
<path fill-rule="evenodd" clip-rule="evenodd" d="M100 727.611C100 727.611 120.847 668.875 149.225 643.636C177.606 618.398 235 619.001 235 619.001C235 619.001 229.67 631.033 220.55 647.006L199.221 650.042L214.197 657.705C199.222 681.961 177.427 710.567 153.057 721.165C107.609 740.929 100 727.611 100 727.611Z" fill="#AD2500"/>
<path fill-rule="evenodd" clip-rule="evenodd" d="M100 728C100.006 727.983 100.264 727.242 101.123 724.956C108.417 716.234 132.169 688.364 154.934 666.039C155.619 659.342 150.6 651.525 146.365 646.238C146.991 645.617 147.62 645.015 148.254 644.428C152.249 649.382 156.987 656.61 157.523 663.521C158.586 662.497 166.325 655.55 169.142 653.351C170.082 646.511 164.997 639.991 160.366 635.595C161.154 635.141 161.953 634.7 162.761 634.269C167.122 638.544 171.678 644.59 171.832 651.3C174.604 649.239 177.404 647.301 180.198 645.491C184.331 639.414 182.877 631.998 180.905 626.811C181.742 626.548 182.58 626.293 183.419 626.047C185.167 630.672 186.492 636.926 184.399 642.855C186.901 641.335 189.381 639.912 191.816 638.586C196.41 629.955 196.682 625.213 196.243 622.875C197.1 622.699 197.952 622.53 198.797 622.371C199.29 625.004 198.998 629.432 195.724 636.515C213.218 627.501 227.361 622.595 227.596 622.531L233 621L227.82 625.554C227.459 625.653 194.23 635.447 166.777 658.581C178.694 656.936 192.875 664.917 201.066 669.527C202.428 670.293 203.891 671.114 205.044 671.707C204.551 672.422 204.055 673.136 203.555 673.849C202.557 673.329 201.333 672.644 199.798 671.779C190.694 666.657 173.855 657.182 162.316 662.52C160.919 663.815 154.086 670.495 152.454 672.134C164.212 670.948 184.286 680.64 194.437 686.061C193.892 686.744 193.342 687.426 192.788 688.103C179.377 680.997 156.911 671.032 148.801 675.836C124.349 700.86 100 728 100 728Z" fill="#DE9C8C"/>
<path fill-rule="evenodd" clip-rule="evenodd" d="M-17 318.011C140.668 148.77 298.334 460.025 456 290.783V237.928C298.334 389.018 140.668 59.6118 -17 210.7V318.011Z" fill="#CEDEFF"/>
<path fill-rule="evenodd" clip-rule="evenodd" d="M156 210.209C203.333 230.623 250.667 262.537 298 280V273.329C250.667 255.353 203.333 222.927 156 202V210.209Z" fill="#9173F1"/>
<path fill-rule="evenodd" clip-rule="evenodd" d="M156 224.231C194 239.894 232 262.974 270 280V274.71C232 257.369 194 233.976 156 218V224.231Z" fill="#9173F1"/>
<path fill-rule="evenodd" clip-rule="evenodd" d="M94 261.246C109.333 261.752 124.667 264.627 140 269V190.415C124.667 184.491 109.333 180.059 94 178V261.246Z" fill="white"/>
<path fill-rule="evenodd" clip-rule="evenodd" d="M156 242.346C172.333 248.575 188.667 256.138 205 264V258.062C188.667 250.064 172.333 242.365 156 236V242.346Z" fill="#9173F1"/>
<path fill-rule="evenodd" clip-rule="evenodd" d="M100 250.618C109.999 251.521 120.001 253.398 130 256V195.701C120.001 192.326 109.999 189.677 100 188V250.618Z" fill="#A98FFF"/>
<path fill-rule="evenodd" clip-rule="evenodd" d="M311 335.685C326.333 339.095 341.667 340.724 357 339.694V282.707C341.667 282.172 326.333 278.975 311 274V335.685Z" fill="white"/>
<path fill-rule="evenodd" clip-rule="evenodd" d="M318 328.62C327.999 330.642 337.999 331.85 348 332V288.685C337.999 287.767 327.999 285.79 318 283V328.62Z" fill="#A98FFF"/>
<path fill-rule="evenodd" clip-rule="evenodd" d="M-12 229C19.6667 199.916 51.3333 189.959 83 191.234V182.173C51.3333 180.552 19.6667 190.162 -12 218.898V229Z" fill="#A98FFF"/>
<path fill-rule="evenodd" clip-rule="evenodd" d="M-10 245C21.6667 216.642 53.3333 206.904 85 208.024C85 205.065 85 202.105 85 199.145C53.3333 197.683 21.6667 207.082 -10 235.097V245Z" fill="#A98FFF"/>
<path fill-rule="evenodd" clip-rule="evenodd" d="M364 319C368.13 313.402 372.259 307.718 376.389 301.936C375.107 302.137 373.824 302.317 372.542 302.476C368.719 302.961 365.619 300.703 365.619 297.69V291.744C365.619 288.723 368.719 286.195 372.542 285.841C394.72 283.765 416.897 275.554 439.076 258.565C442.9 255.649 446 255.059 446 257.627V262.704C446 265.263 442.9 270.113 439.076 273.161C428.505 281.583 417.934 288.01 407.363 292.73C392.908 304.023 378.454 312.536 364 319Z" fill="#CDBDFF"/>
<path fill-rule="evenodd" clip-rule="evenodd" d="M159 256.067C159 256.072 157.152 252.708 153.5 251.356C150.244 250.154 148 252.125 148 255.323C148 259.039 151.059 264.382 159 271C166.941 270.163 170 267.25 170 263.633C170 260.533 167.754 256.92 164.498 255.602C160.848 254.131 159 256.068 159 256.067Z" fill="#A98FFF"/>
<path fill-rule="evenodd" clip-rule="evenodd" d="M310.538 281.371C310.538 281.371 318.031 278.716 324.981 285.654C331.929 292.593 367.217 347.694 367.217 347.694C367.217 347.694 418.038 305.111 421.172 301.981C424.305 298.851 423.624 288.511 424.305 286.471C424.986 284.43 431.253 279.667 432.889 279.667C434.524 279.667 429.756 286.471 429.756 286.471C429.756 286.471 435.479 285.11 437.386 279.667C439.293 274.225 438.338 260.212 440.383 260.212C442.427 260.212 442.29 267.15 442.29 267.15C442.29 267.15 441.473 255.675 444.197 257.127C446.924 258.579 446.241 267.967 446.241 267.967C446.241 267.967 447.059 260.212 448.831 260.212C450.601 260.212 449.647 269.736 449.647 269.736C449.647 269.736 451.146 264.157 452.645 264.157C454.144 264.157 450.601 286.198 447.603 291.096C444.605 295.994 427.439 307.286 427.439 307.286C427.439 307.286 378.118 373 369.942 373C361.768 373 319.53 328.374 312.718 311.504C305.906 294.633 310.538 281.371 310.538 281.371Z" fill="#FD5E5A"/>
<path fill-rule="evenodd" clip-rule="evenodd" d="M442.335 288.978L429.943 287.217C428.755 287.047 427.904 285.935 428.009 284.688L431.396 244.142C431.507 242.807 432.664 241.841 433.935 242.022L450.057 244.315C451.328 244.495 452.197 245.751 451.961 247.067L444.847 287.083C444.628 288.314 443.523 289.147 442.335 288.978Z" fill="#111F59"/>
<path fill-rule="evenodd" clip-rule="evenodd" d="M434.897 247L432 277.021L443.397 278L449 249.469L434.897 247Z" fill="#749CFE"/>
<path fill-rule="evenodd" clip-rule="evenodd" d="M419 737C419 747.492 338.188 756 238.499 756C138.814 756 58 747.492 58 737C58 726.508 138.814 718 238.499 718C338.188 718 419 726.508 419 737Z" fill="#235893"/>
<path fill-rule="evenodd" clip-rule="evenodd" d="M320.414 213C320.414 213 331.642 254.65 331.642 271.995C331.642 289.34 352.141 288.158 350.981 283.997C350.981 283.997 354.332 287.06 352.399 291.834C350.466 296.606 345.31 297.123 345.31 297.123C345.31 297.123 347.63 300.606 345.44 303.83C343.248 307.056 337.836 312.473 329.071 308.732C320.307 304.991 306 278.945 306 278.945L320.414 213Z" fill="#0E1B29"/>
<path fill-rule="evenodd" clip-rule="evenodd" d="M296.179 204.066C296.179 204.066 314.402 206.62 317.356 224.551C320.31 242.482 312.729 276.96 302.289 285.093C291.85 293.225 288.319 318.574 279.405 324.525C270.49 330.479 250.836 330.124 254.274 312.693C254.274 312.693 263.112 316.618 267.597 306.223C267.597 306.223 252.651 312.068 248.696 297.941C244.742 283.813 258.923 285.333 258.923 285.333C258.923 285.333 250.447 292.858 259 292.537C267.552 292.218 273.728 285.827 275.576 276.469C277.421 267.112 262.371 270.385 267.206 253.473C272.041 236.561 290.204 202.29 296.179 204.066Z" fill="#0E1B29"/>
<path fill-rule="evenodd" clip-rule="evenodd" d="M182.175 693C181.1 694.03 170 724.269 170 724.269L190.41 726L190.425 713.782L194 695.749L182.175 693Z" fill="#FC7575"/>
<path fill-rule="evenodd" clip-rule="evenodd" d="M382 706.504L392.261 727L406 713.094L392.435 696L382 706.504Z" fill="#FC7575"/>
<path fill-rule="evenodd" clip-rule="evenodd" d="M311 444.401C311 444.401 271.256 524.075 262.221 549.635C253.185 575.194 251.029 581.21 232.958 610.557C214.886 639.903 192.217 706 192.217 706H173C173 706 190.084 591.355 214.179 568.633C238.273 545.915 260.688 429 260.688 429L305.243 434.477L311 444.401Z" fill="#45156E"/>
<path fill-rule="evenodd" clip-rule="evenodd" d="M277.02 409C277.02 409 254 432.362 254 447.829C254 463.296 328.566 560.957 328.566 573.694C328.566 586.43 335.136 620.654 343.347 637.028C351.557 653.405 382.93 718 382.93 718L402 701.217C402 701.217 365.511 608.829 365.511 589.724C365.511 570.618 353.383 539.738 343.347 518.813C333.312 497.889 305.704 429.012 305.704 429.012L277.02 409Z" fill="#9070A9"/>
<path fill-rule="evenodd" clip-rule="evenodd" d="M302.84 279.805C302.84 279.805 278.601 276.32 274.186 286.045C269.172 297.085 278.917 314.456 281.165 333.442C285.393 369.152 283.779 393.903 274.186 402.304C260.142 414.599 246 441.827 246 441.827C246 441.827 295.813 454.38 325.406 450.117C325.406 450.117 321.94 425.402 324.475 403.995C327.804 375.85 340 345.514 340 334.918C340 316.264 335.483 313.509 318.786 281.764C316.3 277.038 302.84 279.805 302.84 279.805Z" fill="#FAC338"/>
<path fill-rule="evenodd" clip-rule="evenodd" d="M324.91 450C311.614 378.234 345.071 353.177 336.916 321.335C334.432 312.029 325.706 298.471 318 282C345.585 325.095 346.505 324.195 335.201 364.222C325.308 397.996 322.447 413.757 324.91 450Z" fill="#FFF7CF"/>
<path fill-rule="evenodd" clip-rule="evenodd" d="M283.656 398.498C283.656 390.231 302.51 394.352 291.605 383.519C280.7 372.684 294.285 343.735 294.285 328.83C294.285 313.927 273.896 285 273.896 285L271.116 294.497C271.198 305.157 277.807 319.201 279.618 334.264C283.899 369.896 282.265 394.592 272.548 402.975C258.326 415.244 244 442.412 244 442.412C244 442.412 264.035 447.385 286.353 450C292.319 431.38 283.656 406.258 283.656 398.498Z" fill="#A67076"/>
<path fill-rule="evenodd" clip-rule="evenodd" d="M325.088 247.792C325.088 247.792 316.058 285.264 318.532 287.768C321.327 290.595 326 302 326 302C326 302 305.058 287.731 302 278.275L306.524 241L325.088 247.792Z" fill="#FC7575"/>
<path fill-rule="evenodd" clip-rule="evenodd" d="M306.905 241L326 247.809C326 247.809 325.511 249.84 324.787 253C318.45 252.527 308.672 251.311 306 248.268L306.905 241Z" fill="#FD5E5A"/>
<path fill-rule="evenodd" clip-rule="evenodd" d="M305 213.001L332.752 222C332.752 222 337.973 221.092 336.839 215.249C335.705 209.405 328.214 204.942 321.069 202.888C313.925 200.833 305.496 201.003 305.496 201.003L305 213.001Z" fill="#0E1B29"/>
<path fill-rule="evenodd" clip-rule="evenodd" d="M286.281 429.369C285.249 429.799 284.062 429.313 283.631 428.28C283.201 427.249 283.687 426.063 284.721 425.631C285.752 425.201 286.94 425.689 287.37 426.72C287.801 427.751 287.314 428.939 286.281 429.369ZM287.806 426.537C287.276 425.264 285.812 424.662 284.539 425.193C283.264 425.725 282.661 427.19 283.194 428.463C283.726 429.736 285.189 430.338 286.464 429.807C287.737 429.275 288.338 427.811 287.806 426.537Z" fill="black"/>
<path fill-rule="evenodd" clip-rule="evenodd" d="M219.518 464.747C215.936 506.109 251.777 531.222 268.657 511.002C282.414 495.479 286.969 470.434 287.701 449.377C287.953 443.204 288.354 434.388 285.033 428.83L286.456 427C290.304 432.943 290.115 443.337 289.909 449.511C289.31 471.128 284.792 496.662 270.638 512.872C252.097 535.277 212.718 508.843 216.219 464.382L219.518 464.747Z" fill="#853846"/>
<path fill-rule="evenodd" clip-rule="evenodd" d="M277.19 462L270 459.257L284 430L277.19 462Z" fill="black"/>
<path fill-rule="evenodd" clip-rule="evenodd" d="M211.654 411C209.207 414.008 193 457.675 193 457.675C193 457.675 247.568 477.845 267.543 480L285 429.381L211.654 411Z" fill="#B14A5D"/>
<path fill-rule="evenodd" clip-rule="evenodd" d="M198 455C198 455 209.835 423.349 214.749 419L252 426.744L215.442 420.69C215.442 420.69 209.085 427.634 198 455Z" fill="#D38792"/>
<path fill-rule="evenodd" clip-rule="evenodd" d="M295.978 304.747C295.493 296.525 292.468 291.402 289.135 288.228C284.149 283.478 276.118 284.091 271.592 289.274C255.699 307.475 226.415 361.017 225.112 373.761C223.534 389.181 239.171 446.218 236.014 452.956C232.858 459.692 234.011 474.67 236.162 474.67C238.316 474.67 243.186 475.86 245.195 475.86C247.203 475.86 249.841 477.994 251.348 476.422C251.63 476.127 251.284 473.921 251.312 472.602C253.936 473.788 256.388 477.19 257.286 476.298C258.756 474.836 256.765 473.634 254.679 470.022C252.593 466.412 250.227 455.346 250.227 455.346C249.67 450.11 245.148 378.303 248.959 366.654C252.976 354.38 297.126 324.209 295.978 304.747Z" fill="#FC7575"/>
<path fill-rule="evenodd" clip-rule="evenodd" d="M312.123 204.003C312.123 204.003 322.14 203.756 325.643 207.905C329.147 212.054 332.01 223.037 335.119 225.152C338.229 227.268 340.607 227.999 340.607 227.999C340.607 227.999 341.531 228.477 339.185 230.309C336.841 232.139 337.887 233.434 339.501 233.115C341.117 232.793 341.562 235.923 340.39 236.528C340.39 236.528 341.491 237.284 341.496 238.897C341.502 240.511 340.308 240.92 340.308 240.92C340.308 240.92 340.228 243.273 341.425 245.021C342.623 246.771 343.183 251.995 330.007 252C330.007 252 310.283 251.254 308.119 246.092C305.956 240.933 293.779 223.033 299.527 214.381C305.275 205.731 312.123 204.003 312.123 204.003Z" fill="#FC7575"/>
<path fill-rule="evenodd" clip-rule="evenodd" d="M304.359 200.008C306.024 199.682 319.041 208.906 317.933 218.422C316.825 227.938 309.259 225.272 305.439 228.502C301.618 231.732 308.893 241.772 308.995 246.399C309.097 251.029 302.074 279 302.074 279C302.074 279 281.381 226.851 285.557 215.616C289.731 204.381 304.359 200.008 304.359 200.008Z" fill="#1B3753"/>
<path fill-rule="evenodd" clip-rule="evenodd" d="M306.596 229.068C306.596 229.068 301.724 222.473 300.443 224.329C299.162 226.188 300.518 237.039 306.343 237C312.17 236.963 306.596 229.068 306.596 229.068Z" fill="#FC7575"/>
<path fill-rule="evenodd" clip-rule="evenodd" d="M308.771 246.357C308.771 246.357 312.48 308.628 290.028 311.729C267.576 314.829 272.312 290.437 276.577 286.23C276.577 286.23 277.95 293.819 282.565 292.301C287.179 290.782 286.018 291.996 282.948 282.283C279.877 272.569 289.106 275.328 294.335 266.359C299.565 257.39 286.33 250.94 286.645 243.123C286.959 235.306 284.681 224 284.681 224L308.771 246.357Z" fill="#1B3753"/>
<path fill-rule="evenodd" clip-rule="evenodd" d="M333 224C333 225.106 332.552 226 332.001 226C331.448 226 331 225.106 331 224C331 222.896 331.448 222 332.001 222C332.552 222 333 222.896 333 224Z" fill="#1B3753"/>
<path fill-rule="evenodd" clip-rule="evenodd" d="M447 706.72C447 706.72 422.853 728.41 417.852 730.025C412.849 731.638 409.456 738.45 404.813 740.779C400.168 743.11 390 726.228 390 726.228L405.545 709.224C405.545 709.224 409.1 710.812 422.138 707.765C435.178 704.716 445.963 701.612 447 706.72Z" fill="#E9BBBD"/>
<path fill-rule="evenodd" clip-rule="evenodd" d="M192.345 718.12C192.345 718.12 194.618 720.077 198.194 723.661C202.437 727.915 223.397 740.75 220.774 743.378C218.152 746.008 190.546 745.205 187.996 742.649C185.447 740.093 178.236 736.954 172.847 736.954C167.457 736.954 166 732.132 166 726.73C166 721.325 173.72 713 173.72 713L192.345 718.12Z" fill="#E9BBBD"/>
<path fill-rule="evenodd" clip-rule="evenodd" d="M332.986 218C332.986 218 333.518 221.971 328 226L332.986 218Z" fill="#1B3753"/>
<path fill-rule="evenodd" clip-rule="evenodd" d="M320.023 233.127C320.282 234.662 322.722 235.402 325.471 234.779C328.219 234.157 330.237 232.409 329.977 230.873C329.718 229.338 327.278 228.598 324.529 229.221C321.781 229.843 319.763 231.593 320.023 233.127Z" fill="#FD5E5A"/>
<path fill-rule="evenodd" clip-rule="evenodd" d="M330 218.614C330 218.614 327.269 217.745 325.371 218.074C323.473 218.403 321.873 219.386 322.008 220C322.008 220 323.894 218.768 325.588 218.708C327.279 218.649 328.293 219.635 328.951 219.52C329.607 219.407 330 218.614 330 218.614Z" fill="#1B3753"/>
<path fill-rule="evenodd" clip-rule="evenodd" d="M302.048 200.86C302.048 200.86 305.046 198.193 317.846 199.246C330.644 200.301 336 212 336 212C336 212 327.159 208.341 322.25 209.281C317.341 210.221 305.868 210.525 303.712 209.109C301.556 207.693 302.048 200.86 302.048 200.86Z" fill="#1B3753"/>
<path fill-rule="evenodd" clip-rule="evenodd" d="M183.416 737.63C178.806 733.044 168.052 732.077 167.946 732.068C166.556 731.951 166.768 729.86 168.122 730.007C168.595 730.046 179.739 731.045 184.885 736.167C189.554 740.81 211.233 741.947 213.226 740.168C214.253 739.252 215.616 740.717 214.696 741.632C211.891 744.423 188.686 742.872 183.416 737.63Z" fill="#B880A7"/>
<path fill-rule="evenodd" clip-rule="evenodd" d="M403.052 737C402.861 737 402.669 736.95 402.496 736.843C402.003 736.541 401.852 735.905 402.16 735.419C402.368 735.09 407.371 727.305 415.547 724.806C423.267 722.444 438.587 709.862 440.047 707.497C440.35 707.01 440.993 706.853 441.493 707.151C441.991 707.447 442.149 708.084 441.847 708.572C440.025 711.519 424.079 724.363 416.172 726.781C408.758 729.048 403.993 736.438 403.945 736.514C403.746 736.828 403.404 737 403.052 737Z" fill="#B880A7"/>
<mask id="mask0" mask-type="alpha" maskUnits="userSpaceOnUse" x="-74" y="0" width="668" height="756">
<path fill-rule="evenodd" clip-rule="evenodd" d="M-74 756H594V0H-74V756Z" fill="white"/>
</mask>
<g mask="url(#mask0)">
<path fill-rule="evenodd" clip-rule="evenodd" d="M438 211H505V169H438V211Z" fill="#95B3FF"/>
<path fill-rule="evenodd" clip-rule="evenodd" d="M499 172H446L472.057 197L499 172Z" fill="white"/>
<path fill-rule="evenodd" clip-rule="evenodd" d="M471.975 202.018L442 174V206H502V174.877L471.975 202.018Z" fill="white"/>
<path fill-rule="evenodd" clip-rule="evenodd" d="M421.807 105.791C479.382 124.583 504.278 157.965 471.184 241.205C467.707 249.936 463.841 258.517 459.369 266.773C459.097 267.273 458.346 266.862 458.617 266.361C475.858 225.431 499.91 166.976 469.085 134.888C442.649 107.284 388.936 100.707 394.057 101.494C393.376 101.388 392.91 100.749 393.015 100.064C393.118 99.3791 393.754 98.909 394.434 99.0149C400.919 100.013 411.572 102.456 421.807 105.791Z" fill="#95B3FF"/>
<path fill-rule="evenodd" clip-rule="evenodd" d="M548.056 139.219C550.683 151.083 550.341 158.819 548.837 166.303C548.413 168.397 546.981 172.387 546.995 172.346C534.648 205.798 487.513 248.208 459.65 269.915C459.475 270.053 459.222 270.02 459.087 269.842C458.846 269.529 459.185 269.229 459.162 269.27C482.594 250.775 506.207 227.935 518.883 212.934C532.047 197.891 539.089 185.252 538.34 186.504C548.634 168.987 555.457 151.018 534.776 108.972C519.976 79.0671 498.656 53.6404 498.988 54.0449C498.553 53.5133 498.627 52.7259 499.153 52.2872C499.681 51.847 500.463 51.9214 500.898 52.4515C519.177 74.7208 541.561 110.671 548.056 139.219Z" fill="#95B3FF"/>
<path fill-rule="evenodd" clip-rule="evenodd" d="M363 76H411V46H363V76Z" fill="#95B3FF"/>
<path fill-rule="evenodd" clip-rule="evenodd" d="M407 48H369L387.682 66L407 48Z" fill="white"/>
<path fill-rule="evenodd" clip-rule="evenodd" d="M387.482 71.0135L366 50V74H409V50.6568L387.482 71.0135Z" fill="white"/>
<path fill-rule="evenodd" clip-rule="evenodd" d="M305 130H372V88H305V130Z" fill="#95B3FF"/>
<path fill-rule="evenodd" clip-rule="evenodd" d="M365 91H312L338.057 116L365 91Z" fill="white"/>
<path fill-rule="evenodd" clip-rule="evenodd" d="M338.975 122.018L309 94V126H369V94.8773L338.975 122.018Z" fill="white"/>
<path fill-rule="evenodd" clip-rule="evenodd" d="M433 138H500V96H433V138Z" fill="#95B3FF"/>
<path fill-rule="evenodd" clip-rule="evenodd" d="M493 100H440L466.057 125L493 100Z" fill="white"/>
<path fill-rule="evenodd" clip-rule="evenodd" d="M466.975 131.018L437 103V135H497V103.877L466.975 131.018Z" fill="white"/>
<path fill-rule="evenodd" clip-rule="evenodd" d="M215 173H282V131H215V173Z" fill="#95B3FF"/>
<path fill-rule="evenodd" clip-rule="evenodd" d="M276 135H223L249.057 160L276 135Z" fill="white"/>
<path fill-rule="evenodd" clip-rule="evenodd" d="M247.975 166.018L218 138V170H278V138.877L247.975 166.018Z" fill="white"/>
<path fill-rule="evenodd" clip-rule="evenodd" d="M151 232H218V190H151V232Z" fill="#95B3FF"/>
<path fill-rule="evenodd" clip-rule="evenodd" d="M212 193H159L185.057 218L212 193Z" fill="white"/>
<path fill-rule="evenodd" clip-rule="evenodd" d="M184.975 224.018L155 196V228H215V196.877L184.975 224.018Z" fill="white"/>
<path fill-rule="evenodd" clip-rule="evenodd" d="M154 121H201V92H154V121Z" fill="#95B3FF"/>
<path fill-rule="evenodd" clip-rule="evenodd" d="M197 94H160L178.191 111L197 94Z" fill="white"/>
<path fill-rule="evenodd" clip-rule="evenodd" d="M177.982 116.138L157 96V119H199V96.6311L177.982 116.138Z" fill="white"/>
<path fill-rule="evenodd" clip-rule="evenodd" d="M79 281H126V252H79V281Z" fill="#95B3FF"/>
<path fill-rule="evenodd" clip-rule="evenodd" d="M121 254H84L102.191 271L121 254Z" fill="white"/>
<path fill-rule="evenodd" clip-rule="evenodd" d="M101.983 275.138L81 255V278H123V255.63L101.983 275.138Z" fill="white"/>
<path fill-rule="evenodd" clip-rule="evenodd" d="M-29 357H18V328H-29V357Z" fill="#95B3FF"/>
<path fill-rule="evenodd" clip-rule="evenodd" d="M14 331H-23L-4.80934 348L14 331Z" fill="white"/>
<path fill-rule="evenodd" clip-rule="evenodd" d="M-5.017 353.138L-26 333V356H16V333.63L-5.017 353.138Z" fill="white"/>
<path fill-rule="evenodd" clip-rule="evenodd" d="M481 106H557V58H481V106Z" fill="#95B3FF"/>
<path fill-rule="evenodd" clip-rule="evenodd" d="M550 63H491L520.005 90L550 63Z" fill="white"/>
<path fill-rule="evenodd" clip-rule="evenodd" d="M519.972 97.3957L486 65V102H554V66.0159L519.972 97.3957Z" fill="white"/>
<path fill-rule="evenodd" clip-rule="evenodd" d="M462 48H538V0H462V48Z" fill="#95B3FF"/>
<path fill-rule="evenodd" clip-rule="evenodd" d="M531 5H472L501.007 32L531 5Z" fill="white"/>
<path fill-rule="evenodd" clip-rule="evenodd" d="M500.973 38.3957L467 6V43H535V7.01588L500.973 38.3957Z" fill="white"/>
<path fill-rule="evenodd" clip-rule="evenodd" d="M452 263H517V222H452V263Z" fill="#95B3FF"/>
<path fill-rule="evenodd" clip-rule="evenodd" d="M509 226H459L483.581 250L509 226Z" fill="white"/>
<path fill-rule="evenodd" clip-rule="evenodd" d="M484.476 255.143L456 228V259H513V228.851L484.476 255.143Z" fill="white"/>
<path fill-rule="evenodd" clip-rule="evenodd" d="M529 127H594V86H529V127Z" fill="#95B3FF"/>
<path fill-rule="evenodd" clip-rule="evenodd" d="M586 89H536L560.582 113L586 89Z" fill="white"/>
<path fill-rule="evenodd" clip-rule="evenodd" d="M561.476 118.142L533 91V122H590V91.8505L561.476 118.142Z" fill="white"/>
<path fill-rule="evenodd" clip-rule="evenodd" d="M509 193H574V152H509V193Z" fill="#95B3FF"/>
<path fill-rule="evenodd" clip-rule="evenodd" d="M567 156H517L541.582 180L567 156Z" fill="white"/>
<path fill-rule="evenodd" clip-rule="evenodd" d="M541.476 185.142L513 158V189H570V158.85L541.476 185.142Z" fill="white"/>
<path fill-rule="evenodd" clip-rule="evenodd" d="M377 181H447V137H377V181Z" fill="#95B3FF"/>
<path fill-rule="evenodd" clip-rule="evenodd" d="M441 142H386L413.039 167L441 142Z" fill="white"/>
<path fill-rule="evenodd" clip-rule="evenodd" d="M411.975 172.769L381 143V177H443V143.934L411.975 172.769Z" fill="white"/>
<path fill-rule="evenodd" clip-rule="evenodd" d="M306.5 230.051C306.5 230.051 303.928 225.989 303.155 227.239C302.383 228.489 304.677 235.267 305.97 234.992C307.263 234.717 307.217 232.223 306.5 230.051Z" fill="#FD5E5A"/>
</g>
</svg>
